grobe-deutschmeister.sfdir

StartChar: exclam
Encoding: 33 33 96
Width: 236
Flags: W
LayerCount: 2
Fore
SplineSet
169 -5 m 1,0,1
 134 0 134 0 101 12.5 c 128,-1,2
 68 25 68 25 36 36 c 1,3,4
 38 65 38 65 48 93 c 128,-1,5
 58 121 58 121 70 148 c 1,6,7
 104 147 104 147 137 134 c 128,-1,8
 170 121 170 121 202 112 c 1,9,10
 199 93 199 93 196.5 79.5 c 128,-1,11
 194 66 194 66 190.5 54 c 128,-1,12
 187 42 187 42 182 28.5 c 128,-1,13
 177 15 177 15 169 -5 c 1,0,1
146 180 m 1,14,15
 129 180 129 180 118.5 182 c 128,-1,16
 108 184 108 184 99 188 c 128,-1,17
 90 192 90 192 80 197 c 128,-1,18
 70 202 70 202 54 207 c 1,19,20
 49 224 49 224 49 238 c 2,21,-1
 49 259 l 1,22,-1
 49 270 l 1,23,-1
 49 342 l 2,24,25
 49 414 49 414 48.5 486.5 c 128,-1,26
 48 559 48 559 48 631 c 2,27,-1
 48 636 l 2,28,29
 48 645 48 645 41.5 650 c 128,-1,30
 35 655 35 655 27 658.5 c 128,-1,31
 19 662 19 662 12.5 665 c 128,-1,32
 6 668 6 668 6 673 c 0,33,34
 6 683 6 683 13.5 697.5 c 128,-1,35
 21 712 21 712 31.5 727.5 c 128,-1,36
 42 743 42 743 54 757 c 128,-1,37
 66 771 66 771 75 780 c 1,38,39
 90 779 90 779 104.5 774.5 c 128,-1,40
 119 770 119 770 133 765 c 128,-1,41
 147 760 147 760 161 755 c 128,-1,42
 175 750 175 750 190 748 c 1,43,44
 198 727 198 727 198 708 c 2,45,-1
 198 636 l 1,46,-1
 198 502 l 2,47,48
 198 491 198 491 198.5 471 c 128,-1,49
 199 451 199 451 199 427 c 128,-1,50
 199 403 199 403 199.5 377 c 128,-1,51
 200 351 200 351 200 329.5 c 128,-1,52
 200 308 200 308 200 293 c 128,-1,53
 200 278 200 278 200 275 c 0,54,55
 200 266 200 266 194 253.5 c 128,-1,56
 188 241 188 241 179 228 c 128,-1,57
 170 215 170 215 161 202.5 c 128,-1,58
 152 190 152 190 146 180 c 1,14,15
EndSplineSet
EndChar

StartChar: quotedbl
Encoding: 34 34 179
Width: 405
Flags: W
LayerCount: 2
Fore
SplineSet
345 784 m 1,0,1
 349 733 349 733 347.5 680.5 c 128,-1,2
 346 628 346 628 345 575 c 1,3,4
 323 565 323 565 301 567 c 128,-1,5
 279 569 279 569 257 574 c 1,6,7
 250 624 250 624 250.5 672.5 c 128,-1,8
 251 721 251 721 253 780 c 1,9,10
 267 785 267 785 277 787.5 c 128,-1,11
 287 790 287 790 296.5 790 c 128,-1,12
 306 790 306 790 317 788.5 c 128,-1,13
 328 787 328 787 345 784 c 1,0,1
172 784 m 1,14,15
 176 733 176 733 174.5 680.5 c 128,-1,16
 173 628 173 628 172 575 c 1,17,18
 150 565 150 565 128 567 c 128,-1,19
 106 569 106 569 84 574 c 1,20,21
 77 624 77 624 77.5 672.5 c 128,-1,22
 78 721 78 721 80 780 c 1,23,24
 94 785 94 785 104 787.5 c 128,-1,25
 114 790 114 790 124 790 c 128,-1,26
 134 790 134 790 145 788.5 c 128,-1,27
 156 787 156 787 172 784 c 1,14,15
EndSplineSet
EndChar

StartChar: numbersign
Encoding: 35 35 178
Width: 570
Flags: W
LayerCount: 2
Fore
SplineSet
297 563 m 1,0,1
 293 543 293 543 287 517 c 128,-1,2
 281 491 281 491 274 461 c 1,3,-1
 348 461 l 1,4,5
 356 488 356 488 362 512.5 c 128,-1,6
 368 537 368 537 374 557 c 1,7,8
 390 564 390 564 400.5 568 c 128,-1,9
 411 572 411 572 420 572 c 128,-1,10
 429 572 429 572 439 569.5 c 128,-1,11
 449 567 449 567 464 563 c 1,12,13
 456 522 456 522 441 460 c 1,14,15
 458 459 458 459 474.5 459 c 128,-1,16
 491 459 491 459 505 459 c 1,17,18
 512 445 512 445 516 435.5 c 128,-1,19
 520 426 520 426 520 416.5 c 128,-1,20
 520 407 520 407 517.5 396.5 c 128,-1,21
 515 386 515 386 511 370 c 1,22,-1
 418 367 l 1,23,24
 413 349 413 349 408.5 330.5 c 128,-1,25
 404 312 404 312 399 293 c 1,26,27
 429 293 429 293 456 292.5 c 128,-1,28
 483 292 483 292 505 292 c 1,29,30
 512 278 512 278 516 268.5 c 128,-1,31
 520 259 520 259 520 249.5 c 128,-1,32
 520 240 520 240 517.5 229.5 c 128,-1,33
 515 219 515 219 511 203 c 1,34,35
 486 201 486 201 451 200.5 c 128,-1,36
 416 200 416 200 375 200 c 1,37,-1
 350 106 l 1,38,39
 325 91 325 91 305 94 c 128,-1,40
 285 97 285 97 265 104 c 1,41,42
 268 123 268 123 273 147.5 c 128,-1,43
 278 172 278 172 284 200 c 1,44,45
 265 200 265 200 246 200.5 c 128,-1,46
 227 201 227 201 208 201 c 1,47,48
 201 173 201 173 194.5 149 c 128,-1,49
 188 125 188 125 183 106 c 1,50,51
 158 91 158 91 138 94 c 128,-1,52
 118 97 118 97 98 104 c 1,53,54
 101 123 101 123 106 148 c 128,-1,55
 111 173 111 173 117 202 c 1,56,57
 99 202 99 202 83 202.5 c 128,-1,58
 67 203 67 203 54 203 c 1,59,60
 39 224 39 224 42 245.5 c 128,-1,61
 45 267 45 267 52 288 c 1,62,63
 69 290 69 290 90.5 290.5 c 128,-1,64
 112 291 112 291 138 292 c 1,65,-1
 157 368 l 1,66,-1
 54 370 l 1,67,68
 39 391 39 391 42 412.5 c 128,-1,69
 45 434 45 434 52 455 c 1,70,71
 76 457 76 457 109 458 c 128,-1,72
 142 459 142 459 181 460 c 1,73,74
 188 487 188 487 194.5 512 c 128,-1,75
 201 537 201 537 207 557 c 1,76,77
 223 564 223 564 233.5 568 c 128,-1,78
 244 572 244 572 253 572 c 128,-1,79
 262 572 262 572 272 569.5 c 128,-1,80
 282 567 282 567 297 563 c 1,0,1
251 368 m 1,81,82
 246 349 246 349 241.5 330.5 c 128,-1,83
 237 312 237 312 232 294 c 1,84,-1
 306 294 l 1,85,-1
 324 367 l 1,86,87
 306 367 306 367 288 367.5 c 128,-1,88
 270 368 270 368 251 368 c 1,81,82
EndSplineSet
EndChar

StartChar: dollar
Encoding: 36 36 215
Width: 536
Flags: W
LayerCount: 2
Fore
SplineSet
266 886 m 1,0,-1
 313 886 l 1,1,-1
 313 797 l 1,2,3
 360 785 360 785 405.5 771 c 128,-1,4
 451 757 451 757 499 746 c 1,5,6
 501 731 501 731 494 719 c 128,-1,7
 487 707 487 707 480 696 c 0,8,9
 466 676 466 676 453.5 656 c 128,-1,10
 441 636 441 636 421 620 c 1,11,-1
 313 656 l 1,12,-1
 313 498 l 1,13,14
 319 506 319 506 324.5 514.5 c 128,-1,15
 330 523 330 523 336 531 c 1,16,17
 359 526 359 526 380.5 517.5 c 128,-1,18
 402 509 402 509 423.5 499.5 c 128,-1,19
 445 490 445 490 466 480.5 c 128,-1,20
 487 471 487 471 510 464 c 1,21,22
 512 285 512 285 510 105 c 1,23,24
 462 78 462 78 412.5 55.5 c 128,-1,25
 363 33 363 33 313 8 c 1,26,-1
 313 -82 l 1,27,-1
 266 -82 l 1,28,-1
 266 3 l 1,29,30
 249 8 249 8 232.5 15 c 128,-1,31
 216 22 216 22 199 27 c 1,32,33
 155 43 155 43 110.5 56 c 128,-1,34
 66 69 66 69 25 92 c 1,35,-1
 37 108 l 1,36,37
 77 157 77 157 123 203 c 1,38,39
 158 189 158 189 193.5 175.5 c 128,-1,40
 229 162 229 162 266 149 c 1,41,-1
 266 333 l 1,42,43
 260 325 260 325 254.5 317.5 c 128,-1,44
 249 310 249 310 244 303 c 1,45,46
 219 302 219 302 197.5 313 c 128,-1,47
 176 324 176 324 153 333 c 1,48,49
 133 342 133 342 113 349.5 c 128,-1,50
 93 357 93 357 75 368 c 1,51,52
 69 377 69 377 69 386.5 c 128,-1,53
 69 396 69 396 69 407 c 0,54,55
 69 471 69 471 69.5 535 c 128,-1,56
 70 599 70 599 69 663 c 0,57,58
 69 674 69 674 68.5 684.5 c 128,-1,59
 68 695 68 695 73 704 c 1,60,61
 105 727 105 727 141 741.5 c 128,-1,62
 177 756 177 756 211 776 c 1,63,64
 225 782 225 782 238.5 790 c 128,-1,65
 252 798 252 798 266 801 c 1,66,-1
 266 886 l 1,0,-1
358 122 m 1,67,68
 358 182 358 182 359 241 c 128,-1,69
 360 300 360 300 358 359 c 1,70,71
 350 367 350 367 341 372 c 128,-1,72
 332 377 332 377 324 383 c 1,73,74
 318 382 318 382 313 378 c 1,75,-1
 313 134 l 1,76,-1
 358 122 l 1,67,68
228 683 m 1,77,78
 222 672 222 672 219.5 659.5 c 128,-1,79
 217 647 217 647 217 635 c 0,80,81
 219 594 219 594 218 554 c 128,-1,82
 217 514 217 514 219 473 c 1,83,84
 224 460 224 460 239 456 c 128,-1,85
 254 452 254 452 265 447 c 1,86,-1
 266 447 l 1,87,-1
 266 671 l 1,88,-1
 228 683 l 1,77,78
EndSplineSet
EndChar

StartChar: percent
Encoding: 37 37 191
Width: 928
Flags: W
LayerCount: 2
Fore
SplineSet
651 806 m 1,0,1
 681 800 681 800 706 789 c 128,-1,2
 731 778 731 778 754 765 c 1,3,4
 739 737 739 737 706 680 c 128,-1,5
 673 623 673 623 632 552.5 c 128,-1,6
 591 482 591 482 545.5 405 c 128,-1,7
 500 328 500 328 460.5 260 c 128,-1,8
 421 192 421 192 390.5 141 c 128,-1,9
 360 90 360 90 349 71 c 0,10,11
 335 48 335 48 321.5 23.5 c 128,-1,12
 308 -1 308 -1 294 -25 c 1,13,14
 287 -30 287 -30 265.5 -34 c 128,-1,15
 244 -38 244 -38 219 -40.5 c 128,-1,16
 194 -43 194 -43 171 -44.5 c 128,-1,17
 148 -46 148 -46 137 -46 c 1,18,19
 157 -12 157 -12 175.5 20.5 c 128,-1,20
 194 53 194 53 212 85 c 0,21,22
 229 114 229 114 258 163 c 128,-1,23
 287 212 287 212 322 270 c 128,-1,24
 357 328 357 328 394 391 c 128,-1,25
 431 454 431 454 464 511.5 c 128,-1,26
 497 569 497 569 523.5 616 c 128,-1,27
 550 663 550 663 564 690 c 0,28,29
 593 744 593 744 611 774 c 128,-1,30
 629 804 629 804 651 806 c 1,0,1
168 779 m 0,31,32
 178 784 178 784 188.5 788 c 128,-1,33
 199 792 199 792 210 792 c 0,34,35
 213 792 213 792 217 791 c 128,-1,36
 221 790 221 790 225 789 c 0,37,38
 265 775 265 775 303.5 761 c 128,-1,39
 342 747 342 747 381 730 c 1,40,41
 381 677 381 677 380.5 644 c 128,-1,42
 380 611 380 611 380 583.5 c 128,-1,43
 380 556 380 556 379.5 527.5 c 128,-1,44
 379 499 379 499 379 455 c 1,45,46
 341 436 341 436 303 417.5 c 128,-1,47
 265 399 265 399 224 383 c 0,48,49
 216 379 216 379 209 379 c 0,50,51
 197 379 197 379 176 386 c 128,-1,52
 155 393 155 393 130.5 402.5 c 128,-1,53
 106 412 106 412 81 422.5 c 128,-1,54
 56 433 56 433 37 439 c 1,55,56
 35 471 35 471 35 512.5 c 128,-1,57
 35 554 35 554 35 594 c 128,-1,58
 35 634 35 634 35 667.5 c 128,-1,59
 35 701 35 701 35 718 c 1,60,61
 67 735 67 735 101 749 c 128,-1,62
 135 763 135 763 168 779 c 0,31,32
176 675 m 1,63,64
 175 656 175 656 174.5 659.5 c 128,-1,65
 174 663 174 663 174 671 c 128,-1,66
 174 679 174 679 174 682.5 c 128,-1,67
 174 686 174 686 174 667 c 2,68,-1
 174 516 l 1,69,70
 211 500 211 500 245 492 c 1,71,72
 245 520 245 520 245 535.5 c 128,-1,73
 245 551 245 551 245 560.5 c 128,-1,74
 245 570 245 570 245 575.5 c 128,-1,75
 245 581 245 581 245 589.5 c 128,-1,76
 245 598 245 598 245.5 611.5 c 128,-1,77
 246 625 246 625 246 650 c 1,78,79
 232 658 232 658 217 667.5 c 128,-1,80
 202 677 202 677 185 677 c 0,81,82
 180 677 180 677 176 675 c 1,63,64
690 395 m 0,83,84
 700 400 700 400 710.5 404 c 128,-1,85
 721 408 721 408 732 408 c 0,86,87
 735 408 735 408 739 407 c 128,-1,88
 743 406 743 406 747 405 c 0,89,90
 787 391 787 391 825.5 377 c 128,-1,91
 864 363 864 363 903 346 c 1,92,93
 903 293 903 293 902.5 260 c 128,-1,94
 902 227 902 227 902 199.5 c 128,-1,95
 902 172 902 172 901.5 143.5 c 128,-1,96
 901 115 901 115 901 71 c 1,97,98
 863 52 863 52 825 33.5 c 128,-1,99
 787 15 787 15 746 -1 c 0,100,101
 738 -5 738 -5 731 -5 c 0,102,103
 719 -5 719 -5 698 2 c 128,-1,104
 677 9 677 9 652.5 18.5 c 128,-1,105
 628 28 628 28 603 38.5 c 128,-1,106
 578 49 578 49 559 55 c 1,107,108
 557 87 557 87 557 128.5 c 128,-1,109
 557 170 557 170 557 210 c 128,-1,110
 557 250 557 250 557 283.5 c 128,-1,111
 557 317 557 317 557 334 c 1,112,113
 589 351 589 351 623 365 c 128,-1,114
 657 379 657 379 690 395 c 0,83,84
698 291 m 1,115,116
 697 272 697 272 696.5 275.5 c 128,-1,117
 696 279 696 279 696 287 c 128,-1,118
 696 295 696 295 696 298.5 c 128,-1,119
 696 302 696 302 696 283 c 2,120,-1
 696 132 l 1,121,122
 733 116 733 116 767 108 c 1,123,124
 767 136 767 136 767 151.5 c 128,-1,125
 767 167 767 167 767 176.5 c 128,-1,126
 767 186 767 186 767 191.5 c 128,-1,127
 767 197 767 197 767 205.5 c 128,-1,128
 767 214 767 214 767.5 227.5 c 128,-1,129
 768 241 768 241 768 266 c 1,130,131
 754 274 754 274 739 283.5 c 128,-1,132
 724 293 724 293 707 293 c 0,133,134
 702 293 702 293 698 291 c 1,115,116
EndSplineSet
EndChar

StartChar: quotesingle
Encoding: 39 39 180
Width: 247
Flags: W
LayerCount: 2
Fore
SplineSet
172 784 m 1,0,1
 176 733 176 733 174.5 680.5 c 128,-1,2
 173 628 173 628 172 575 c 1,3,4
 150 565 150 565 128 567 c 128,-1,5
 106 569 106 569 84 574 c 1,6,7
 77 624 77 624 77.5 672.5 c 128,-1,8
 78 721 78 721 80 780 c 1,9,10
 94 785 94 785 104 787.5 c 128,-1,11
 114 790 114 790 124 790 c 128,-1,12
 134 790 134 790 145 788.5 c 128,-1,13
 156 787 156 787 172 784 c 1,0,1
EndSplineSet
EndChar

StartChar: parenleft
Encoding: 40 40 189
Width: 227
Flags: W
LayerCount: 2
Fore
SplineSet
46 350 m 0,0,1
 46 442 46 442 45.5 533 c 128,-1,2
 45 624 45 624 41 715 c 1,3,4
 44 744 44 744 36.5 773 c 128,-1,5
 29 802 29 802 18 829 c 1,6,7
 20 840 20 840 29 847.5 c 128,-1,8
 38 855 38 855 45 863 c 1,9,10
 62 879 62 879 77.5 897 c 128,-1,11
 93 915 93 915 113 929 c 1,12,13
 143 927 143 927 172.5 922 c 128,-1,14
 202 917 202 917 231 911 c 1,15,16
 231 882 231 882 229 852.5 c 128,-1,17
 227 823 227 823 228 794 c 1,18,-1
 159 799 l 1,19,20
 172 781 172 781 180 759.5 c 128,-1,21
 188 738 188 738 188 715 c 2,22,-1
 188 -8 l 2,23,24
 188 -31 188 -31 180 -52.5 c 128,-1,25
 172 -74 172 -74 159 -92 c 1,26,-1
 228 -87 l 1,27,28
 227 -116 227 -116 229 -145.5 c 128,-1,29
 231 -175 231 -175 231 -204 c 1,30,31
 202 -210 202 -210 172.5 -215 c 128,-1,32
 143 -220 143 -220 113 -222 c 1,33,34
 93 -208 93 -208 77.5 -190 c 128,-1,35
 62 -172 62 -172 45 -156 c 1,36,37
 38 -148 38 -148 29 -140.5 c 128,-1,38
 20 -133 20 -133 18 -122 c 1,39,40
 29 -95 29 -95 36.5 -66 c 128,-1,41
 44 -37 44 -37 41 -8 c 1,42,43
 45 81 45 81 45.5 170 c 128,-1,44
 46 259 46 259 46 350 c 0,0,1
EndSplineSet
EndChar

StartChar: parenright
Encoding: 41 41 190
Width: 227
Flags: W
LayerCount: 2
Fore
SplineSet
203 350 m 0,0,1
 203 259 203 259 203.5 170 c 128,-1,2
 204 81 204 81 208 -8 c 1,3,4
 205 -37 205 -37 212.5 -66 c 128,-1,5
 220 -95 220 -95 231 -122 c 1,6,7
 229 -133 229 -133 220 -140.5 c 128,-1,8
 211 -148 211 -148 204 -156 c 1,9,10
 187 -172 187 -172 171.5 -190 c 128,-1,11
 156 -208 156 -208 136 -222 c 1,12,13
 106 -220 106 -220 76.5 -215 c 128,-1,14
 47 -210 47 -210 18 -204 c 1,15,16
 18 -175 18 -175 20 -145.5 c 128,-1,17
 22 -116 22 -116 21 -87 c 1,18,-1
 90 -92 l 1,19,20
 77 -74 77 -74 69 -52.5 c 128,-1,21
 61 -31 61 -31 61 -8 c 2,22,-1
 61 715 l 2,23,24
 61 738 61 738 69 759.5 c 128,-1,25
 77 781 77 781 90 799 c 1,26,-1
 21 794 l 1,27,28
 22 823 22 823 20 852.5 c 128,-1,29
 18 882 18 882 18 911 c 1,30,31
 47 917 47 917 76.5 922 c 128,-1,32
 106 927 106 927 136 929 c 1,33,34
 156 915 156 915 171.5 897 c 128,-1,35
 187 879 187 879 204 863 c 1,36,37
 211 855 211 855 220 847.5 c 128,-1,38
 229 840 229 840 231 829 c 1,39,40
 220 802 220 802 212.5 773 c 128,-1,41
 205 744 205 744 208 715 c 1,42,43
 204 624 204 624 203.5 533 c 128,-1,44
 203 442 203 442 203 350 c 0,0,1
EndSplineSet
EndChar

StartChar: asterisk
Encoding: 42 42 159
Width: 348
Flags: W
LayerCount: 2
Fore
SplineSet
293 528 m 1,0,1
 273 539 273 539 252 550.5 c 128,-1,2
 231 562 231 562 211 574 c 1,3,-1
 210 485 l 1,4,5
 199 477 199 477 191.5 473.5 c 128,-1,6
 184 470 184 470 176.5 470 c 128,-1,7
 169 470 169 470 161 472 c 128,-1,8
 153 474 153 474 141 479 c 1,9,10
 140 503 140 503 139.5 526.5 c 128,-1,11
 139 550 139 550 139 575 c 1,12,13
 119 564 119 564 99.5 553.5 c 128,-1,14
 80 543 80 543 61 532 c 1,15,16
 40 538 40 538 34.5 553.5 c 128,-1,17
 29 569 29 569 26 586 c 1,18,19
 46 600 46 600 65 612 c 128,-1,20
 84 624 84 624 103 636 c 1,21,-1
 28 681 l 1,22,23
 23 702 23 702 34 715 c 128,-1,24
 45 728 45 728 59 739 c 1,25,26
 80 728 80 728 100.5 718 c 128,-1,27
 121 708 121 708 141 696 c 1,28,-1
 142 784 l 1,29,30
 158 799 158 799 174 796.5 c 128,-1,31
 190 794 190 794 207 787 c 1,32,-1
 210 697 l 1,33,-1
 287 740 l 1,34,35
 299 735 299 735 305.5 730 c 128,-1,36
 312 725 312 725 316 719 c 128,-1,37
 320 713 320 713 322.5 705 c 128,-1,38
 325 697 325 697 327 684 c 1,39,40
 307 671 307 671 286.5 659.5 c 128,-1,41
 266 648 266 648 246 635 c 1,42,43
 264 624 264 624 283 613 c 128,-1,44
 302 602 302 602 322 590 c 1,45,46
 323 577 323 577 322.5 569 c 128,-1,47
 322 561 322 561 319 554.5 c 128,-1,48
 316 548 316 548 309.5 542 c 128,-1,49
 303 536 303 536 293 528 c 1,0,1
EndSplineSet
EndChar

StartChar: plus
Encoding: 43 43 158
Width: 405
Flags: W
LayerCount: 2
Fore
SplineSet
146 234 m 1,0,1
 144 257 144 257 143 281.5 c 128,-1,2
 142 306 142 306 142 330 c 1,3,-1
 54 333 l 1,4,5
 39 362 39 362 42 392 c 128,-1,6
 45 422 45 422 52 452 c 1,7,8
 75 454 75 454 97.5 456 c 128,-1,9
 120 458 120 458 143 459 c 1,10,-1
 146 547 l 1,11,12
 175 562 175 562 205 559 c 128,-1,13
 235 556 235 556 265 549 c 1,14,15
 267 526 267 526 269 504 c 128,-1,16
 271 482 271 482 272 459 c 1,17,18
 293 459 293 459 315 458.5 c 128,-1,19
 337 458 337 458 361 457 c 1,20,21
 368 437 368 437 372 423.5 c 128,-1,22
 376 410 376 410 376 397 c 128,-1,23
 376 384 376 384 373.5 369.5 c 128,-1,24
 371 355 371 355 367 333 c 1,25,26
 344 331 344 331 320 330 c 128,-1,27
 296 329 296 329 272 329 c 1,28,29
 272 307 272 307 271.5 285 c 128,-1,30
 271 263 271 263 270 240 c 1,31,32
 250 232 250 232 236.5 228.5 c 128,-1,33
 223 225 223 225 210 225 c 128,-1,34
 197 225 197 225 182.5 227 c 128,-1,35
 168 229 168 229 146 234 c 1,0,1
EndSplineSet
EndChar

StartChar: hyphen
Encoding: 45 45 116
Width: 405
Flags: W
LayerCount: 2
Fore
SplineSet
367 333 m 1,0,1
 291 327 291 327 211.5 329 c 128,-1,2
 132 331 132 331 54 333 c 1,3,4
 39 362 39 362 42 392 c 128,-1,5
 45 422 45 422 52 452 c 1,6,7
 126 461 126 461 199.5 460 c 128,-1,8
 273 459 273 459 361 457 c 1,9,10
 368 437 368 437 372 423.5 c 128,-1,11
 376 410 376 410 376 397 c 128,-1,12
 376 384 376 384 373.5 369.5 c 128,-1,13
 371 355 371 355 367 333 c 1,0,1
EndSplineSet
EndChar

StartChar: period
Encoding: 46 46 97
Width: 236
Flags: W
LayerCount: 2
Fore
SplineSet
169 -5 m 1,0,1
 134 0 134 0 101 12.5 c 128,-1,2
 68 25 68 25 36 36 c 1,3,4
 38 65 38 65 48 93 c 128,-1,5
 58 121 58 121 70 148 c 1,6,7
 104 147 104 147 137 134 c 128,-1,8
 170 121 170 121 202 112 c 1,9,10
 199 93 199 93 196.5 79.5 c 128,-1,11
 194 66 194 66 190.5 54 c 128,-1,12
 187 42 187 42 182 28.5 c 128,-1,13
 177 15 177 15 169 -5 c 1,0,1
EndSplineSet
EndChar

StartChar: slash
Encoding: 47 47 130
Width: 342
Flags: W
LayerCount: 2
Fore
SplineSet
292 867 m 1,0,1
 324 861 324 861 352 850 c 128,-1,2
 380 839 380 839 406 826 c 1,3,4
 401 805 401 805 387.5 759 c 128,-1,5
 374 713 374 713 356 652 c 128,-1,6
 338 591 338 591 316.5 519 c 128,-1,7
 295 447 295 447 273 373.5 c 128,-1,8
 251 300 251 300 229.5 229.5 c 128,-1,9
 208 159 208 159 190.5 101 c 128,-1,10
 173 43 173 43 160.5 2 c 128,-1,11
 148 -39 148 -39 144 -53 c 0,12,13
 137 -76 137 -76 130 -100.5 c 128,-1,14
 123 -125 123 -125 115 -149 c 1,15,16
 109 -154 109 -154 89 -158 c 128,-1,17
 69 -162 69 -162 45 -164.5 c 128,-1,18
 21 -167 21 -167 -2 -168.5 c 128,-1,19
 -25 -170 -25 -170 -36 -170 c 1,20,21
 -26 -136 -26 -136 -16.5 -103.5 c 128,-1,22
 -7 -71 -7 -71 2 -39 c 0,23,24
 11 -10 11 -10 30 52.5 c 128,-1,25
 49 115 49 115 73.5 194 c 128,-1,26
 98 273 98 273 124.5 359.5 c 128,-1,27
 151 446 151 446 174 524 c 128,-1,28
 197 602 197 602 214.5 663 c 128,-1,29
 232 724 232 724 238 751 c 0,30,31
 251 805 251 805 260.5 835 c 128,-1,32
 270 865 270 865 292 867 c 1,0,1
EndSplineSet
EndChar

StartChar: zero
Encoding: 48 48 86
Width: 451
Flags: W
LayerCount: 2
Fore
SplineSet
160 718 m 1,0,1
 161 729 161 729 167.5 736.5 c 128,-1,2
 174 744 174 744 183.5 749 c 128,-1,3
 193 754 193 754 203.5 757 c 128,-1,4
 214 760 214 760 223 763 c 1,5,6
 269 746 269 746 314 727 c 128,-1,7
 359 708 359 708 404 690 c 1,8,9
 413 688 413 688 417.5 682.5 c 128,-1,10
 422 677 422 677 423.5 670 c 128,-1,11
 425 663 425 663 425 655.5 c 128,-1,12
 425 648 425 648 425 642 c 0,13,14
 424 507 424 507 424.5 374.5 c 128,-1,15
 425 242 425 242 425 108 c 0,16,17
 425 97 425 97 424 84 c 128,-1,18
 423 71 423 71 410 67 c 1,19,20
 365 46 365 46 321.5 21.5 c 128,-1,21
 278 -3 278 -3 233 -23 c 1,22,23
 188 -14 188 -14 146.5 4.5 c 128,-1,24
 105 23 105 23 62 37 c 1,25,26
 57 40 57 40 51 42 c 128,-1,27
 45 44 45 44 39.5 46.5 c 128,-1,28
 34 49 34 49 30.5 52.5 c 128,-1,29
 27 56 27 56 28 63 c 1,30,31
 26 197 26 197 26 328.5 c 128,-1,32
 26 460 26 460 26 594 c 1,33,34
 28 611 28 611 26 628.5 c 128,-1,35
 24 646 24 646 29 663 c 1,36,37
 61 683 61 683 94 699 c 128,-1,38
 127 715 127 715 160 733 c 1,39,-1
 160 718 l 1,0,1
179 630 m 1,40,41
 178 616 178 616 177 602 c 128,-1,42
 176 588 176 588 175 574 c 1,43,44
 180 512 180 512 178 450.5 c 128,-1,45
 176 389 176 389 178 327 c 0,46,47
 179 282 179 282 175 236 c 128,-1,48
 171 190 171 190 179 145 c 1,49,50
 202 131 202 131 226 122.5 c 128,-1,51
 250 114 250 114 275 105 c 1,52,53
 277 218 277 218 275.5 330 c 128,-1,54
 274 442 274 442 275 555 c 1,55,56
 274 565 274 565 275.5 578 c 128,-1,57
 277 591 277 591 266 597 c 1,58,59
 245 606 245 606 223.5 615.5 c 128,-1,60
 202 625 202 625 179 630 c 1,40,41
EndSplineSet
EndChar

StartChar: one
Encoding: 49 49 87
Width: 288
Flags: W
LayerCount: 2
Fore
SplineSet
126 738 m 1,0,1
 133 746 133 746 139 756 c 128,-1,2
 145 766 145 766 158 768 c 1,3,4
 183 769 183 769 208 768.5 c 128,-1,5
 233 768 233 768 258 766 c 1,6,7
 262 747 262 747 262.5 727.5 c 128,-1,8
 263 708 263 708 262.5 688.5 c 128,-1,9
 262 669 262 669 260.5 649.5 c 128,-1,10
 259 630 259 630 260 610 c 1,11,12
 256 609 256 609 252 608 c 128,-1,13
 248 607 248 607 246 607 c 1,14,15
 248 605 248 605 253.5 602.5 c 128,-1,16
 259 600 259 600 261 598 c 1,17,18
 259 452 259 452 259.5 308 c 128,-1,19
 260 164 260 164 258 18 c 1,20,21
 223 7 223 7 186.5 1 c 128,-1,22
 150 -5 150 -5 113 -5 c 1,23,24
 114 4 114 4 112.5 14.5 c 128,-1,25
 111 25 111 25 110.5 35.5 c 128,-1,26
 110 46 110 46 113 54.5 c 128,-1,27
 116 63 116 63 126 69 c 1,28,-1
 111 64 l 1,29,30
 113 200 113 200 114 334 c 128,-1,31
 115 468 115 468 113 604 c 1,32,33
 108 599 108 599 103 593 c 128,-1,34
 98 587 98 587 93 582 c 0,35,36
 74 560 74 560 53 546 c 1,37,38
 49 553 49 553 42.5 560 c 128,-1,39
 36 567 36 567 31.5 575 c 128,-1,40
 27 583 27 583 25.5 591 c 128,-1,41
 24 599 24 599 30 607 c 0,42,43
 54 640 54 640 79.5 671.5 c 128,-1,44
 105 703 105 703 126 738 c 1,0,1
EndSplineSet
EndChar

StartChar: two
Encoding: 50 50 88
Width: 483
Flags: W
LayerCount: 2
Fore
SplineSet
198 780 m 1,0,1
 213 783 213 783 227 778 c 128,-1,2
 241 773 241 773 254 765.5 c 128,-1,3
 267 758 267 758 280 749.5 c 128,-1,4
 293 741 293 741 307 736 c 1,5,6
 321 729 321 729 338 722 c 128,-1,7
 355 715 355 715 369.5 705.5 c 128,-1,8
 384 696 384 696 394 683 c 128,-1,9
 404 670 404 670 405 651 c 0,10,11
 408 591 408 591 406.5 531.5 c 128,-1,12
 405 472 405 472 406 412 c 1,13,14
 408 394 408 394 402.5 377 c 128,-1,15
 397 360 397 360 382 349 c 1,16,17
 332 303 332 303 286.5 253.5 c 128,-1,18
 241 204 241 204 193 156 c 0,19,20
 192 154 192 154 189.5 148.5 c 128,-1,21
 187 143 187 143 186 139 c 1,22,23
 189 141 189 141 194 144 c 128,-1,24
 199 147 199 147 202 148 c 0,25,26
 244 150 244 150 285.5 149 c 128,-1,27
 327 148 327 148 369 150 c 1,28,29
 376 167 376 167 383.5 183.5 c 128,-1,30
 391 200 391 200 402 214 c 1,31,32
 416 209 416 209 430.5 205 c 128,-1,33
 445 201 445 201 457 190 c 1,34,35
 459 170 459 170 450 151.5 c 128,-1,36
 441 133 441 133 432 115 c 1,37,38
 416 88 416 88 402 61 c 128,-1,39
 388 34 388 34 369 9 c 1,40,41
 283 12 283 12 197 10.5 c 128,-1,42
 111 9 111 9 25 9 c 1,43,44
 27 19 27 19 25.5 30.5 c 128,-1,45
 24 42 24 42 31 51 c 0,46,47
 76 119 76 119 120.5 185 c 128,-1,48
 165 251 165 251 211 318 c 1,49,50
 222 337 222 337 235 357.5 c 128,-1,51
 248 378 248 378 246 403 c 1,52,-1
 246 565 l 1,53,54
 247 577 247 577 242 586.5 c 128,-1,55
 237 596 237 596 228.5 603.5 c 128,-1,56
 220 611 220 611 209.5 616.5 c 128,-1,57
 199 622 199 622 190 628 c 0,58,59
 178 637 178 637 164 637.5 c 128,-1,60
 150 638 150 638 136 636 c 1,61,62
 126 625 126 625 116.5 616 c 128,-1,63
 107 607 107 607 96 597 c 1,64,65
 91 597 91 597 83.5 596 c 128,-1,66
 76 595 76 595 70 595 c 1,67,68
 61 606 61 606 52.5 618.5 c 128,-1,69
 44 631 44 631 36 642 c 1,70,71
 74 679 74 679 115 713 c 128,-1,72
 156 747 156 747 198 780 c 1,0,1
EndSplineSet
EndChar

StartChar: three
Encoding: 51 51 89
Width: 462
Flags: W
LayerCount: 2
Fore
SplineSet
118 747 m 1,0,1
 124 761 124 761 138 763.5 c 128,-1,2
 152 766 152 766 166 768 c 1,3,4
 232 766 232 766 296 767 c 128,-1,5
 360 768 360 768 424 768 c 1,6,7
 437 761 437 761 436 745 c 128,-1,8
 435 729 435 729 433 717 c 1,9,10
 416 681 416 681 394 648 c 128,-1,11
 372 615 372 615 352 580 c 0,12,13
 347 573 347 573 342.5 565.5 c 128,-1,14
 338 558 338 558 333 550 c 0,15,16
 325 539 325 539 317 527 c 128,-1,17
 309 515 309 515 301 502 c 1,18,19
 316 491 316 491 332.5 484 c 128,-1,20
 349 477 349 477 365.5 470 c 128,-1,21
 382 463 382 463 397.5 455 c 128,-1,22
 413 447 413 447 427 435 c 1,23,24
 438 411 438 411 437 386 c 128,-1,25
 436 361 436 361 436 336 c 1,26,27
 434 301 434 301 435.5 265.5 c 128,-1,28
 437 230 437 230 429 196 c 1,29,30
 439 173 439 173 437 149 c 128,-1,31
 435 125 435 125 430 102 c 1,32,33
 379 75 379 75 331.5 42.5 c 128,-1,34
 284 10 284 10 232 -14 c 1,35,36
 182 6 182 6 134 29.5 c 128,-1,37
 86 53 86 53 37 75 c 1,38,39
 30 76 30 76 27.5 80.5 c 128,-1,40
 25 85 25 85 25 90.5 c 128,-1,41
 25 96 25 96 27 101.5 c 128,-1,42
 29 107 29 107 31 112 c 0,43,44
 46 137 46 137 60.5 161.5 c 128,-1,45
 75 186 75 186 91 211 c 1,46,47
 136 188 136 188 178 164.5 c 128,-1,48
 220 141 220 141 265 120 c 1,49,50
 272 118 272 118 276 121 c 128,-1,51
 280 124 280 124 281.5 130 c 128,-1,52
 283 136 283 136 283 142.5 c 128,-1,53
 283 149 283 149 283 154 c 0,54,55
 282 199 282 199 283.5 241.5 c 128,-1,56
 285 284 285 284 283 328 c 1,57,58
 278 342 278 342 267.5 349.5 c 128,-1,59
 257 357 257 357 243.5 362.5 c 128,-1,60
 230 368 230 368 216.5 373 c 128,-1,61
 203 378 203 378 193 387 c 1,62,63
 191 387 191 387 187 386 c 128,-1,64
 183 385 183 385 180 385 c 1,65,-1
 178 397 l 1,66,67
 175 396 175 396 169.5 395 c 128,-1,68
 164 394 164 394 159 394 c 1,69,70
 160 405 160 405 159 415 c 128,-1,71
 158 425 158 425 165 433 c 1,72,73
 195 482 195 482 227.5 528.5 c 128,-1,74
 260 575 260 575 289 625 c 1,75,76
 272 633 272 633 253.5 635 c 128,-1,77
 235 637 235 637 215.5 636.5 c 128,-1,78
 196 636 196 636 176.5 634.5 c 128,-1,79
 157 633 157 633 138 634 c 1,80,81
 130 618 130 618 120.5 602.5 c 128,-1,82
 111 587 111 587 100 573 c 1,83,84
 91 568 91 568 82 570 c 128,-1,85
 73 572 73 572 65 577 c 128,-1,86
 57 582 57 582 50 589 c 128,-1,87
 43 596 43 596 36 601 c 1,88,89
 55 639 55 639 76.5 675 c 128,-1,90
 98 711 98 711 118 747 c 1,0,1
EndSplineSet
EndChar

StartChar: four
Encoding: 52 52 90
Width: 510
Flags: W
LayerCount: 2
Fore
SplineSet
275 769 m 1,0,1
 288 775 288 775 302.5 776.5 c 128,-1,2
 317 778 317 778 332 776.5 c 128,-1,3
 347 775 347 775 361.5 773 c 128,-1,4
 376 771 376 771 390 771 c 1,5,6
 394 652 394 652 393.5 535 c 128,-1,7
 393 418 393 418 392 300 c 1,8,9
 415 301 415 301 437 301.5 c 128,-1,10
 459 302 459 302 482 300 c 1,11,12
 485 284 485 284 483.5 268.5 c 128,-1,13
 482 253 482 253 478 237.5 c 128,-1,14
 474 222 474 222 468.5 207 c 128,-1,15
 463 192 463 192 458 177 c 1,16,17
 443 177 443 177 428.5 177 c 128,-1,18
 414 177 414 177 398 178 c 1,19,20
 389 137 389 137 392.5 94.5 c 128,-1,21
 396 52 396 52 390 9 c 1,22,23
 356 5 356 5 323.5 -2.5 c 128,-1,24
 291 -10 291 -10 257 -12 c 1,25,26
 257 14 257 14 251 38.5 c 128,-1,27
 245 63 245 63 252 88 c 1,28,29
 256 108 256 108 255 129.5 c 128,-1,30
 254 151 254 151 255 171 c 1,31,32
 239 174 239 174 223.5 175.5 c 128,-1,33
 208 177 208 177 194 175 c 1,34,35
 152 177 152 177 110.5 176 c 128,-1,36
 69 175 69 175 27 178 c 1,37,38
 27 200 27 200 26 221 c 128,-1,39
 25 242 25 242 30 264 c 1,40,41
 91 392 91 392 151.5 518 c 128,-1,42
 212 644 212 644 275 769 c 1,0,1
203 465 m 1,43,44
 201 465 201 465 195.5 464 c 128,-1,45
 190 463 190 463 186 463 c 2,46,-1
 201 462 l 1,47,48
 181 421 181 421 162.5 381 c 128,-1,49
 144 341 144 341 125 300 c 1,50,51
 157 300 157 300 188 300 c 128,-1,52
 219 300 219 300 251 301 c 1,53,54
 256 370 256 370 253 438.5 c 128,-1,55
 250 507 250 507 257 576 c 1,56,57
 241 550 241 550 229 521.5 c 128,-1,58
 217 493 217 493 203 465 c 1,43,44
EndSplineSet
EndChar

StartChar: five
Encoding: 53 53 91
Width: 449
Flags: W
LayerCount: 2
Fore
SplineSet
76 753 m 1,0,1
 99 760 99 760 121.5 759.5 c 128,-1,2
 144 759 144 759 167 759 c 0,3,4
 228 760 228 760 289.5 762 c 128,-1,5
 351 764 351 764 412 759 c 1,6,7
 403 726 403 726 394 692.5 c 128,-1,8
 385 659 385 659 374 627 c 1,9,10
 319 623 319 623 265 624.5 c 128,-1,11
 211 626 211 626 157 622 c 0,12,13
 153 622 153 622 149 620.5 c 128,-1,14
 145 619 145 619 143 618 c 1,15,16
 135 593 135 593 134 566.5 c 128,-1,17
 133 540 133 540 134 514 c 1,18,19
 188 513 188 513 239.5 515.5 c 128,-1,20
 291 518 291 518 344 513 c 1,21,22
 364 498 364 498 383 482 c 128,-1,23
 402 466 402 466 419 447 c 1,24,25
 425 427 425 427 423.5 406.5 c 128,-1,26
 422 386 422 386 422 366 c 0,27,28
 420 297 420 297 422.5 228.5 c 128,-1,29
 425 160 425 160 419 91 c 1,30,31
 375 59 375 59 326.5 33.5 c 128,-1,32
 278 8 278 8 233 -24 c 1,33,34
 180 -3 180 -3 130 26 c 128,-1,35
 80 55 80 55 26 76 c 1,36,37
 24 88 24 88 28.5 98 c 128,-1,38
 33 108 33 108 39 117.5 c 128,-1,39
 45 127 45 127 52 136 c 128,-1,40
 59 145 59 145 64 154 c 1,41,42
 73 167 73 167 79.5 181 c 128,-1,43
 86 195 86 195 100 202 c 1,44,45
 121 193 121 193 140.5 182 c 128,-1,46
 160 171 160 171 179 160 c 1,47,48
 179 155 179 155 180 149 c 128,-1,49
 181 143 181 143 181 139 c 1,50,51
 182 141 182 141 184.5 146 c 128,-1,52
 187 151 187 151 188 153 c 1,53,54
 211 142 211 142 231.5 129 c 128,-1,55
 252 116 252 116 274 105 c 1,56,57
 276 171 276 171 275.5 236 c 128,-1,58
 275 301 275 301 274 367 c 1,59,60
 248 372 248 372 222 372.5 c 128,-1,61
 196 373 196 373 170.5 372 c 128,-1,62
 145 371 145 371 119 369.5 c 128,-1,63
 93 368 93 368 67 370 c 1,64,65
 56 375 56 375 57 385 c 128,-1,66
 58 395 58 395 58 403 c 0,67,68
 61 491 61 491 66.5 578 c 128,-1,69
 72 665 72 665 76 753 c 1,0,1
EndSplineSet
EndChar

StartChar: six
Encoding: 54 54 92
Width: 444
Flags: W
LayerCount: 2
Fore
SplineSet
223 768 m 1,0,1
 274 752 274 752 321.5 730.5 c 128,-1,2
 369 709 369 709 418 690 c 1,3,4
 407 659 407 659 386.5 633 c 128,-1,5
 366 607 366 607 344 582 c 0,6,7
 343 580 343 580 339.5 580 c 128,-1,8
 336 580 336 580 334 580 c 0,9,10
 293 593 293 593 255 612.5 c 128,-1,11
 217 632 217 632 175 643 c 1,12,13
 176 590 176 590 174.5 537 c 128,-1,14
 173 484 173 484 176 430 c 1,15,16
 198 454 198 454 221 475.5 c 128,-1,17
 244 497 244 497 268 519 c 1,18,19
 306 503 306 503 343 486 c 128,-1,20
 380 469 380 469 418 451 c 1,21,-1
 418 381 l 1,22,23
 416 381 416 381 411 380 c 128,-1,24
 406 379 406 379 404 379 c 1,25,26
 411 377 411 377 414.5 372.5 c 128,-1,27
 418 368 418 368 418.5 361.5 c 128,-1,28
 419 355 419 355 418.5 348.5 c 128,-1,29
 418 342 418 342 418 336 c 0,30,31
 418 280 418 280 418 226 c 128,-1,32
 418 172 418 172 419 117 c 0,33,34
 419 111 419 111 419 103.5 c 128,-1,35
 419 96 419 96 417.5 89 c 128,-1,36
 416 82 416 82 412.5 77 c 128,-1,37
 409 72 409 72 401 69 c 0,38,39
 359 49 359 49 320 24.5 c 128,-1,40
 281 0 281 0 238 -20 c 1,41,42
 188 -9 188 -9 142.5 13.5 c 128,-1,43
 97 36 97 36 49 52 c 1,44,45
 39 54 39 54 34.5 60 c 128,-1,46
 30 66 30 66 28 74 c 128,-1,47
 26 82 26 82 26 91 c 128,-1,48
 26 100 26 100 26 108 c 0,49,50
 26 160 26 160 25 212 c 128,-1,51
 24 264 24 264 28 316 c 1,52,53
 26 397 26 397 25.5 478 c 128,-1,54
 25 559 25 559 26 640 c 1,55,56
 37 656 37 656 53 664.5 c 128,-1,57
 69 673 69 673 83 682 c 0,58,59
 118 704 118 704 151.5 727.5 c 128,-1,60
 185 751 185 751 223 768 c 1,0,1
221 382 m 1,61,62
 207 377 207 377 196.5 365.5 c 128,-1,63
 186 354 186 354 175 343 c 1,64,65
 175 295 175 295 174 247.5 c 128,-1,66
 173 200 173 200 176 151 c 1,67,68
 199 137 199 137 223 128.5 c 128,-1,69
 247 120 247 120 271 109 c 1,70,71
 273 169 273 169 272.5 227.5 c 128,-1,72
 272 286 272 286 272 346 c 1,73,74
 273 356 273 356 268 362.5 c 128,-1,75
 263 369 263 369 255 373 c 128,-1,76
 247 377 247 377 237.5 379 c 128,-1,77
 228 381 228 381 221 382 c 1,61,62
EndSplineSet
EndChar

StartChar: seven
Encoding: 55 55 93
Width: 454
Flags: W
LayerCount: 2
Fore
SplineSet
78 750 m 1,0,1
 166 751 166 751 253.5 751.5 c 128,-1,2
 341 752 341 752 429 750 c 1,3,4
 418 690 418 690 400 633 c 128,-1,5
 382 576 382 576 367 516 c 1,6,7
 353 453 353 453 335 392.5 c 128,-1,8
 317 332 317 332 300 270 c 0,9,10
 282 204 282 204 265 138.5 c 128,-1,11
 248 73 248 73 226 9 c 1,12,13
 189 -2 189 -2 150 -5.5 c 128,-1,14
 111 -9 111 -9 73 -14 c 1,15,16
 70 15 70 15 80.5 42.5 c 128,-1,17
 91 70 91 70 99 97 c 0,18,19
 117 157 117 157 135.5 216.5 c 128,-1,20
 154 276 154 276 174 336 c 1,21,22
 175 349 175 349 187 357 c 1,23,24
 184 360 184 360 178 360 c 1,25,26
 200 424 200 424 221 487 c 128,-1,27
 242 550 242 550 259 616 c 1,28,29
 221 616 221 616 182.5 616 c 128,-1,30
 144 616 144 616 105 615 c 1,31,32
 99 599 99 599 93.5 583 c 128,-1,33
 88 567 88 567 81 550 c 1,34,35
 67 550 67 550 53 553 c 128,-1,36
 39 556 39 556 27 561 c 1,37,38
 24 574 24 574 25.5 586.5 c 128,-1,39
 27 599 27 599 31 611.5 c 128,-1,40
 35 624 35 624 39 636.5 c 128,-1,41
 43 649 43 649 46 661 c 1,42,43
 55 683 55 683 59 706.5 c 128,-1,44
 63 730 63 730 78 750 c 1,0,1
EndSplineSet
EndChar

StartChar: eight
Encoding: 56 56 94
Width: 449
Flags: W
LayerCount: 2
Fore
SplineSet
215 762 m 0,0,1
 224 767 224 767 233.5 762.5 c 128,-1,2
 243 758 243 758 251 756 c 1,3,4
 293 738 293 738 333.5 719 c 128,-1,5
 374 700 374 700 415 681 c 1,6,7
 418 627 418 627 416 573.5 c 128,-1,8
 414 520 414 520 416 466 c 1,9,10
 395 450 395 450 371.5 439 c 128,-1,11
 348 428 348 428 326 414 c 1,12,13
 349 399 349 399 372.5 387.5 c 128,-1,14
 396 376 396 376 418 361 c 1,15,16
 425 352 425 352 423.5 340.5 c 128,-1,17
 422 329 422 329 424 318 c 1,18,19
 422 282 422 282 422.5 246 c 128,-1,20
 423 210 423 210 421 174 c 0,21,22
 420 162 420 162 421 149 c 128,-1,23
 422 136 422 136 423 123 c 128,-1,24
 424 110 424 110 423 97 c 128,-1,25
 422 84 422 84 418 72 c 1,26,27
 403 61 403 61 385.5 53 c 128,-1,28
 368 45 368 45 352 36 c 1,29,30
 321 21 321 21 292 3 c 128,-1,31
 263 -15 263 -15 230 -26 c 1,32,33
 192 -13 192 -13 157 6.5 c 128,-1,34
 122 26 122 26 85 39 c 0,35,36
 76 43 76 43 65.5 46.5 c 128,-1,37
 55 50 55 50 45.5 55 c 128,-1,38
 36 60 36 60 30 67.5 c 128,-1,39
 24 75 24 75 26 87 c 1,40,41
 26 146 26 146 25 204 c 128,-1,42
 24 262 24 262 28 321 c 1,43,44
 45 337 45 337 66.5 344 c 128,-1,45
 88 351 88 351 107 361 c 1,46,47
 109 358 109 358 109.5 353 c 128,-1,48
 110 348 110 348 112 345 c 1,49,50
 112 350 112 350 112.5 359.5 c 128,-1,51
 113 369 113 369 113 375 c 1,52,53
 103 380 103 380 92.5 386 c 128,-1,54
 82 392 82 392 71 397 c 1,55,-1
 74 409 l 1,56,57
 69 408 69 408 62 405.5 c 128,-1,58
 55 403 55 403 52 402 c 1,59,-1
 52 415 l 1,60,61
 48 415 48 415 42 416 c 128,-1,62
 36 417 36 417 32 417 c 1,63,64
 30 481 30 481 29 545 c 128,-1,65
 28 609 28 609 34 673 c 1,66,67
 80 695 80 695 124.5 717.5 c 128,-1,68
 169 740 169 740 215 762 c 0,0,1
178 643 m 1,69,70
 176 606 176 606 175 569 c 128,-1,71
 174 532 174 532 179 495 c 1,72,73
 199 484 199 484 220.5 474 c 128,-1,74
 242 464 242 464 262 453 c 1,75,76
 270 464 270 464 271 477 c 128,-1,77
 272 490 272 490 271.5 503.5 c 128,-1,78
 271 517 271 517 271.5 530.5 c 128,-1,79
 272 544 272 544 280 555 c 1,80,-1
 283 558 l 1,81,82
 283 560 283 560 281.5 563 c 128,-1,83
 280 566 280 566 278 568 c 1,84,85
 278 572 278 572 277.5 576.5 c 128,-1,86
 277 581 277 581 277 583 c 0,87,88
 278 587 278 587 281 591.5 c 128,-1,89
 284 596 284 596 286 598 c 1,90,-1
 283 610 l 1,91,92
 279 609 279 609 275 607.5 c 128,-1,93
 271 606 271 606 268 606 c 0,94,95
 244 611 244 611 222.5 623 c 128,-1,96
 201 635 201 635 178 643 c 1,69,70
173 318 m 1,97,98
 172 275 172 275 170.5 232.5 c 128,-1,99
 169 190 169 190 176 148 c 1,100,101
 200 134 200 134 225 122 c 128,-1,102
 250 110 250 110 275 97 c 1,103,104
 277 139 277 139 277 179.5 c 128,-1,105
 277 220 277 220 275 261 c 1,106,107
 277 271 277 271 272.5 278 c 128,-1,108
 268 285 268 285 261 290 c 128,-1,109
 254 295 254 295 245.5 298.5 c 128,-1,110
 237 302 237 302 230 307 c 1,111,112
 224 310 224 310 216.5 315 c 128,-1,113
 209 320 209 320 201.5 323 c 128,-1,114
 194 326 194 326 186.5 325.5 c 128,-1,115
 179 325 179 325 173 318 c 1,97,98
EndSplineSet
EndChar

StartChar: nine
Encoding: 57 57 95
Width: 447
Flags: W
LayerCount: 2
Fore
SplineSet
163 739 m 1,0,1
 178 747 178 747 194.5 756 c 128,-1,2
 211 765 211 765 229 757 c 1,3,4
 274 740 274 740 317 722.5 c 128,-1,5
 360 705 360 705 405 688 c 1,6,7
 419 686 419 686 419.5 673.5 c 128,-1,8
 420 661 420 661 421 651 c 1,9,-1
 421 213 l 1,10,11
 420 180 420 180 421.5 147.5 c 128,-1,12
 423 115 423 115 418 82 c 1,13,14
 399 65 399 65 376 53.5 c 128,-1,15
 353 42 353 42 330 28 c 1,16,17
 306 16 306 16 282 2 c 128,-1,18
 258 -12 258 -12 232 -23 c 1,19,20
 180 -5 180 -5 128 15.5 c 128,-1,21
 76 36 76 36 25 60 c 1,22,23
 30 90 30 90 49.5 114.5 c 128,-1,24
 69 139 69 139 85 165 c 0,25,26
 90 174 90 174 99.5 174 c 128,-1,27
 109 174 109 174 117 169 c 1,28,29
 156 151 156 151 195.5 133.5 c 128,-1,30
 235 116 235 116 274 100 c 1,31,32
 274 150 274 150 274.5 200 c 128,-1,33
 275 250 275 250 273 301 c 1,34,35
 253 285 253 285 233.5 267.5 c 128,-1,36
 214 250 214 250 196 232 c 1,37,38
 184 232 184 232 172 233 c 128,-1,39
 160 234 160 234 150 241 c 1,40,41
 121 256 121 256 90.5 269 c 128,-1,42
 60 282 60 282 30 297 c 1,43,44
 28 388 28 388 29 479 c 128,-1,45
 30 570 30 570 30 663 c 1,46,47
 62 684 62 684 96.5 701 c 128,-1,48
 131 718 131 718 163 739 c 1,0,1
175 631 m 1,49,-1
 175 543 l 1,50,51
 173 543 173 543 167.5 542 c 128,-1,52
 162 541 162 541 159 540 c 2,53,-1
 175 541 l 1,54,-1
 175 513 l 1,55,-1
 159 514 l 2,56,57
 162 513 162 513 167 513 c 128,-1,58
 172 513 172 513 175 511 c 1,59,60
 174 481 174 481 174.5 450.5 c 128,-1,61
 175 420 175 420 175 388 c 1,62,63
 189 379 189 379 203.5 371 c 128,-1,64
 218 363 218 363 235 358 c 1,65,66
 248 365 248 365 257.5 376.5 c 128,-1,67
 267 388 267 388 274 400 c 1,68,69
 276 445 276 445 275 488 c 128,-1,70
 274 531 274 531 274 576 c 1,71,72
 276 586 276 586 268 590.5 c 128,-1,73
 260 595 260 595 253 598 c 0,74,75
 234 607 234 607 215.5 617.5 c 128,-1,76
 197 628 197 628 175 631 c 1,49,-1
EndSplineSet
EndChar

StartChar: colon
Encoding: 58 58 98
Width: 236
Flags: W
LayerCount: 2
Fore
SplineSet
177 340 m 1,0,1
 142 345 142 345 109 357.5 c 128,-1,2
 76 370 76 370 44 381 c 1,3,4
 46 410 46 410 56 438 c 128,-1,5
 66 466 66 466 78 493 c 1,6,7
 112 492 112 492 145 479 c 128,-1,8
 178 466 178 466 210 457 c 1,9,10
 207 438 207 438 204.5 424.5 c 128,-1,11
 202 411 202 411 198.5 399 c 128,-1,12
 195 387 195 387 190 373.5 c 128,-1,13
 185 360 185 360 177 340 c 1,0,1
169 -5 m 1,14,15
 134 0 134 0 101 12.5 c 128,-1,16
 68 25 68 25 36 36 c 1,17,18
 38 65 38 65 48 93 c 128,-1,19
 58 121 58 121 70 148 c 1,20,21
 104 147 104 147 137 134 c 128,-1,22
 170 121 170 121 202 112 c 1,23,24
 199 93 199 93 196.5 79.5 c 128,-1,25
 194 66 194 66 190.5 54 c 128,-1,26
 187 42 187 42 182 28.5 c 128,-1,27
 177 15 177 15 169 -5 c 1,14,15
EndSplineSet
EndChar

StartChar: semicolon
Encoding: 59 59 100
Width: 216
Flags: W
LayerCount: 2
Fore
SplineSet
84 127 m 1,0,1
 113 121 113 121 141 110.5 c 128,-1,2
 169 100 169 100 195 88 c 1,3,4
 201 50 201 50 197.5 12 c 128,-1,5
 194 -26 194 -26 185.5 -58.5 c 128,-1,6
 177 -91 177 -91 166.5 -117 c 128,-1,7
 156 -143 156 -143 149 -157 c 1,8,9
 145 -162 145 -162 135.5 -164.5 c 128,-1,10
 126 -167 126 -167 114 -168 c 128,-1,11
 102 -169 102 -169 89 -169.5 c 128,-1,12
 76 -170 76 -170 67 -170 c 1,13,14
 66 -129 66 -129 66 -108.5 c 128,-1,15
 66 -88 66 -88 66.5 -80 c 128,-1,16
 67 -72 67 -72 68 -71 c 128,-1,17
 69 -70 69 -70 69.5 -66 c 128,-1,18
 70 -62 70 -62 70 -51 c 128,-1,19
 70 -40 70 -40 68 -12 c 1,20,21
 58 -2 58 -2 47 5 c 128,-1,22
 36 12 36 12 26 20 c 1,23,24
 38 49 38 49 54 75 c 128,-1,25
 70 101 70 101 84 127 c 1,0,1
177 218 m 1,26,27
 142 223 142 223 109 235.5 c 128,-1,28
 76 248 76 248 44 259 c 1,29,30
 46 288 46 288 56 316 c 128,-1,31
 66 344 66 344 78 371 c 1,32,33
 112 370 112 370 145 357 c 128,-1,34
 178 344 178 344 210 335 c 1,35,36
 207 316 207 316 204.5 302.5 c 128,-1,37
 202 289 202 289 198.5 277 c 128,-1,38
 195 265 195 265 190 251.5 c 128,-1,39
 185 238 185 238 177 218 c 1,26,27
EndSplineSet
EndChar

StartChar: less
Encoding: 60 60 161
Width: 405
Flags: W
LayerCount: 2
Fore
SplineSet
369 456 m 1,0,1
 318 423 318 423 263 392 c 128,-1,2
 208 361 208 361 153 330 c 1,3,4
 204 304 204 304 254.5 274 c 128,-1,5
 305 244 305 244 365 209 c 1,6,7
 365 193 365 193 363 183 c 128,-1,8
 361 173 361 173 356.5 164.5 c 128,-1,9
 352 156 352 156 345 148 c 128,-1,10
 338 140 338 140 326 129 c 1,11,12
 257 164 257 164 189 204.5 c 128,-1,13
 121 245 121 245 53 286 c 1,14,15
 45 297 45 297 42.5 306.5 c 128,-1,16
 40 316 40 316 41 326 c 128,-1,17
 42 336 42 336 45.5 346.5 c 128,-1,18
 49 357 49 357 52 371 c 1,19,20
 83 393 83 393 114 412.5 c 128,-1,21
 145 432 145 432 178 451 c 128,-1,22
 211 470 211 470 246 489.5 c 128,-1,23
 281 509 281 509 320 531 c 1,24,25
 333 522 333 522 341 515.5 c 128,-1,26
 349 509 349 509 354 501 c 128,-1,27
 359 493 359 493 362 482.5 c 128,-1,28
 365 472 365 472 369 456 c 1,0,1
EndSplineSet
EndChar

StartChar: equal
Encoding: 61 61 128
Width: 405
Flags: W
LayerCount: 2
Fore
SplineSet
369 203 m 1,0,1
 292 199 292 199 212.5 200.5 c 128,-1,2
 133 202 133 202 54 203 c 1,3,4
 39 224 39 224 42 245.5 c 128,-1,5
 45 267 45 267 52 288 c 1,6,7
 127 295 127 295 200.5 294.5 c 128,-1,8
 274 294 274 294 363 292 c 1,9,10
 370 278 370 278 374 268.5 c 128,-1,11
 378 259 378 259 378 249.5 c 128,-1,12
 378 240 378 240 375.5 229.5 c 128,-1,13
 373 219 373 219 369 203 c 1,0,1
369 370 m 1,14,15
 292 366 292 366 212.5 367.5 c 128,-1,16
 133 369 133 369 54 370 c 1,17,18
 39 391 39 391 42 412.5 c 128,-1,19
 45 434 45 434 52 455 c 1,20,21
 127 462 127 462 200.5 461.5 c 128,-1,22
 274 461 274 461 363 459 c 1,23,24
 370 445 370 445 374 435.5 c 128,-1,25
 378 426 378 426 378 416.5 c 128,-1,26
 378 407 378 407 375.5 396.5 c 128,-1,27
 373 386 373 386 369 370 c 1,14,15
EndSplineSet
EndChar

StartChar: greater
Encoding: 62 62 162
Width: 405
Flags: W
LayerCount: 2
Fore
SplineSet
40 456 m 1,0,1
 44 472 44 472 47 482.5 c 128,-1,2
 50 493 50 493 55 501 c 128,-1,3
 60 509 60 509 67.5 515.5 c 128,-1,4
 75 522 75 522 89 531 c 1,5,6
 166 487 166 487 230.5 450.5 c 128,-1,7
 295 414 295 414 357 371 c 1,8,9
 360 357 360 357 363.5 346.5 c 128,-1,10
 367 336 367 336 368 326 c 128,-1,11
 369 316 369 316 366.5 306.5 c 128,-1,12
 364 297 364 297 356 286 c 1,13,14
 288 245 288 245 220 204.5 c 128,-1,15
 152 164 152 164 83 129 c 1,16,17
 71 140 71 140 64 148 c 128,-1,18
 57 156 57 156 52.5 164.5 c 128,-1,19
 48 173 48 173 46 183 c 128,-1,20
 44 193 44 193 44 209 c 1,21,22
 104 244 104 244 154.5 274 c 128,-1,23
 205 304 205 304 256 330 c 1,24,25
 201 361 201 361 146 392 c 128,-1,26
 91 423 91 423 40 456 c 1,0,1
EndSplineSet
EndChar

StartChar: question
Encoding: 63 63 129
Width: 379
Flags: W
LayerCount: 2
Fore
SplineSet
101 356 m 1,0,1
 105 365 105 365 115.5 371 c 128,-1,2
 126 377 126 377 139 383 c 128,-1,3
 152 389 152 389 166 396 c 128,-1,4
 180 403 180 403 192 414 c 1,5,6
 195 436 195 436 196 451.5 c 128,-1,7
 197 467 197 467 197 485.5 c 128,-1,8
 197 504 197 504 196 531 c 128,-1,9
 195 558 195 558 195 605 c 1,10,11
 190 615 190 615 168.5 624 c 128,-1,12
 147 633 147 633 120 641 c 128,-1,13
 93 649 93 649 66 656 c 128,-1,14
 39 663 39 663 24 668 c 1,15,16
 25 684 25 684 35 704 c 128,-1,17
 45 724 45 724 58 741.5 c 128,-1,18
 71 759 71 759 84 771 c 128,-1,19
 97 783 97 783 104 783 c 0,20,21
 109 783 109 783 128.5 778 c 128,-1,22
 148 773 148 773 175 764.5 c 128,-1,23
 202 756 202 756 231.5 745.5 c 128,-1,24
 261 735 261 735 286 724.5 c 128,-1,25
 311 714 311 714 327 705 c 128,-1,26
 343 696 343 696 342 690 c 1,27,-1
 342 361 l 2,28,29
 342 356 342 356 333 350.5 c 128,-1,30
 324 345 324 345 310.5 338.5 c 128,-1,31
 297 332 297 332 281 325.5 c 128,-1,32
 265 319 265 319 250 314 c 1,33,34
 250 296 250 296 252 286.5 c 128,-1,35
 254 277 254 277 254 275 c 0,36,37
 254 266 254 266 248 253.5 c 128,-1,38
 242 241 242 241 233 228 c 128,-1,39
 224 215 224 215 215 202.5 c 128,-1,40
 206 190 206 190 200 180 c 1,41,42
 183 180 183 180 172.5 182 c 128,-1,43
 162 184 162 184 153 188 c 128,-1,44
 144 192 144 192 134 197 c 128,-1,45
 124 202 124 202 108 207 c 1,46,47
 103 224 103 224 103 238 c 1,48,49
 99 269 99 269 98.5 289.5 c 128,-1,50
 98 310 98 310 99 323 c 128,-1,51
 100 336 100 336 101 343 c 128,-1,52
 102 350 102 350 101 356 c 1,0,1
223 -5 m 1,53,54
 188 0 188 0 155 12.5 c 128,-1,55
 122 25 122 25 90 36 c 1,56,57
 92 65 92 65 102 93 c 128,-1,58
 112 121 112 121 124 148 c 1,59,60
 158 147 158 147 191 134 c 128,-1,61
 224 121 224 121 256 112 c 1,62,63
 253 93 253 93 250.5 79.5 c 128,-1,64
 248 66 248 66 244.5 54 c 128,-1,65
 241 42 241 42 236 28.5 c 128,-1,66
 231 15 231 15 223 -5 c 1,53,54
EndSplineSet
EndChar

StartChar: A
Encoding: 65 65 217
Width: 548
Flags: W
LayerCount: 2
Fore
SplineSet
103 786 m 0,0,1
 110 794 110 794 120 795 c 128,-1,2
 130 796 130 796 139 795 c 0,3,4
 223 786 223 786 305.5 775 c 128,-1,5
 388 764 388 764 472 751 c 1,6,7
 484 751 484 751 488.5 744.5 c 128,-1,8
 493 738 493 738 494 729.5 c 128,-1,9
 495 721 495 721 494.5 711 c 128,-1,10
 494 701 494 701 495 693 c 1,11,12
 495 553 495 553 494 413 c 128,-1,13
 493 273 493 273 496 132 c 1,14,15
 509 128 509 128 521 124.5 c 128,-1,16
 533 121 533 121 546 115 c 1,17,18
 535 83 535 83 515.5 55.5 c 128,-1,19
 496 28 496 28 478 1 c 1,20,21
 461 1 461 1 444.5 6 c 128,-1,22
 428 11 428 11 414 18 c 1,23,24
 398 23 398 23 383 27 c 128,-1,25
 368 31 368 31 354 39 c 1,26,27
 345 66 345 66 348 94.5 c 128,-1,28
 351 123 351 123 349 151 c 0,29,30
 346 189 346 189 347.5 228.5 c 128,-1,31
 349 268 349 268 343 307 c 1,32,33
 308 305 308 305 270.5 307 c 128,-1,34
 233 309 233 309 201 300 c 1,35,36
 197 259 197 259 198 217 c 128,-1,37
 199 175 199 175 201 133 c 1,38,39
 205 127 205 127 212 125 c 128,-1,40
 219 123 219 123 226.5 121 c 128,-1,41
 234 119 234 119 240.5 115.5 c 128,-1,42
 247 112 247 112 250 103 c 1,43,44
 236 77 236 77 220 51.5 c 128,-1,45
 204 26 204 26 186 1 c 1,46,47
 150 0 150 0 115 14 c 128,-1,48
 80 28 80 28 48 42 c 1,49,50
 51 180 51 180 49.5 315.5 c 128,-1,51
 48 451 48 451 48 589 c 1,52,53
 50 600 50 600 61 604 c 128,-1,54
 72 608 72 608 81 613 c 0,55,56
 106 624 106 624 133 633 c 128,-1,57
 160 642 160 642 183 658 c 1,58,59
 168 660 168 660 145 662.5 c 128,-1,60
 122 665 122 665 98.5 667.5 c 128,-1,61
 75 670 75 670 55 673 c 128,-1,62
 35 676 35 676 25 681 c 1,63,64
 41 710 41 710 60.5 736 c 128,-1,65
 80 762 80 762 103 786 c 0,0,1
244 609 m 1,66,67
 233 603 233 603 222.5 598 c 128,-1,68
 212 593 212 593 201 588 c 1,69,70
 196 548 196 548 198 509 c 128,-1,71
 200 470 200 470 198 430 c 1,72,73
 235 432 235 432 272.5 432 c 128,-1,74
 310 432 310 432 348 433 c 1,75,76
 343 485 343 485 346.5 537 c 128,-1,77
 350 589 350 589 342 640 c 1,78,79
 315 642 315 642 291.5 630 c 128,-1,80
 268 618 268 618 244 609 c 1,66,67
EndSplineSet
EndChar

StartChar: B
Encoding: 66 66 1
Width: 539
Flags: W
LayerCount: 2
Fore
SplineSet
82 795 m 1,0,1
 117 782 117 782 147.5 761 c 128,-1,2
 178 740 178 740 211 726 c 1,3,4
 234 728 234 728 254 738.5 c 128,-1,5
 274 749 274 749 293.5 761 c 128,-1,6
 313 773 313 773 333 783 c 128,-1,7
 353 793 353 793 376 793 c 1,8,9
 411 750 411 750 439 702.5 c 128,-1,10
 467 655 467 655 499 610 c 1,11,12
 508 600 508 600 512 586 c 128,-1,13
 516 572 516 572 509 558 c 1,14,15
 495 545 495 545 477.5 536.5 c 128,-1,16
 460 528 460 528 443 517 c 0,17,18
 432 510 432 510 421 503.5 c 128,-1,19
 410 497 410 497 400 490 c 1,20,-1
 512 466 l 1,21,-1
 512 208 l 2,22,23
 512 178 512 178 513 148.5 c 128,-1,24
 514 119 514 119 511 88 c 1,25,26
 494 76 494 76 474.5 68.5 c 128,-1,27
 455 61 455 61 436 52 c 1,28,29
 401 38 401 38 366.5 21.5 c 128,-1,30
 332 5 332 5 296 -8 c 1,31,32
 286 -13 286 -13 276 -10 c 128,-1,33
 266 -7 266 -7 257 -5 c 1,34,35
 216 10 216 10 176 24.5 c 128,-1,36
 136 39 136 39 95 54 c 0,37,38
 85 57 85 57 75 63.5 c 128,-1,39
 65 70 65 70 67 82 c 1,40,41
 65 220 65 220 63.5 355.5 c 128,-1,42
 62 491 62 491 62 628 c 1,43,44
 55 635 55 635 43 641 c 128,-1,45
 31 647 31 647 21.5 654 c 128,-1,46
 12 661 12 661 7 670.5 c 128,-1,47
 2 680 2 680 10 693 c 0,48,49
 26 720 26 720 41 748.5 c 128,-1,50
 56 777 56 777 82 795 c 1,0,1
218 639 m 1,51,52
 216 596 216 596 216.5 554.5 c 128,-1,53
 217 513 217 513 217 471 c 1,54,55
 252 490 252 490 286.5 509.5 c 128,-1,56
 321 529 321 529 355 550 c 1,57,58
 333 579 333 579 315 611.5 c 128,-1,59
 297 644 297 644 271 670 c 1,60,61
 257 662 257 662 244 655 c 128,-1,62
 231 648 231 648 218 639 c 1,51,52
217 157 m 1,63,64
 252 143 252 143 288 131.5 c 128,-1,65
 324 120 324 120 359 106 c 1,66,67
 363 227 363 227 359 346 c 0,68,69
 358 350 358 350 355.5 354 c 128,-1,70
 353 358 353 358 352 361 c 1,71,72
 319 369 319 369 287 374.5 c 128,-1,73
 255 380 255 380 224 393 c 1,74,75
 213 334 213 334 216.5 275 c 128,-1,76
 220 216 220 216 217 157 c 1,63,64
EndSplineSet
EndChar

StartChar: C
Encoding: 67 67 2
Width: 381
Flags: W
LayerCount: 2
Fore
SplineSet
177 786 m 0,0,1
 188 794 188 794 200.5 796 c 128,-1,2
 213 798 213 798 225.5 796.5 c 128,-1,3
 238 795 238 795 250.5 791 c 128,-1,4
 263 787 263 787 275 784 c 0,5,6
 300 777 300 777 324.5 770.5 c 128,-1,7
 349 764 349 764 372 753 c 1,8,9
 363 680 363 680 320 622 c 1,10,11
 285 631 285 631 251.5 642.5 c 128,-1,12
 218 654 218 654 183 663 c 1,13,-1
 188 169 l 1,14,15
 206 171 206 171 229.5 161.5 c 128,-1,16
 253 152 253 152 278 144 c 1,17,18
 301 135 301 135 326 127 c 128,-1,19
 351 119 351 119 371 105 c 1,20,21
 355 79 355 79 339 53 c 128,-1,22
 323 27 323 27 306 1 c 1,23,24
 301 -11 301 -11 288.5 -9.5 c 128,-1,25
 276 -8 276 -8 267 -5 c 0,26,27
 208 15 208 15 151 36.5 c 128,-1,28
 94 58 94 58 35 78 c 1,29,30
 28 110 28 110 31.5 142.5 c 128,-1,31
 35 175 35 175 33 207 c 0,32,33
 28 315 28 315 30.5 422 c 128,-1,34
 33 529 33 529 26 636 c 1,35,36
 26 656 26 656 28 677 c 128,-1,37
 30 698 30 698 50 712 c 1,38,39
 82 728 82 728 115 745.5 c 128,-1,40
 148 763 148 763 177 786 c 0,0,1
EndSplineSet
EndChar

StartChar: D
Encoding: 68 68 3
Width: 516
Flags: W
LayerCount: 2
Fore
SplineSet
52 735 m 0,0,1
 63 749 63 749 74.5 763 c 128,-1,2
 86 777 86 777 102 786 c 1,3,4
 122 791 122 791 142.5 787 c 128,-1,5
 163 783 163 783 183 781 c 0,6,7
 258 770 258 770 330.5 754.5 c 128,-1,8
 403 739 403 739 478 724 c 1,9,10
 490 701 490 701 489 675 c 1,11,12
 489 531 489 531 490 389.5 c 128,-1,13
 491 248 491 248 489 105 c 1,14,15
 438 73 438 73 386.5 41.5 c 128,-1,16
 335 10 335 10 282 -18 c 1,17,18
 248 -10 248 -10 216 3.5 c 128,-1,19
 184 17 184 17 150 28 c 1,20,21
 125 39 125 39 99.5 46 c 128,-1,22
 74 53 74 53 51 67 c 1,23,24
 42 84 42 84 43.5 103.5 c 128,-1,25
 45 123 45 123 43 141 c 1,26,27
 43 244 43 244 43 345.5 c 128,-1,28
 43 447 43 447 42 550 c 0,29,30
 41 561 41 561 45.5 568 c 128,-1,31
 50 575 50 575 57 579.5 c 128,-1,32
 64 584 64 584 72.5 587.5 c 128,-1,33
 81 591 81 591 88 595 c 0,34,35
 108 608 108 608 131.5 617.5 c 128,-1,36
 155 627 155 627 169 646 c 1,37,38
 128 652 128 652 87.5 655.5 c 128,-1,39
 47 659 47 659 7 672 c 1,40,41
 14 691 14 691 27.5 705.5 c 128,-1,42
 41 720 41 720 52 735 c 0,0,1
195 583 m 1,43,44
 193 476 193 476 194 369.5 c 128,-1,45
 195 263 195 263 193 156 c 1,46,47
 228 140 228 140 265.5 129 c 128,-1,48
 303 118 303 118 339 102 c 1,49,50
 340 222 340 222 338.5 340.5 c 128,-1,51
 337 459 337 459 339 579 c 0,52,53
 339 585 339 585 339 592 c 128,-1,54
 339 599 339 599 337.5 605 c 128,-1,55
 336 611 336 611 332.5 615.5 c 128,-1,56
 329 620 329 620 321 621 c 1,57,58
 303 627 303 627 287 623.5 c 128,-1,59
 271 620 271 620 255.5 612.5 c 128,-1,60
 240 605 240 605 225 596 c 128,-1,61
 210 587 210 587 195 583 c 1,43,44
EndSplineSet
EndChar

StartChar: E
Encoding: 69 69 4
Width: 424
Flags: W
LayerCount: 2
Fore
SplineSet
63 688 m 0,0,1
 99 711 99 711 132 738.5 c 128,-1,2
 165 766 165 766 206 782 c 0,3,4
 206 783 206 783 210.5 785.5 c 128,-1,5
 215 788 215 788 221 789 c 128,-1,6
 227 790 227 790 235 788 c 128,-1,7
 243 786 243 786 251 778 c 1,8,9
 287 765 287 765 324.5 756 c 128,-1,10
 362 747 362 747 399 734 c 1,11,12
 394 702 394 702 383 672.5 c 128,-1,13
 372 643 372 643 365 611 c 1,14,15
 356 611 356 611 346 609.5 c 128,-1,16
 336 608 336 608 327 611 c 0,17,18
 290 624 290 624 253 636.5 c 128,-1,19
 216 649 216 649 179 658 c 1,20,21
 177 615 177 615 178 572.5 c 128,-1,22
 179 530 179 530 177 488 c 1,23,24
 228 487 228 487 279 488.5 c 128,-1,25
 330 490 330 490 381 488 c 1,26,27
 374 454 374 454 367 419.5 c 128,-1,28
 360 385 360 385 342 355 c 1,29,30
 301 353 301 353 260.5 354.5 c 128,-1,31
 220 356 220 356 179 355 c 1,32,33
 177 319 177 319 177 268 c 128,-1,34
 177 217 177 217 179 172 c 1,35,36
 205 164 205 164 231.5 153 c 128,-1,37
 258 142 258 142 285.5 132 c 128,-1,38
 313 122 313 122 341 114 c 128,-1,39
 369 106 369 106 399 103 c 1,40,41
 399 83 399 83 389.5 67 c 128,-1,42
 380 51 380 51 372 35 c 1,43,44
 362 18 362 18 353.5 0.5 c 128,-1,45
 345 -17 345 -17 330 -28 c 1,46,47
 253 -3 253 -3 177 21.5 c 128,-1,48
 101 46 101 46 26 77 c 1,49,50
 27 220 27 220 26.5 360.5 c 128,-1,51
 26 501 26 501 26 644 c 1,52,53
 25 653 25 653 28.5 659.5 c 128,-1,54
 32 666 32 666 38 670.5 c 128,-1,55
 44 675 44 675 50.5 679 c 128,-1,56
 57 683 57 683 63 688 c 0,0,1
EndSplineSet
EndChar

StartChar: F
Encoding: 70 70 5
Width: 481
Flags: W
LayerCount: 2
Fore
SplineSet
97 826 m 1,0,1
 188 828 188 828 277 818 c 128,-1,2
 366 808 366 808 457 799 c 0,3,4
 467 799 467 799 474 792 c 128,-1,5
 481 785 481 785 488 779 c 1,6,7
 491 768 491 768 487 754 c 128,-1,8
 483 740 483 740 476 724 c 128,-1,9
 469 708 469 708 461 692 c 128,-1,10
 453 676 453 676 448 662 c 1,11,12
 428 664 428 664 407.5 667.5 c 128,-1,13
 387 671 387 671 367 672.5 c 128,-1,14
 347 674 347 674 327 671.5 c 128,-1,15
 307 669 307 669 289 659 c 1,16,17
 296 607 296 607 305 556 c 128,-1,18
 314 505 314 505 325 454 c 1,19,20
 362 454 362 454 399 454 c 128,-1,21
 436 454 436 454 473 455 c 1,22,23
 472 423 472 423 460 393 c 128,-1,24
 448 363 448 363 437 332 c 1,25,26
 417 325 417 325 394.5 327.5 c 128,-1,27
 372 330 372 330 350 326 c 1,28,29
 359 251 359 251 374.5 176.5 c 128,-1,30
 390 102 390 102 401 26 c 1,31,32
 362 -20 362 -20 318.5 -63.5 c 128,-1,33
 275 -107 275 -107 230 -148 c 1,34,35
 175 -113 175 -113 118.5 -79.5 c 128,-1,36
 62 -46 62 -46 8 -8 c 1,37,38
 23 24 23 24 46 50.5 c 128,-1,39
 69 77 69 77 86 109 c 1,40,41
 131 84 131 84 171.5 55 c 128,-1,42
 212 26 212 26 254 -1 c 1,43,44
 253 33 253 33 245.5 66 c 128,-1,45
 238 99 238 99 233 133 c 0,46,47
 226 181 226 181 217.5 228 c 128,-1,48
 209 275 209 275 199 323 c 1,49,50
 163 329 163 329 128 326.5 c 128,-1,51
 93 324 93 324 58 329 c 1,52,53
 68 361 68 361 81 392 c 128,-1,54
 94 423 94 423 109 454 c 1,55,56
 125 457 125 457 141 456 c 128,-1,57
 157 455 157 455 173 457 c 1,58,59
 168 495 168 495 160.5 533.5 c 128,-1,60
 153 572 153 572 146 610 c 0,61,62
 145 620 145 620 143 630.5 c 128,-1,63
 141 641 141 641 146 650 c 1,64,65
 161 661 161 661 177 668.5 c 128,-1,66
 193 676 193 676 208 686 c 1,67,68
 183 690 183 690 158 690 c 128,-1,69
 133 690 133 690 107.5 690 c 128,-1,70
 82 690 82 690 57 691.5 c 128,-1,71
 32 693 32 693 8 701 c 1,72,73
 18 717 18 717 26.5 734.5 c 128,-1,74
 35 752 35 752 45 769.5 c 128,-1,75
 55 787 55 787 67 801.5 c 128,-1,76
 79 816 79 816 97 826 c 1,0,1
EndSplineSet
EndChar

StartChar: G
Encoding: 71 71 6
Width: 499
Flags: W
LayerCount: 2
Fore
SplineSet
217 805 m 0,0,1
 228 812 228 812 241.5 809 c 128,-1,2
 255 806 255 806 268 801 c 0,3,4
 305 788 305 788 342.5 776.5 c 128,-1,5
 380 765 380 765 418 754 c 0,6,7
 428 751 428 751 439 749 c 128,-1,8
 450 747 450 747 457 736 c 1,9,10
 449 704 449 704 434.5 674.5 c 128,-1,11
 420 645 420 645 404 616 c 1,12,13
 347 630 347 630 292 649 c 128,-1,14
 237 668 237 668 178 681 c 1,15,16
 176 553 176 553 177 427 c 128,-1,17
 178 301 178 301 176 174 c 1,18,19
 211 161 211 161 246.5 148 c 128,-1,20
 282 135 282 135 317 123 c 1,21,22
 321 244 321 244 317 367 c 1,23,24
 292 366 292 366 267.5 366.5 c 128,-1,25
 243 367 243 367 218 369 c 1,26,27
 220 401 220 401 227 431 c 128,-1,28
 234 461 234 461 236 493 c 1,29,30
 244 495 244 495 251 498 c 128,-1,31
 258 501 258 501 266 501 c 0,32,33
 317 499 317 499 367.5 498.5 c 128,-1,34
 418 498 418 498 469 498 c 1,35,36
 474 465 474 465 472 431.5 c 128,-1,37
 470 398 470 398 470 364 c 0,38,39
 469 300 469 300 470.5 235.5 c 128,-1,40
 472 171 472 171 470 106 c 1,41,42
 434 83 434 83 396.5 63.5 c 128,-1,43
 359 44 359 44 323 22 c 0,44,45
 315 17 315 17 306.5 11.5 c 128,-1,46
 298 6 298 6 289 2 c 128,-1,47
 280 -2 280 -2 270.5 -3 c 128,-1,48
 261 -4 261 -4 251 0 c 0,49,50
 194 21 194 21 138 43 c 128,-1,51
 82 65 82 65 25 87 c 1,52,53
 23 236 23 236 23.5 383.5 c 128,-1,54
 24 531 24 531 26 679 c 1,55,56
 35 687 35 687 44 695 c 128,-1,57
 53 703 53 703 62 711 c 1,58,59
 104 730 104 730 140.5 756 c 128,-1,60
 177 782 177 782 217 805 c 0,0,1
EndSplineSet
EndChar

StartChar: H
Encoding: 72 72 7
Width: 493
Flags: W
LayerCount: 2
Fore
SplineSet
193 788 m 0,0,1
 208 798 208 798 226 803 c 128,-1,2
 244 808 244 808 262 803 c 0,3,4
 362 774 362 774 468 749 c 1,5,6
 455 717 455 717 434 690 c 128,-1,7
 413 663 413 663 391 636 c 1,8,9
 341 652 341 652 305.5 659.5 c 128,-1,10
 270 667 270 667 246 670.5 c 128,-1,11
 222 674 222 674 207.5 676 c 128,-1,12
 193 678 193 678 186 683 c 1,13,14
 184 677 184 677 182.5 669 c 128,-1,15
 181 661 181 661 180 656 c 1,16,17
 180 605 180 605 179 554.5 c 128,-1,18
 178 504 178 504 180 453 c 1,19,20
 212 476 212 476 238.5 505.5 c 128,-1,21
 265 535 265 535 295 558 c 1,22,23
 340 542 340 542 380 520 c 128,-1,24
 420 498 420 498 462 479 c 1,25,26
 467 344 467 344 463.5 211 c 128,-1,27
 460 78 460 78 462 -57 c 1,28,29
 422 -84 422 -84 384.5 -113.5 c 128,-1,30
 347 -143 347 -143 304 -163 c 1,31,32
 296 -152 296 -152 286.5 -141 c 128,-1,33
 277 -130 277 -130 279 -115 c 1,34,35
 286 -96 286 -96 296.5 -78 c 128,-1,36
 307 -60 307 -60 309 -39 c 0,37,38
 314 2 314 2 312 42 c 128,-1,39
 310 82 310 82 312 123 c 1,40,41
 310 190 310 190 312 257 c 128,-1,42
 314 324 314 324 310 390 c 1,43,44
 296 398 296 398 283 405 c 128,-1,45
 270 412 270 412 256 419 c 1,46,47
 251 417 251 417 245 415.5 c 128,-1,48
 239 414 239 414 235 413 c 1,49,50
 221 397 221 397 206 383.5 c 128,-1,51
 191 370 191 370 178 353 c 1,52,53
 176 299 176 299 177 245 c 128,-1,54
 178 191 178 191 177 137 c 1,55,56
 189 132 189 132 202 127.5 c 128,-1,57
 215 123 215 123 228 117 c 1,58,59
 217 85 217 85 197 57 c 128,-1,60
 177 29 177 29 160 0 c 1,61,62
 125 5 125 5 91 17 c 128,-1,63
 57 29 57 29 25 44 c 1,64,65
 25 198 25 198 26 350.5 c 128,-1,66
 27 503 27 503 27 657 c 1,67,68
 25 668 25 668 33 674 c 128,-1,69
 41 680 41 680 48 686 c 0,70,71
 84 712 84 712 120 737.5 c 128,-1,72
 156 763 156 763 193 788 c 0,0,1
EndSplineSet
EndChar

StartChar: I
Encoding: 73 73 8
Width: 442
Flags: W
LayerCount: 2
Fore
SplineSet
108 774 m 1,0,1
 115 786 115 786 127.5 787.5 c 128,-1,2
 140 789 140 789 151 787 c 0,3,4
 205 782 205 782 256.5 774.5 c 128,-1,5
 308 767 308 767 360 759 c 0,6,7
 372 757 372 757 384 755.5 c 128,-1,8
 396 754 396 754 406 747 c 1,9,10
 399 727 399 727 387 710.5 c 128,-1,11
 375 694 375 694 362.5 678 c 128,-1,12
 350 662 350 662 338.5 645 c 128,-1,13
 327 628 327 628 321 609 c 1,14,15
 344 487 344 487 369.5 366.5 c 128,-1,16
 395 246 395 246 417 124 c 1,17,18
 382 95 382 95 344.5 67 c 128,-1,19
 307 39 307 39 271 10 c 0,20,21
 261 2 261 2 250.5 -6.5 c 128,-1,22
 240 -15 240 -15 226 -20 c 1,23,24
 174 -9 174 -9 125 10 c 128,-1,25
 76 29 76 29 25 45 c 1,26,27
 36 79 36 79 55.5 109 c 128,-1,28
 75 139 75 139 94 168 c 1,29,30
 137 153 137 153 178 136 c 128,-1,31
 219 119 219 119 264 108 c 1,32,33
 244 230 244 230 215.5 350 c 128,-1,34
 187 470 187 470 168 594 c 1,35,36
 178 610 178 610 196.5 616.5 c 128,-1,37
 215 623 215 623 231 631 c 1,38,39
 231 636 231 636 230 641.5 c 128,-1,40
 229 647 229 647 229 651 c 1,41,-1
 225 651 l 1,42,-1
 226 637 l 1,43,44
 206 644 206 644 184.5 647 c 128,-1,45
 163 650 163 650 141.5 650.5 c 128,-1,46
 120 651 120 651 99 652 c 128,-1,47
 78 653 78 653 57 657 c 1,48,49
 53 659 53 659 48.5 663 c 128,-1,50
 44 667 44 667 40 669 c 1,51,52
 55 697 55 697 72.5 723 c 128,-1,53
 90 749 90 749 108 774 c 1,0,1
EndSplineSet
EndChar

StartChar: J
Encoding: 74 74 9
Width: 470
Flags: W
LayerCount: 2
Fore
SplineSet
131 784 m 1,0,1
 154 791 154 791 180 787.5 c 128,-1,2
 206 784 206 784 231 783 c 1,3,4
 280 776 280 776 329.5 770.5 c 128,-1,5
 379 765 379 765 428 754 c 1,6,7
 425 734 425 734 414.5 717 c 128,-1,8
 404 700 404 700 391.5 683.5 c 128,-1,9
 379 667 379 667 366.5 651 c 128,-1,10
 354 635 354 635 347 616 c 1,11,12
 347 588 347 588 352 560 c 128,-1,13
 357 532 357 532 362 504 c 1,14,15
 379 384 379 384 399 265.5 c 128,-1,16
 419 147 419 147 437 27 c 0,17,18
 439 12 439 12 442.5 -2.5 c 128,-1,19
 446 -17 446 -17 443 -32 c 1,20,21
 434 -44 434 -44 420.5 -53 c 128,-1,22
 407 -62 407 -62 395 -72 c 0,23,24
 364 -96 364 -96 334.5 -121 c 128,-1,25
 305 -146 305 -146 276 -170 c 1,26,27
 268 -175 268 -175 260 -181.5 c 128,-1,28
 252 -188 252 -188 242 -186 c 0,29,30
 195 -172 195 -172 151 -154 c 128,-1,31
 107 -136 107 -136 60 -122 c 1,32,33
 51 -118 51 -118 41 -115 c 128,-1,34
 31 -112 31 -112 26 -104 c 1,35,36
 24 -95 24 -95 29 -87.5 c 128,-1,37
 34 -80 34 -80 36 -72 c 1,38,39
 50 -52 50 -52 61.5 -31 c 128,-1,40
 73 -10 73 -10 87 10 c 1,41,42
 97 12 97 12 106.5 9.5 c 128,-1,43
 116 7 116 7 125.5 3 c 128,-1,44
 135 -1 135 -1 144.5 -5 c 128,-1,45
 154 -9 154 -9 164 -11 c 0,46,47
 198 -20 198 -20 229.5 -34 c 128,-1,48
 261 -48 261 -48 296 -48 c 1,49,50
 267 107 267 107 243 260.5 c 128,-1,51
 219 414 219 414 194 570 c 1,52,53
 188 585 188 585 194 594.5 c 128,-1,54
 200 604 200 604 210.5 610.5 c 128,-1,55
 221 617 221 617 234 622.5 c 128,-1,56
 247 628 247 628 255 636 c 1,57,58
 209 641 209 641 163 646 c 128,-1,59
 117 651 117 651 69 652 c 1,60,61
 57 650 57 650 53.5 663.5 c 128,-1,62
 50 677 50 677 59 685 c 1,63,64
 76 710 76 710 91 737 c 128,-1,65
 106 764 106 764 131 784 c 1,0,1
EndSplineSet
EndChar

StartChar: K
Encoding: 75 75 10
Width: 523
Flags: W
LayerCount: 2
Fore
SplineSet
451 -9 m 1,0,1
 419 -11 419 -11 389.5 1 c 128,-1,2
 360 13 360 13 331 22 c 1,3,4
 310 79 310 79 290.5 136 c 128,-1,5
 271 193 271 193 252 250 c 1,6,7
 235 241 235 241 217.5 232 c 128,-1,8
 200 223 200 223 187 207 c 1,9,10
 185 184 185 184 185.5 162 c 128,-1,11
 186 140 186 140 186 117 c 1,12,13
 200 112 200 112 213 109.5 c 128,-1,14
 226 107 226 107 238 100 c 1,15,16
 240 89 240 89 234.5 80.5 c 128,-1,17
 229 72 229 72 223 64 c 0,18,19
 209 44 209 44 195.5 23.5 c 128,-1,20
 182 3 182 3 168 -17 c 1,21,22
 134 -6 134 -6 101 2.5 c 128,-1,23
 68 11 68 11 34 22 c 1,24,25
 32 155 32 155 33.5 285.5 c 128,-1,26
 35 416 35 416 33 550 c 1,27,28
 31 579 31 579 33 609.5 c 128,-1,29
 35 640 35 640 25 669 c 1,30,31
 81 696 81 696 132 729 c 128,-1,32
 183 762 183 762 240 787 c 1,33,34
 266 789 266 789 291 781 c 128,-1,35
 316 773 316 773 342 766 c 0,36,37
 378 755 378 755 414.5 746.5 c 128,-1,38
 451 738 451 738 489 727 c 1,39,40
 478 697 478 697 459 671 c 128,-1,41
 440 645 440 645 423 618 c 1,42,43
 414 609 414 609 402.5 611 c 128,-1,44
 391 613 391 613 381 615 c 1,45,46
 356 623 356 623 331 630 c 128,-1,47
 306 637 306 637 280 642 c 0,48,49
 257 647 257 647 234 655 c 128,-1,50
 211 663 211 663 186 660 c 1,51,52
 187 615 187 615 186.5 572 c 128,-1,53
 186 529 186 529 187 484 c 1,54,55
 228 508 228 508 268 533 c 128,-1,56
 308 558 308 558 348 583 c 1,57,58
 383 544 383 544 412 499.5 c 128,-1,59
 441 455 441 455 475 414 c 1,60,61
 475 409 475 409 474.5 401 c 128,-1,62
 474 393 474 393 474 388 c 1,63,64
 454 378 454 378 435 367.5 c 128,-1,65
 416 357 416 357 399 343 c 1,66,67
 388 336 388 336 391 325.5 c 128,-1,68
 394 315 394 315 396 304 c 1,69,70
 412 260 412 260 427 215.5 c 128,-1,71
 442 171 442 171 456 126 c 1,72,73
 472 120 472 120 488 114.5 c 128,-1,74
 504 109 504 109 519 102 c 1,75,-1
 451 -9 l 1,0,1
190 406 m 1,76,77
 181 379 181 379 182.5 350.5 c 128,-1,78
 184 322 184 322 187 294 c 1,79,80
 221 314 221 314 255.5 333 c 128,-1,81
 290 352 290 352 322 375 c 1,82,83
 314 381 314 381 308.5 388.5 c 128,-1,84
 303 396 303 396 297 405 c 128,-1,85
 291 414 291 414 283 424 c 128,-1,86
 275 434 275 434 262 444 c 1,87,88
 244 436 244 436 226 425.5 c 128,-1,89
 208 415 208 415 190 406 c 1,76,77
EndSplineSet
EndChar

StartChar: L
Encoding: 76 76 11
Width: 435
Flags: W
LayerCount: 2
Fore
SplineSet
56 143 m 1,0,1
 64 159 64 159 71.5 170.5 c 128,-1,2
 79 182 79 182 83.5 193 c 128,-1,3
 88 204 88 204 89 217 c 128,-1,4
 90 230 90 230 87 249 c 1,5,6
 89 352 89 352 87 454.5 c 128,-1,7
 85 557 85 557 87 660 c 0,8,9
 87 680 87 680 92 705 c 1,10,11
 165 750 165 750 242 792 c 0,12,13
 255 799 255 799 268.5 799.5 c 128,-1,14
 282 800 282 800 295.5 797.5 c 128,-1,15
 309 795 309 795 322.5 791.5 c 128,-1,16
 336 788 336 788 350 786 c 1,17,18
 370 779 370 779 393 777.5 c 128,-1,19
 416 776 416 776 435 765 c 1,20,21
 433 749 433 749 424.5 736.5 c 128,-1,22
 416 724 416 724 408 710 c 0,23,24
 398 694 398 694 390 677.5 c 128,-1,25
 382 661 382 661 368 647 c 1,26,27
 351 645 351 645 335 648 c 128,-1,28
 319 651 319 651 303 655.5 c 128,-1,29
 287 660 287 660 271 664.5 c 128,-1,30
 255 669 255 669 239 671 c 1,31,32
 234 562 234 562 236 455.5 c 128,-1,33
 238 349 238 349 234 240 c 1,34,35
 228 231 228 231 219 225.5 c 128,-1,36
 210 220 210 220 199.5 215.5 c 128,-1,37
 189 211 189 211 178 207 c 128,-1,38
 167 203 167 203 158 197 c 1,39,40
 226 179 226 179 292 161.5 c 128,-1,41
 358 144 358 144 426 128 c 1,42,43
 426 95 426 95 411 66 c 128,-1,44
 396 37 396 37 386 6 c 0,45,46
 384 -1 384 -1 379.5 -3 c 128,-1,47
 375 -5 375 -5 369 -5 c 128,-1,48
 363 -5 363 -5 356.5 -3.5 c 128,-1,49
 350 -2 350 -2 345 -1 c 0,50,51
 275 16 275 16 206.5 35 c 128,-1,52
 138 54 138 54 69 74 c 0,53,54
 57 77 57 77 46 82 c 128,-1,55
 35 87 35 87 24 95 c 1,56,-1
 56 143 l 1,0,1
EndSplineSet
EndChar

StartChar: M
Encoding: 77 77 12
Width: 860
Flags: W
LayerCount: 2
Fore
SplineSet
99 783 m 1,0,1
 137 764 137 764 173 741.5 c 128,-1,2
 209 719 209 719 249 701 c 1,3,4
 281 720 281 720 309 744 c 128,-1,5
 337 768 337 768 373 780 c 1,6,7
 414 766 414 766 449.5 742.5 c 128,-1,8
 485 719 485 719 525 705 c 1,9,10
 557 722 557 722 584.5 745 c 128,-1,11
 612 768 612 768 646 782 c 1,12,13
 680 760 680 760 717 743.5 c 128,-1,14
 754 727 754 727 789 707 c 1,15,16
 785 683 785 683 783.5 639 c 128,-1,17
 782 595 782 595 782.5 540.5 c 128,-1,18
 783 486 783 486 784 426 c 128,-1,19
 785 366 785 366 786.5 308.5 c 128,-1,20
 788 251 788 251 789 201.5 c 128,-1,21
 790 152 790 152 789 120 c 1,22,23
 801 117 801 117 812.5 113 c 128,-1,24
 824 109 824 109 835 104 c 1,25,26
 833 86 833 86 825.5 70 c 128,-1,27
 818 54 818 54 807.5 39 c 128,-1,28
 797 24 797 24 785.5 10 c 128,-1,29
 774 -4 774 -4 765 -18 c 1,30,31
 733 -5 733 -5 699.5 4 c 128,-1,32
 666 13 666 13 639 33 c 1,33,34
 644 151 644 151 640.5 267 c 128,-1,35
 637 383 637 383 639 501 c 1,36,37
 637 533 637 533 640.5 563.5 c 128,-1,38
 644 594 644 594 639 626 c 1,39,40
 629 629 629 629 619 634 c 128,-1,41
 609 639 609 639 598.5 643 c 128,-1,42
 588 647 588 647 577.5 648 c 128,-1,43
 567 649 567 649 556 642 c 0,44,45
 550 638 550 638 542.5 634 c 128,-1,46
 535 630 535 630 529 624.5 c 128,-1,47
 523 619 523 619 519.5 612.5 c 128,-1,48
 516 606 516 606 517 597 c 0,49,50
 521 470 521 470 520 344.5 c 128,-1,51
 519 219 519 219 517 92 c 0,52,53
 517 68 517 68 517.5 44.5 c 128,-1,54
 518 21 518 21 514 -3 c 1,55,56
 477 -4 477 -4 440 -3.5 c 128,-1,57
 403 -3 403 -3 366 -3 c 1,58,59
 360 21 360 21 361.5 44.5 c 128,-1,60
 363 68 363 68 363 92 c 0,61,62
 363 226 363 226 362 359.5 c 128,-1,63
 361 493 361 493 361 627 c 1,64,65
 347 634 347 634 333 640 c 128,-1,66
 319 646 319 646 304 653 c 1,67,68
 288 645 288 645 273.5 636 c 128,-1,69
 259 627 259 627 243 617 c 1,70,71
 238 584 238 584 238.5 550.5 c 128,-1,72
 239 517 239 517 240 483 c 128,-1,73
 241 449 241 449 241.5 415.5 c 128,-1,74
 242 382 242 382 238 348 c 1,75,76
 239 307 239 307 238.5 257.5 c 128,-1,77
 238 208 238 208 237.5 160 c 128,-1,78
 237 112 237 112 237.5 70 c 128,-1,79
 238 28 238 28 241 3 c 1,80,81
 229 1 229 1 207 -0.5 c 128,-1,82
 185 -2 185 -2 161.5 -2.5 c 128,-1,83
 138 -3 138 -3 116.5 -2.5 c 128,-1,84
 95 -2 95 -2 85 -1 c 1,85,86
 85 149 85 149 83.5 298 c 128,-1,87
 82 447 82 447 84 597 c 0,88,89
 85 610 85 610 78 618.5 c 128,-1,90
 71 627 71 627 61 633 c 128,-1,91
 51 639 51 639 40.5 645.5 c 128,-1,92
 30 652 30 652 25 662 c 1,93,94
 43 692 43 692 58 724.5 c 128,-1,95
 73 757 73 757 99 783 c 1,0,1
EndSplineSet
EndChar

StartChar: N
Encoding: 78 78 13
Width: 604
Flags: W
LayerCount: 2
Fore
SplineSet
25 676 m 1,0,1
 36 689 36 689 43.5 704.5 c 128,-1,2
 51 720 51 720 59 735.5 c 128,-1,3
 67 751 67 751 77 765 c 128,-1,4
 87 779 87 779 103 789 c 1,5,6
 141 772 141 772 177.5 749 c 128,-1,7
 214 726 214 726 253 709 c 1,8,9
 268 718 268 718 281 730.5 c 128,-1,10
 294 743 294 743 307.5 755 c 128,-1,11
 321 767 321 767 335.5 776.5 c 128,-1,12
 350 786 350 786 367 790 c 1,13,14
 408 772 408 772 447.5 752.5 c 128,-1,15
 487 733 487 733 528 714 c 1,16,17
 533 641 533 641 533 568.5 c 128,-1,18
 533 496 533 496 532 423.5 c 128,-1,19
 531 351 531 351 530 278.5 c 128,-1,20
 529 206 529 206 532 133 c 1,21,22
 543 128 543 128 555.5 122.5 c 128,-1,23
 568 117 568 117 579 112 c 1,24,25
 572 78 572 78 551.5 49.5 c 128,-1,26
 531 21 531 21 511 -8 c 1,27,28
 477 -3 477 -3 445.5 11 c 128,-1,29
 414 25 414 25 382 36 c 1,30,31
 377 181 377 181 379 324 c 128,-1,32
 381 467 381 467 379 610 c 1,33,34
 383 621 383 621 375.5 627.5 c 128,-1,35
 368 634 368 634 360 639 c 1,36,37
 345 644 345 644 330.5 649 c 128,-1,38
 316 654 316 654 301 660 c 1,39,40
 285 647 285 647 268.5 636.5 c 128,-1,41
 252 626 252 626 241 609 c 1,42,43
 240 457 240 457 241 307.5 c 128,-1,44
 242 158 242 158 240 6 c 1,45,46
 202 4 202 4 162.5 3.5 c 128,-1,47
 123 3 123 3 85 4 c 1,48,49
 81 26 81 26 80.5 73.5 c 128,-1,50
 80 121 80 121 80.5 181 c 128,-1,51
 81 241 81 241 82 308 c 128,-1,52
 83 375 83 375 84 437.5 c 128,-1,53
 85 500 85 500 85.5 551 c 128,-1,54
 86 602 86 602 84 630 c 1,55,56
 71 637 71 637 58 643.5 c 128,-1,57
 45 650 45 650 33 657 c 1,58,59
 31 660 31 660 29 665.5 c 128,-1,60
 27 671 27 671 25 676 c 1,0,1
EndSplineSet
EndChar

StartChar: O
Encoding: 79 79 14
Width: 516
Flags: W
LayerCount: 2
Fore
SplineSet
82 710 m 0,0,1
 118 729 118 729 155 745.5 c 128,-1,2
 192 762 192 762 228 780 c 0,3,4
 240 786 240 786 251.5 785 c 128,-1,5
 263 784 263 784 275 780.5 c 128,-1,6
 287 777 287 777 298.5 771.5 c 128,-1,7
 310 766 310 766 321 762 c 0,8,9
 362 743 362 743 406.5 729 c 128,-1,10
 451 715 451 715 489 692 c 1,11,12
 491 539 491 539 490.5 388 c 128,-1,13
 490 237 490 237 489 83 c 1,14,15
 461 68 461 68 426.5 50.5 c 128,-1,16
 392 33 392 33 358 17 c 128,-1,17
 324 1 324 1 295 -12 c 128,-1,18
 266 -25 266 -25 250 -31 c 1,19,20
 205 -21 205 -21 166 -4.5 c 128,-1,21
 127 12 127 12 97 27 c 128,-1,22
 67 42 67 42 49.5 51.5 c 128,-1,23
 32 61 32 61 31 59 c 1,24,25
 26 77 26 77 28 95.5 c 128,-1,26
 30 114 30 114 28 134 c 1,27,28
 30 262 30 262 30.5 349.5 c 128,-1,29
 31 437 31 437 30.5 493.5 c 128,-1,30
 30 550 30 550 29.5 581.5 c 128,-1,31
 29 613 29 613 28 629.5 c 128,-1,32
 27 646 27 646 26 652.5 c 128,-1,33
 25 659 25 659 25 665 c 1,34,35
 31 685 31 685 48.5 693 c 128,-1,36
 66 701 66 701 82 710 c 0,0,1
186 662 m 1,37,38
 183 616 183 616 181.5 565 c 128,-1,39
 180 514 180 514 179.5 464.5 c 128,-1,40
 179 415 179 415 179.5 370.5 c 128,-1,41
 180 326 180 326 181 294 c 1,42,43
 180 257 180 257 177.5 220 c 128,-1,44
 175 183 175 183 183 147 c 1,45,46
 221 133 221 133 259.5 118.5 c 128,-1,47
 298 104 298 104 337 93 c 1,48,49
 335 224 335 224 337.5 353.5 c 128,-1,50
 340 483 340 483 334 614 c 1,51,52
 302 624 302 624 282.5 630 c 128,-1,53
 263 636 263 636 252 639.5 c 128,-1,54
 241 643 241 643 235.5 644.5 c 128,-1,55
 230 646 230 646 226 647 c 0,56,57
 218 650 218 650 206 655 c 128,-1,58
 194 660 194 660 186 662 c 1,37,38
EndSplineSet
EndChar

StartChar: P
Encoding: 80 80 15
Width: 559
Flags: W
LayerCount: 2
Fore
SplineSet
94 775 m 0,0,1
 99 786 99 786 109.5 786 c 128,-1,2
 120 786 120 786 129 781 c 0,3,4
 161 767 161 767 190.5 750 c 128,-1,5
 220 733 220 733 252 718 c 1,6,7
 279 735 279 735 303.5 754 c 128,-1,8
 328 773 328 773 355 789 c 1,9,10
 402 778 402 778 444.5 754.5 c 128,-1,11
 487 731 487 731 531 712 c 1,12,13
 530 680 530 680 530.5 633 c 128,-1,14
 531 586 531 586 531.5 531 c 128,-1,15
 532 476 532 476 533 417 c 128,-1,16
 534 358 534 358 534 302 c 128,-1,17
 534 246 534 246 533.5 196.5 c 128,-1,18
 533 147 533 147 531 112 c 1,19,20
 483 85 483 85 439 53 c 128,-1,21
 395 21 395 21 345 -2 c 1,22,23
 318 9 318 9 294 24.5 c 128,-1,24
 270 40 270 40 244 51 c 1,25,26
 239 0 239 0 242 -50 c 128,-1,27
 245 -100 245 -100 237 -150 c 1,28,29
 202 -159 202 -159 166 -166 c 128,-1,30
 130 -173 130 -173 94 -170 c 1,31,32
 94 -96 94 -96 94.5 -23.5 c 128,-1,33
 95 49 95 49 90 123 c 1,34,35
 74 131 74 131 57.5 138 c 128,-1,36
 41 145 41 145 25 154 c 1,37,38
 36 178 36 178 56 196.5 c 128,-1,39
 76 215 76 215 93 235 c 1,40,41
 93 335 93 335 92 433 c 128,-1,42
 91 531 91 531 93 631 c 1,43,44
 79 645 79 645 61 652 c 128,-1,45
 43 659 43 659 33 675 c 1,46,47
 42 703 42 703 61 726 c 128,-1,48
 80 749 80 749 94 775 c 0,0,1
241 598 m 0,49,50
 241 507 241 507 242 417.5 c 128,-1,51
 243 328 243 328 241 237 c 1,52,53
 243 228 243 228 242 216 c 128,-1,54
 241 204 241 204 252 201 c 1,55,56
 287 184 287 184 319.5 164.5 c 128,-1,57
 352 145 352 145 388 130 c 1,58,59
 384 137 384 137 383 176 c 128,-1,60
 382 215 382 215 382.5 269 c 128,-1,61
 383 323 383 323 384 384.5 c 128,-1,62
 385 446 385 446 386 499 c 128,-1,63
 387 552 387 552 386.5 588.5 c 128,-1,64
 386 625 386 625 384 630 c 1,65,66
 364 638 364 638 345.5 647 c 128,-1,67
 327 656 327 656 307 663 c 1,68,69
 296 660 296 660 284 654.5 c 128,-1,70
 272 649 272 649 262.5 641 c 128,-1,71
 253 633 253 633 247 622 c 128,-1,72
 241 611 241 611 241 598 c 0,49,50
EndSplineSet
EndChar

StartChar: Q
Encoding: 81 81 17
Width: 520
Flags: W
LayerCount: 2
Fore
SplineSet
234 804 m 1,0,1
 245 811 245 811 256.5 807 c 128,-1,2
 268 803 268 803 279 799 c 0,3,4
 327 782 327 782 373.5 763 c 128,-1,5
 420 744 420 744 468 727 c 0,6,7
 476 725 476 725 483.5 720 c 128,-1,8
 491 715 491 715 489 705 c 1,9,10
 491 594 491 594 490 485 c 128,-1,11
 489 376 489 376 489 265 c 1,12,13
 488 226 488 226 489.5 186 c 128,-1,14
 491 146 491 146 486 106 c 1,15,16
 472 99 472 99 458 92.5 c 128,-1,17
 444 86 444 86 429 79 c 1,18,19
 440 50 440 50 456 23 c 128,-1,20
 472 -4 472 -4 488 -30 c 0,21,22
 493 -39 493 -39 493.5 -49.5 c 128,-1,23
 494 -60 494 -60 494 -71 c 1,24,25
 468 -81 468 -81 442.5 -95 c 128,-1,26
 417 -109 417 -109 389 -116 c 1,27,28
 369 -81 369 -81 351.5 -46.5 c 128,-1,29
 334 -12 334 -12 318 24 c 1,30,31
 309 20 309 20 300 14.5 c 128,-1,32
 291 9 291 9 281 5.5 c 128,-1,33
 271 2 271 2 261 1.5 c 128,-1,34
 251 1 251 1 240 6 c 0,35,36
 189 25 189 25 138.5 43.5 c 128,-1,37
 88 62 88 62 38 84 c 0,38,39
 25 89 25 89 26 100.5 c 128,-1,40
 27 112 27 112 26 123 c 1,41,42
 27 266 27 266 25.5 408.5 c 128,-1,43
 24 551 24 551 26 694 c 0,44,45
 26 705 26 705 35.5 710 c 128,-1,46
 45 715 45 715 53 720 c 1,47,48
 98 740 98 740 143 761 c 128,-1,49
 188 782 188 782 234 804 c 1,0,1
180 684 m 1,50,51
 177 556 177 556 178 430.5 c 128,-1,52
 179 305 179 305 177 177 c 1,53,54
 215 159 215 159 255 145.5 c 128,-1,55
 295 132 295 132 336 120 c 1,56,57
 338 240 338 240 337 359 c 128,-1,58
 336 478 336 478 336 598 c 0,59,60
 336 607 336 607 335 618 c 128,-1,61
 334 629 334 629 323 634 c 0,62,63
 289 650 289 650 253.5 661.5 c 128,-1,64
 218 673 218 673 180 684 c 1,50,51
EndSplineSet
EndChar

StartChar: R
Encoding: 82 82 18
Width: 622
Flags: W
LayerCount: 2
Fore
SplineSet
526 -2 m 1,0,1
 496 6 496 6 467 16 c 128,-1,2
 438 26 438 26 408 34 c 1,3,4
 384 115 384 115 366 195.5 c 128,-1,5
 348 276 348 276 327 357 c 1,6,7
 317 352 317 352 305.5 348 c 128,-1,8
 294 344 294 344 283 339.5 c 128,-1,9
 272 335 272 335 261.5 329 c 128,-1,10
 251 323 251 323 244 313 c 1,11,12
 242 267 242 267 242.5 221 c 128,-1,13
 243 175 243 175 244 130 c 1,14,15
 257 125 257 125 271 121.5 c 128,-1,16
 285 118 285 118 295 109 c 1,17,18
 281 77 281 77 260.5 49 c 128,-1,19
 240 21 240 21 219 -6 c 1,20,21
 187 5 187 5 156 15 c 128,-1,22
 125 25 125 25 93 34 c 1,23,24
 91 181 91 181 91.5 326.5 c 128,-1,25
 92 472 92 472 90 619 c 1,26,27
 79 639 79 639 60 648.5 c 128,-1,28
 41 658 41 658 25 672 c 1,29,30
 45 701 45 701 63.5 731.5 c 128,-1,31
 82 762 82 762 105 789 c 1,32,33
 142 772 142 772 177 749 c 128,-1,34
 212 726 212 726 250 714 c 1,35,36
 271 721 271 721 291 731 c 128,-1,37
 311 741 311 741 331 751.5 c 128,-1,38
 351 762 351 762 371.5 771.5 c 128,-1,39
 392 781 392 781 414 787 c 1,40,41
 455 718 455 718 493.5 649 c 128,-1,42
 532 580 532 580 570 510 c 0,43,44
 575 500 575 500 572 492.5 c 128,-1,45
 569 485 569 485 562 479.5 c 128,-1,46
 555 474 555 474 546.5 470 c 128,-1,47
 538 466 538 466 531 463 c 1,48,49
 516 454 516 454 497.5 449.5 c 128,-1,50
 479 445 479 445 471 429 c 1,51,52
 478 384 478 384 489.5 340 c 128,-1,53
 501 296 501 296 511 252 c 1,54,55
 519 223 519 223 524.5 194 c 128,-1,56
 530 165 530 165 541 138 c 1,57,58
 556 130 556 130 570 122 c 128,-1,59
 584 114 584 114 597 103 c 1,60,-1
 526 -2 l 1,0,1
245 646 m 1,61,62
 243 587 243 587 242 521 c 128,-1,63
 241 455 241 455 243 396 c 1,64,65
 286 415 286 415 327.5 437 c 128,-1,66
 369 459 369 459 414 478 c 1,67,68
 400 500 400 500 387.5 526 c 128,-1,69
 375 552 375 552 363 578 c 128,-1,70
 351 604 351 604 338.5 629.5 c 128,-1,71
 326 655 326 655 311 677 c 1,72,73
 294 668 294 668 278 660.5 c 128,-1,74
 262 653 262 653 245 646 c 1,61,62
EndSplineSet
EndChar

StartChar: S
Encoding: 83 83 19
Width: 536
Flags: W
LayerCount: 2
Fore
SplineSet
37 108 m 1,0,1
 77 157 77 157 123 203 c 1,2,3
 180 180 180 180 238.5 159 c 128,-1,4
 297 138 297 138 358 122 c 1,5,6
 358 182 358 182 359 241 c 128,-1,7
 360 300 360 300 358 359 c 1,8,9
 350 367 350 367 341 372 c 128,-1,10
 332 377 332 377 324 383 c 1,11,12
 310 378 310 378 299 369.5 c 128,-1,13
 288 361 288 361 279 349.5 c 128,-1,14
 270 338 270 338 261.5 326 c 128,-1,15
 253 314 253 314 244 303 c 1,16,17
 219 302 219 302 197.5 313 c 128,-1,18
 176 324 176 324 153 333 c 1,19,20
 133 342 133 342 113 349.5 c 128,-1,21
 93 357 93 357 75 368 c 1,22,23
 69 377 69 377 69 386.5 c 128,-1,24
 69 396 69 396 69 407 c 0,25,26
 69 471 69 471 69.5 535 c 128,-1,27
 70 599 70 599 69 663 c 0,28,29
 69 674 69 674 68.5 684.5 c 128,-1,30
 68 695 68 695 73 704 c 1,31,32
 105 727 105 727 141 741.5 c 128,-1,33
 177 756 177 756 211 776 c 1,34,35
 221 780 221 780 231 786 c 128,-1,36
 241 792 241 792 251.5 796.5 c 128,-1,37
 262 801 262 801 272.5 802.5 c 128,-1,38
 283 804 283 804 295 801 c 0,39,40
 347 789 347 789 397 773.5 c 128,-1,41
 447 758 447 758 499 746 c 1,42,43
 501 731 501 731 494 719 c 128,-1,44
 487 707 487 707 480 696 c 0,45,46
 466 676 466 676 453.5 656 c 128,-1,47
 441 636 441 636 421 620 c 1,48,49
 373 637 373 637 324.5 652.5 c 128,-1,50
 276 668 276 668 228 683 c 1,51,52
 222 672 222 672 219.5 659.5 c 128,-1,53
 217 647 217 647 217 635 c 0,54,55
 219 594 219 594 218 554 c 128,-1,56
 217 514 217 514 219 473 c 1,57,58
 224 460 224 460 239 456 c 128,-1,59
 254 452 254 452 265 447 c 1,60,61
 288 463 288 463 304 486.5 c 128,-1,62
 320 510 320 510 336 531 c 1,63,64
 359 526 359 526 380.5 517.5 c 128,-1,65
 402 509 402 509 423.5 499.5 c 128,-1,66
 445 490 445 490 466 480.5 c 128,-1,67
 487 471 487 471 510 464 c 1,68,69
 512 285 512 285 510 105 c 1,70,71
 462 78 462 78 412.5 55.5 c 128,-1,72
 363 33 363 33 313 8 c 0,73,74
 299 0 299 0 285 1 c 128,-1,75
 271 2 271 2 256.5 6.5 c 128,-1,76
 242 11 242 11 227.5 17.5 c 128,-1,77
 213 24 213 24 199 27 c 1,78,79
 155 43 155 43 110.5 56 c 128,-1,80
 66 69 66 69 25 92 c 1,81,-1
 37 108 l 1,0,1
EndSplineSet
EndChar

StartChar: T
Encoding: 84 84 20
Width: 435
Flags: W
LayerCount: 2
Fore
SplineSet
25 670 m 1,0,1
 43 699 43 699 60 730 c 128,-1,2
 77 761 77 761 100 787 c 1,3,4
 190 787 190 787 279 779 c 128,-1,5
 368 771 368 771 456 757 c 1,6,7
 459 725 459 725 449.5 692.5 c 128,-1,8
 440 660 440 660 423 631 c 1,9,10
 355 648 355 648 288 639 c 1,11,12
 284 515 284 515 283.5 393.5 c 128,-1,13
 283 272 283 272 285 147 c 1,14,15
 311 140 311 140 336.5 133 c 128,-1,16
 362 126 362 126 387 118 c 1,17,18
 376 84 376 84 361.5 53.5 c 128,-1,19
 347 23 347 23 333 -9 c 1,20,21
 281 2 281 2 232 18.5 c 128,-1,22
 183 35 183 35 133 52 c 1,23,24
 131 194 131 194 132 334.5 c 128,-1,25
 133 475 133 475 132 618 c 1,26,27
 150 627 150 627 168.5 636 c 128,-1,28
 187 645 187 645 205 654 c 1,29,30
 182 659 182 659 159.5 659.5 c 128,-1,31
 137 660 137 660 114 660 c 128,-1,32
 91 660 91 660 68.5 661.5 c 128,-1,33
 46 663 46 663 25 670 c 1,0,1
EndSplineSet
EndChar

StartChar: U
Encoding: 85 85 21
Width: 590
Flags: W
LayerCount: 2
Fore
SplineSet
64 769 m 0,0,1
 68 775 68 775 73.5 780.5 c 128,-1,2
 79 786 79 786 87 784 c 0,3,4
 114 774 114 774 139 760.5 c 128,-1,5
 164 747 164 747 190 735 c 0,6,7
 199 730 199 730 210.5 724 c 128,-1,8
 222 718 222 718 220 703 c 1,9,10
 220 566 220 566 219 431 c 128,-1,11
 218 296 218 296 222 159 c 1,12,13
 242 148 242 148 263 138.5 c 128,-1,14
 284 129 284 129 304 118 c 1,15,16
 320 127 320 127 335 138 c 128,-1,17
 350 149 350 149 363 163 c 1,18,19
 361 287 361 287 361.5 409.5 c 128,-1,20
 362 532 362 532 360 657 c 0,21,22
 360 683 360 683 359.5 708.5 c 128,-1,23
 359 734 359 734 361 759 c 1,24,25
 395 773 395 773 432 777.5 c 128,-1,26
 469 782 469 782 505 787 c 1,27,28
 514 760 514 760 511 732 c 1,29,30
 508 635 508 635 511 541 c 128,-1,31
 514 447 514 447 513 351 c 1,32,33
 514 301 514 301 512.5 252 c 128,-1,34
 511 203 511 203 514 153 c 1,35,36
 525 142 525 142 536 135 c 128,-1,37
 547 128 547 128 558 120 c 1,38,39
 565 118 565 118 568 112 c 128,-1,40
 571 106 571 106 565 97 c 1,41,42
 551 71 551 71 533 48.5 c 128,-1,43
 515 26 515 26 498 1 c 1,44,45
 493 1 493 1 486.5 0.5 c 128,-1,46
 480 0 480 0 475 0 c 1,47,48
 446 18 446 18 419 41 c 128,-1,49
 392 64 392 64 360 73 c 1,50,51
 327 55 327 55 299 31.5 c 128,-1,52
 271 8 271 8 237 -8 c 1,53,54
 196 16 196 16 153 33 c 128,-1,55
 110 50 110 50 70 73 c 1,56,57
 65 93 65 93 67 112.5 c 128,-1,58
 69 132 69 132 69 151 c 0,59,60
 69 272 69 272 67.5 391 c 128,-1,61
 66 510 66 510 67 630 c 1,62,63
 51 638 51 638 36.5 646.5 c 128,-1,64
 22 655 22 655 7 664 c 1,65,66
 20 691 20 691 35 717 c 128,-1,67
 50 743 50 743 64 769 c 0,0,1
EndSplineSet
EndChar

StartChar: V
Encoding: 86 86 22
Width: 536
Flags: W
LayerCount: 2
Fore
SplineSet
219 718 m 1,0,1
 251 734 251 734 278 756 c 128,-1,2
 305 778 305 778 334 796 c 1,3,4
 379 778 379 778 423 758 c 128,-1,5
 467 738 467 738 510 715 c 1,6,-1
 510 133 l 2,7,8
 510 122 510 122 509 110 c 128,-1,9
 508 98 508 98 498 92 c 0,10,11
 451 69 451 69 405.5 47 c 128,-1,12
 360 25 360 25 312 4 c 0,13,14
 306 2 306 2 299 -2 c 128,-1,15
 292 -6 292 -6 285 -2 c 1,16,17
 229 21 229 21 174.5 42.5 c 128,-1,18
 120 64 120 64 63 83 c 1,19,20
 59 219 59 219 59.5 354 c 128,-1,21
 60 489 60 489 60 625 c 1,22,23
 46 639 46 639 31 649.5 c 128,-1,24
 16 660 16 660 1 671 c 1,25,26
 16 698 16 698 29.5 726.5 c 128,-1,27
 43 755 43 755 60 781 c 0,28,29
 65 789 65 789 74.5 789 c 128,-1,30
 84 789 84 789 91 785 c 0,31,32
 124 768 124 768 154.5 750 c 128,-1,33
 185 732 185 732 219 718 c 1,0,1
213 629 m 1,34,35
 209 515 209 515 210 401.5 c 128,-1,36
 211 288 211 288 214 173 c 1,37,38
 250 159 250 159 287 144.5 c 128,-1,39
 324 130 324 130 361 118 c 1,40,41
 359 248 359 248 359.5 375.5 c 128,-1,42
 360 503 360 503 357 632 c 1,43,44
 339 643 339 643 318 652.5 c 128,-1,45
 297 662 297 662 276 665 c 1,46,47
 258 662 258 662 243.5 650 c 128,-1,48
 229 638 229 638 213 629 c 1,34,35
EndSplineSet
EndChar

StartChar: W
Encoding: 87 87 23
Width: 783
Flags: W
LayerCount: 2
Fore
SplineSet
60 783 m 1,0,1
 67 797 67 797 80 793.5 c 128,-1,2
 93 790 93 790 104 785 c 1,3,4
 132 768 132 768 160.5 752 c 128,-1,5
 189 736 189 736 219 723 c 1,6,7
 236 727 236 727 250.5 736 c 128,-1,8
 265 745 265 745 278.5 755.5 c 128,-1,9
 292 766 292 766 305 776.5 c 128,-1,10
 318 787 318 787 333 795 c 1,11,12
 354 789 354 789 374 779.5 c 128,-1,13
 394 770 394 770 414 759.5 c 128,-1,14
 434 749 434 749 454 739 c 128,-1,15
 474 729 474 729 495 723 c 1,16,17
 524 738 524 738 549 758 c 128,-1,18
 574 778 574 778 600 798 c 1,19,20
 640 780 640 780 680 761.5 c 128,-1,21
 720 743 720 743 758 723 c 1,22,23
 758 583 758 583 758 445 c 128,-1,24
 758 307 758 307 756 167 c 0,25,26
 756 159 756 159 756.5 151 c 128,-1,27
 757 143 757 143 757 135.5 c 128,-1,28
 757 128 757 128 754 121.5 c 128,-1,29
 751 115 751 115 743 111 c 1,30,31
 708 88 708 88 671 69 c 128,-1,32
 634 50 634 50 599 27 c 1,33,34
 584 20 584 20 568.5 11 c 128,-1,35
 553 2 553 2 536 11 c 1,36,37
 502 25 502 25 469.5 43.5 c 128,-1,38
 437 62 437 62 399 71 c 1,39,40
 361 60 361 60 328.5 38 c 128,-1,41
 296 16 296 16 258 0 c 1,42,43
 210 29 210 29 159.5 49 c 128,-1,44
 109 69 109 69 60 95 c 1,45,46
 62 231 62 231 62 365.5 c 128,-1,47
 62 500 62 500 63 636 c 1,48,49
 56 642 56 642 44.5 647 c 128,-1,50
 33 652 33 652 23.5 658 c 128,-1,51
 14 664 14 664 8 672 c 128,-1,52
 2 680 2 680 5 692 c 1,53,54
 19 715 19 715 32.5 737.5 c 128,-1,55
 46 760 46 760 60 783 c 1,0,1
213 617 m 1,56,57
 212 506 212 506 212.5 396.5 c 128,-1,58
 213 287 213 287 212 176 c 1,59,60
 241 159 241 159 272 145.5 c 128,-1,61
 303 132 303 132 335 122 c 1,62,63
 336 199 336 199 333.5 274 c 128,-1,64
 331 349 331 349 335 426 c 1,65,66
 332 453 332 453 332.5 480 c 128,-1,67
 333 507 333 507 333.5 534 c 128,-1,68
 334 561 334 561 334 587.5 c 128,-1,69
 334 614 334 614 330 641 c 1,70,71
 300 662 300 662 266 666 c 1,72,73
 253 652 253 652 236 643 c 128,-1,74
 219 634 219 634 213 617 c 1,56,57
492 635 m 1,75,76
 488 612 488 612 488 587 c 0,77,78
 488 490 488 490 487 396 c 128,-1,79
 486 302 486 302 486 206 c 1,80,81
 488 198 488 198 488 187 c 128,-1,82
 488 176 488 176 498 173 c 1,83,84
 524 158 524 158 552 147.5 c 128,-1,85
 580 137 580 137 606 125 c 1,86,87
 608 255 608 255 608 384.5 c 128,-1,88
 608 514 608 514 605 645 c 1,89,90
 589 650 589 650 574 657.5 c 128,-1,91
 559 665 559 665 542 663 c 1,92,93
 528 658 528 658 516.5 650 c 128,-1,94
 505 642 505 642 492 635 c 1,75,76
EndSplineSet
EndChar

StartChar: X
Encoding: 88 88 24
Width: 472
Flags: W
LayerCount: 2
Fore
SplineSet
79 781 m 0,0,1
 83 786 83 786 89 790.5 c 128,-1,2
 95 795 95 795 102 791 c 1,3,4
 145 779 145 779 186 760.5 c 128,-1,5
 227 742 227 742 271 733 c 1,6,7
 291 741 291 741 307.5 755 c 128,-1,8
 324 769 324 769 340 785 c 1,9,10
 347 787 347 787 353 790.5 c 128,-1,11
 359 794 359 794 366 796 c 1,12,13
 393 771 393 771 418 742.5 c 128,-1,14
 443 714 443 714 466 685 c 1,15,16
 443 662 443 662 418.5 641.5 c 128,-1,17
 394 621 394 621 370 599 c 1,18,19
 356 599 356 599 345 607.5 c 128,-1,20
 334 616 334 616 325 626 c 0,21,22
 320 633 320 633 315 639 c 128,-1,23
 310 645 310 645 303 650 c 1,24,25
 298 609 298 609 299.5 570 c 128,-1,26
 301 531 301 531 300 490 c 1,27,28
 327 488 327 488 354.5 489 c 128,-1,29
 382 490 382 490 409 488 c 1,30,31
 413 481 413 481 417 479 c 1,32,33
 411 452 411 452 403.5 426 c 128,-1,34
 396 400 396 400 388 374 c 1,35,36
 344 372 344 372 301 365 c 1,37,38
 301 319 301 319 298.5 273 c 128,-1,39
 296 227 296 227 301 182 c 1,40,41
 339 164 339 164 378.5 151.5 c 128,-1,42
 418 139 418 139 457 125 c 1,43,44
 454 107 454 107 445 91 c 128,-1,45
 436 75 436 75 423.5 60.5 c 128,-1,46
 411 46 411 46 398 31.5 c 128,-1,47
 385 17 385 17 375 1 c 1,48,49
 327 18 327 18 280.5 38.5 c 128,-1,50
 234 59 234 59 184 70 c 1,51,52
 161 54 161 54 140 33.5 c 128,-1,53
 119 13 119 13 93 2 c 1,54,55
 68 22 68 22 48.5 48.5 c 128,-1,56
 29 75 29 75 4 98 c 1,57,-1
 4 121 l 1,58,59
 28 141 28 141 49.5 163 c 128,-1,60
 71 185 71 185 94 205 c 1,61,62
 110 191 110 191 123.5 175 c 128,-1,63
 137 159 137 159 151 142 c 1,64,65
 156 199 156 199 153.5 253.5 c 128,-1,66
 151 308 151 308 153 364 c 1,67,68
 140 365 140 365 126 364.5 c 128,-1,69
 112 364 112 364 98.5 364 c 128,-1,70
 85 364 85 364 71.5 365.5 c 128,-1,71
 58 367 58 367 46 374 c 1,72,73
 48 403 48 403 53.5 432.5 c 128,-1,74
 59 462 59 462 72 488 c 1,75,-1
 151 488 l 1,76,77
 151 523 151 523 151.5 558.5 c 128,-1,78
 152 594 152 594 148 629 c 1,79,80
 116 637 116 637 83 647.5 c 128,-1,81
 50 658 50 658 19 674 c 1,82,83
 9 682 9 682 13.5 693 c 128,-1,84
 18 704 18 704 25 712 c 0,85,86
 39 729 39 729 52 746.5 c 128,-1,87
 65 764 65 764 79 781 c 0,0,1
EndSplineSet
EndChar

StartChar: Y
Encoding: 89 89 25
Width: 536
Flags: W
LayerCount: 2
Fore
SplineSet
5 664 m 1,0,1
 16 698 16 698 35.5 728 c 128,-1,2
 55 758 55 758 74 787 c 1,3,4
 112 771 112 771 147 750.5 c 128,-1,5
 182 730 182 730 220 714 c 1,6,7
 237 717 237 717 251.5 727.5 c 128,-1,8
 266 738 266 738 280.5 750 c 128,-1,9
 295 762 295 762 309.5 772.5 c 128,-1,10
 324 783 324 783 341 786 c 1,11,12
 386 769 386 769 427.5 747.5 c 128,-1,13
 469 726 469 726 511 706 c 1,14,-1
 511 -80 l 1,15,16
 478 -103 478 -103 445.5 -125.5 c 128,-1,17
 413 -148 413 -148 380 -171 c 0,18,19
 371 -178 371 -178 363 -176 c 128,-1,20
 355 -174 355 -174 348.5 -167.5 c 128,-1,21
 342 -161 342 -161 336.5 -152 c 128,-1,22
 331 -143 331 -143 328 -135 c 1,23,24
 337 -117 337 -117 346 -98 c 128,-1,25
 355 -79 355 -79 356 -59 c 0,26,27
 360 112 360 112 358 281 c 128,-1,28
 356 450 356 450 358 621 c 1,29,30
 338 631 338 631 317.5 641.5 c 128,-1,31
 297 652 297 652 275 661 c 1,32,33
 261 651 261 651 246 641.5 c 128,-1,34
 231 632 231 632 218 618 c 1,35,36
 215 494 215 494 216 373 c 128,-1,37
 217 252 217 252 215 130 c 1,38,39
 229 125 229 125 242 120.5 c 128,-1,40
 255 116 255 116 268 111 c 1,41,42
 259 77 259 77 238 49 c 128,-1,43
 217 21 217 21 197 -8 c 1,44,45
 163 0 163 0 130.5 12.5 c 128,-1,46
 98 25 98 25 64 34 c 1,47,48
 63 108 63 108 63 185.5 c 128,-1,49
 63 263 63 263 63 339.5 c 128,-1,50
 63 416 63 416 62.5 488.5 c 128,-1,51
 62 561 62 561 61 625 c 1,52,53
 46 633 46 633 31 642.5 c 128,-1,54
 16 652 16 652 5 664 c 1,0,1
EndSplineSet
EndChar

StartChar: Z
Encoding: 90 90 26
Width: 484
Flags: W
LayerCount: 2
Fore
SplineSet
135 782 m 1,0,1
 150 785 150 785 188 781.5 c 128,-1,2
 226 778 226 778 273.5 772 c 128,-1,3
 321 766 321 766 372 759.5 c 128,-1,4
 423 753 423 753 465 751 c 1,5,6
 445 701 445 701 411 656 c 1,7,8
 380 610 380 610 350 565 c 128,-1,9
 320 520 320 520 288 473 c 1,10,11
 330 457 330 457 371 442.5 c 128,-1,12
 412 428 412 428 453 412 c 1,13,14
 456 318 456 318 455 224.5 c 128,-1,15
 454 131 454 131 456 37 c 1,16,17
 454 26 454 26 455 14.5 c 128,-1,18
 456 3 456 3 453 -8 c 1,19,20
 442 -22 442 -22 428 -33.5 c 128,-1,21
 414 -45 414 -45 400 -58 c 1,22,23
 366 -84 366 -84 335.5 -113.5 c 128,-1,24
 305 -143 305 -143 273 -169 c 1,25,-1
 252 -169 l 1,26,27
 196 -142 196 -142 142 -116 c 128,-1,28
 88 -90 88 -90 31 -64 c 1,29,-1
 31 -38 l 1,30,31
 51 -15 51 -15 63.5 12.5 c 128,-1,32
 76 40 76 40 96 64 c 1,33,34
 149 42 149 42 199 16.5 c 128,-1,35
 249 -9 249 -9 303 -32 c 1,36,37
 301 53 301 53 302 136.5 c 128,-1,38
 303 220 303 220 303 304 c 1,39,40
 267 324 267 324 228 338.5 c 128,-1,41
 189 353 189 353 150 365 c 0,42,43
 145 367 145 367 138 371 c 128,-1,44
 131 375 131 375 126 379 c 1,45,46
 131 406 131 406 149.5 426.5 c 128,-1,47
 168 447 168 447 184 470 c 0,48,49
 213 513 213 513 241.5 555 c 128,-1,50
 270 597 270 597 298 640 c 1,51,52
 268 646 268 646 238.5 649.5 c 128,-1,53
 209 653 209 653 179 656 c 128,-1,54
 149 659 149 659 119 662.5 c 128,-1,55
 89 666 89 666 60 673 c 1,56,57
 78 701 78 701 96.5 728 c 128,-1,58
 115 755 115 755 135 782 c 1,0,1
EndSplineSet
EndChar

StartChar: bracketleft
Encoding: 91 91 132
Width: 239
Flags: W
LayerCount: 2
Fore
SplineSet
289 -172 m 1,0,1
 231 -176 231 -176 170 -174.5 c 128,-1,2
 109 -173 109 -173 49 -172 c 1,3,4
 48 -170 48 -170 48 -170 c 1,5,-1
 47 -170 l 1,6,-1
 47 -168 l 2,7,8
 47 -126 47 -126 47 -63.5 c 128,-1,9
 47 -1 47 -1 47.5 73.5 c 128,-1,10
 48 148 48 148 48 230.5 c 128,-1,11
 48 313 48 313 48.5 394.5 c 128,-1,12
 49 476 49 476 49 552.5 c 128,-1,13
 49 629 49 629 49 692 c 128,-1,14
 49 755 49 755 49 800.5 c 128,-1,15
 49 846 49 846 48 866 c 1,16,17
 105 873 105 873 161 872.5 c 128,-1,18
 217 872 217 872 285 870 c 1,19,20
 291 856 291 856 293.5 846.5 c 128,-1,21
 296 837 296 837 296 827.5 c 128,-1,22
 296 818 296 818 294 807.5 c 128,-1,23
 292 797 292 797 289 781 c 1,24,25
 242 778 242 778 193 778 c 1,26,27
 194 758 194 758 194 737.5 c 128,-1,28
 194 717 194 717 194 697 c 2,29,-1
 194 526 l 2,30,31
 194 513 194 513 193.5 481.5 c 128,-1,32
 193 450 193 450 193 408.5 c 128,-1,33
 193 367 193 367 193 321.5 c 128,-1,34
 193 276 193 276 193 235 c 128,-1,35
 193 194 193 194 193 162.5 c 128,-1,36
 193 131 193 131 193 118 c 2,37,-1
 193 -81 l 1,38,39
 215 -81 215 -81 237.5 -81.5 c 128,-1,40
 260 -82 260 -82 285 -83 c 1,41,42
 291 -97 291 -97 293.5 -106.5 c 128,-1,43
 296 -116 296 -116 296 -125.5 c 128,-1,44
 296 -135 296 -135 294 -145.5 c 128,-1,45
 292 -156 292 -156 289 -172 c 1,0,1
EndSplineSet
EndChar

StartChar: backslash
Encoding: 92 92 131
Width: 429
Flags: W
LayerCount: 2
Fore
SplineSet
-61 867 m 1,0,1
 -26 861 -26 861 10 850 c 128,-1,2
 46 839 46 839 81 826 c 1,3,4
 96 794 96 794 109 762 c 128,-1,5
 122 730 122 730 136 697 c 0,6,7
 148 667 148 667 161 636 c 128,-1,8
 174 605 174 605 186 574 c 0,9,10
 191 562 191 562 196 550.5 c 128,-1,11
 201 539 201 539 206 526 c 256,12,13
 211 513 211 513 224 481.5 c 128,-1,14
 237 450 237 450 253.5 408.5 c 128,-1,15
 270 367 270 367 288.5 321.5 c 128,-1,16
 307 276 307 276 323.5 235 c 128,-1,17
 340 194 340 194 353 162.5 c 128,-1,18
 366 131 366 131 371 118 c 0,19,20
 389 75 389 75 406.5 32.5 c 128,-1,21
 424 -10 424 -10 441 -53 c 0,22,23
 451 -76 451 -76 460.5 -100.5 c 128,-1,24
 470 -125 470 -125 480 -149 c 1,25,26
 478 -154 478 -154 460.5 -158 c 128,-1,27
 443 -162 443 -162 420.5 -164.5 c 128,-1,28
 398 -167 398 -167 376 -168.5 c 128,-1,29
 354 -170 354 -170 343 -170 c 1,30,31
 328 -136 328 -136 315 -103.5 c 128,-1,32
 302 -71 302 -71 288 -39 c 0,33,34
 276 -10 276 -10 251.5 52.5 c 128,-1,35
 227 115 227 115 195.5 194 c 128,-1,36
 164 273 164 273 129.5 359.5 c 128,-1,37
 95 446 95 446 63 524 c 128,-1,38
 31 602 31 602 5.5 663 c 128,-1,39
 -20 724 -20 724 -33 751 c 0,40,41
 -59 805 -59 805 -70 835 c 128,-1,42
 -81 865 -81 865 -61 867 c 1,0,1
EndSplineSet
EndChar

StartChar: bracketright
Encoding: 93 93 133
Width: 239
Flags: W
LayerCount: 2
Fore
SplineSet
54 -172 m 1,0,1
 51 -156 51 -156 49 -145.5 c 128,-1,2
 47 -135 47 -135 47 -125.5 c 128,-1,3
 47 -116 47 -116 49.5 -106.5 c 128,-1,4
 52 -97 52 -97 58 -83 c 1,5,6
 83 -82 83 -82 105.5 -81.5 c 128,-1,7
 128 -81 128 -81 150 -81 c 1,8,-1
 150 118 l 2,9,10
 150 131 150 131 150 162.5 c 128,-1,11
 150 194 150 194 150 235 c 128,-1,12
 150 276 150 276 150 321.5 c 128,-1,13
 150 367 150 367 150 408.5 c 128,-1,14
 150 450 150 450 149.5 481.5 c 128,-1,15
 149 513 149 513 149 526 c 2,16,-1
 149 697 l 2,17,18
 149 717 149 717 149 737.5 c 128,-1,19
 149 758 149 758 150 778 c 1,20,21
 100 778 100 778 54 781 c 1,22,23
 51 797 51 797 49 807.5 c 128,-1,24
 47 818 47 818 47 827.5 c 128,-1,25
 47 837 47 837 49.5 846.5 c 128,-1,26
 52 856 52 856 58 870 c 1,27,28
 126 872 126 872 182 872.5 c 128,-1,29
 238 873 238 873 295 866 c 1,30,31
 294 846 294 846 294 800.5 c 128,-1,32
 294 755 294 755 294 692 c 128,-1,33
 294 629 294 629 294 552.5 c 128,-1,34
 294 476 294 476 294.5 394.5 c 128,-1,35
 295 313 295 313 295 230.5 c 128,-1,36
 295 148 295 148 295.5 73.5 c 128,-1,37
 296 -1 296 -1 296 -63.5 c 128,-1,38
 296 -126 296 -126 296 -168 c 2,39,-1
 296 -170 l 1,40,-1
 295 -170 l 1,41,42
 295 -171 295 -171 294 -172 c 0,43,44
 234 -173 234 -173 173 -174.5 c 128,-1,45
 112 -176 112 -176 54 -172 c 1,0,1
EndSplineSet
EndChar

StartChar: asciicircum
Encoding: 94 94 163
Width: 405
Flags: W
LayerCount: 2
Fore
SplineSet
91 331 m 1,0,1
 75 336 75 336 64.5 340.5 c 128,-1,2
 54 345 54 345 46 351.5 c 128,-1,3
 38 358 38 358 31.5 369.5 c 128,-1,4
 25 381 25 381 16 400 c 1,5,6
 38 455 38 455 57.5 505 c 128,-1,7
 77 555 77 555 96 601.5 c 128,-1,8
 115 648 115 648 134.5 692 c 128,-1,9
 154 736 154 736 176 780 c 1,10,11
 190 784 190 784 197.5 787 c 128,-1,12
 205 790 205 790 212.5 790 c 128,-1,13
 220 790 220 790 230.5 787.5 c 128,-1,14
 241 785 241 785 261 778 c 1,15,16
 302 682 302 682 342.5 585.5 c 128,-1,17
 383 489 383 489 418 392 c 1,18,19
 407 375 407 375 399 364.5 c 128,-1,20
 391 354 391 354 382.5 348 c 128,-1,21
 374 342 374 342 364 339.5 c 128,-1,22
 354 337 354 337 338 337 c 1,23,24
 321 379 321 379 304.5 414.5 c 128,-1,25
 288 450 288 450 273 483.5 c 128,-1,26
 258 517 258 517 244 550.5 c 128,-1,27
 230 584 230 584 217 620 c 1,28,29
 186 542 186 542 155 472.5 c 128,-1,30
 124 403 124 403 91 331 c 1,0,1
EndSplineSet
EndChar

StartChar: grave
Encoding: 96 96 101
Width: 236
Flags: W
LayerCount: 2
Fore
SplineSet
180 609 m 1,0,1
 163 611 163 611 134 624.5 c 128,-1,2
 105 638 105 638 73.5 654 c 128,-1,3
 42 670 42 670 13.5 684.5 c 128,-1,4
 -15 699 -15 699 -31 705 c 1,5,6
 -30 720 -30 720 -27 730.5 c 128,-1,7
 -24 741 -24 741 -19.5 750.5 c 128,-1,8
 -15 760 -15 760 -9.5 770 c 128,-1,9
 -4 780 -4 780 2 794 c 1,10,11
 19 794 19 794 48 781 c 128,-1,12
 77 768 77 768 108 752.5 c 128,-1,13
 139 737 139 737 167.5 722 c 128,-1,14
 196 707 196 707 212 703 c 1,15,16
 209 684 209 684 207 674.5 c 128,-1,17
 205 665 205 665 201.5 657 c 128,-1,18
 198 649 198 649 193 639 c 128,-1,19
 188 629 188 629 180 609 c 1,0,1
EndSplineSet
EndChar

StartChar: a
Encoding: 97 97 27
Width: 441
Flags: W
LayerCount: 2
Fore
SplineSet
32 524 m 1,0,1
 77 547 77 547 120.5 569.5 c 128,-1,2
 164 592 164 592 211 610 c 1,3,4
 255 597 255 597 297 580 c 128,-1,5
 339 563 339 563 382 548 c 1,6,7
 398 545 398 545 401 530.5 c 128,-1,8
 404 516 404 516 404 502 c 0,9,10
 402 432 402 432 400 362.5 c 128,-1,11
 398 293 398 293 398 221 c 0,12,13
 398 201 398 201 398 180 c 128,-1,14
 398 159 398 159 400 137 c 0,15,16
 400 128 400 128 407 123.5 c 128,-1,17
 414 119 414 119 422.5 115.5 c 128,-1,18
 431 112 431 112 438 108 c 128,-1,19
 445 104 445 104 445 97 c 0,20,21
 445 93 445 93 436.5 77 c 128,-1,22
 428 61 428 61 417 43.5 c 128,-1,23
 406 26 406 26 394.5 12 c 128,-1,24
 383 -2 383 -2 376 -2 c 0,25,26
 357 -2 357 -2 337.5 2.5 c 128,-1,27
 318 7 318 7 300.5 15.5 c 128,-1,28
 283 24 283 24 269.5 35.5 c 128,-1,29
 256 47 256 47 250 62 c 1,30,31
 214 30 214 30 178 -4 c 1,32,33
 145 8 145 8 116 18 c 0,34,35
 91 26 91 26 67.5 34 c 128,-1,36
 44 42 44 42 34 46 c 1,37,38
 29 73 29 73 27.5 100 c 128,-1,39
 26 127 26 127 26 155 c 0,40,41
 26 196 26 196 27 237 c 128,-1,42
 28 278 28 278 28 320 c 0,43,44
 28 344 28 344 27 368.5 c 128,-1,45
 26 393 26 393 26 418 c 0,46,47
 26 470 26 470 32 524 c 1,0,1
176 466 m 1,48,-1
 176 419 l 2,49,50
 176 373 176 373 174.5 328 c 128,-1,51
 173 283 173 283 173 236 c 0,52,53
 173 216 173 216 174 196.5 c 128,-1,54
 175 177 175 177 176 157 c 0,55,56
 176 155 176 155 175.5 153.5 c 128,-1,57
 175 152 175 152 175 151 c 0,58,59
 175 145 175 145 180 140 c 128,-1,60
 185 135 185 135 192 131.5 c 128,-1,61
 199 128 199 128 205.5 126 c 128,-1,62
 212 124 212 124 214 124 c 0,63,64
 230 124 230 124 240.5 140.5 c 128,-1,65
 251 157 251 157 251 172 c 2,66,-1
 251 176 l 2,67,68
 251 216 251 216 252 255 c 128,-1,69
 253 294 253 294 253 334 c 0,70,71
 253 363 253 363 252 393 c 128,-1,72
 251 423 251 423 250 452 c 1,73,74
 237 459 237 459 224 464 c 128,-1,75
 211 469 211 469 199 475 c 1,76,77
 194 473 194 473 187.5 470 c 128,-1,78
 181 467 181 467 176 466 c 1,48,-1
EndSplineSet
EndChar

StartChar: b
Encoding: 98 98 28
Width: 427
Flags: W
LayerCount: 2
Fore
SplineSet
24 762 m 1,0,1
 59 776 59 776 97.5 780 c 128,-1,2
 136 784 136 784 174 786 c 1,3,4
 176 763 176 763 176 740 c 128,-1,5
 176 717 176 717 176 692 c 2,6,-1
 176 614 l 2,7,8
 176 594 176 594 176 576 c 128,-1,9
 176 558 176 558 177 540 c 1,10,11
 186 547 186 547 196 558.5 c 128,-1,12
 206 570 206 570 217 580 c 128,-1,13
 228 590 228 590 238.5 597.5 c 128,-1,14
 249 605 249 605 258 605 c 0,15,16
 278 605 278 605 297 595.5 c 128,-1,17
 316 586 316 586 333 579 c 0,18,19
 349 572 349 572 367 566 c 128,-1,20
 385 560 385 560 398 548 c 1,21,22
 400 523 400 523 400.5 498.5 c 128,-1,23
 401 474 401 474 401 450 c 0,24,25
 401 406 401 406 400 363.5 c 128,-1,26
 399 321 399 321 399 276 c 2,27,-1
 399 236 l 1,28,29
 398 227 398 227 398 218 c 128,-1,30
 398 209 398 209 398 200 c 0,31,32
 398 183 398 183 398.5 167 c 128,-1,33
 399 151 399 151 399 135 c 0,34,35
 399 105 399 105 396 77 c 1,36,37
 370 57 370 57 341 45 c 128,-1,38
 312 33 312 33 285 17 c 1,39,40
 269 10 269 10 252.5 0.5 c 128,-1,41
 236 -9 236 -9 218 -9 c 0,42,43
 210 -9 210 -9 200 -4 c 0,44,45
 157 14 157 14 112.5 28 c 128,-1,46
 68 42 68 42 26 62 c 1,47,48
 24 100 24 100 24 138.5 c 128,-1,49
 24 177 24 177 24 215 c 0,50,51
 24 301 24 301 25 385.5 c 128,-1,52
 26 470 26 470 26 555 c 0,53,54
 26 607 26 607 26 658.5 c 128,-1,55
 26 710 26 710 24 762 c 1,0,1
177 453 m 1,56,57
 176 423 176 423 175 393.5 c 128,-1,58
 174 364 174 364 174 335 c 0,59,60
 174 310 174 310 175 286 c 128,-1,61
 176 262 176 262 176 237 c 0,62,63
 176 214 176 214 175 192 c 128,-1,64
 174 170 174 170 174 147 c 1,65,66
 194 138 194 138 213 130 c 128,-1,67
 232 122 232 122 252 114 c 1,68,69
 252 131 252 131 253 148.5 c 128,-1,70
 254 166 254 166 254 183 c 0,71,72
 254 223 254 223 253 261.5 c 128,-1,73
 252 300 252 300 252 338 c 2,74,-1
 252 414 l 2,75,76
 252 424 252 424 251.5 434.5 c 128,-1,77
 251 445 251 445 247 454 c 128,-1,78
 243 463 243 463 233.5 468.5 c 128,-1,79
 224 474 224 474 206 474 c 0,80,81
 197 474 197 474 189 470 c 128,-1,82
 181 466 181 466 177 453 c 1,56,57
EndSplineSet
EndChar

StartChar: c
Encoding: 99 99 29
Width: 385
Flags: W
LayerCount: 2
Fore
SplineSet
232 609 m 0,0,1
 251 617 251 617 271 617 c 1,2,3
 287 591 287 591 297.5 562 c 128,-1,4
 308 533 308 533 319 506 c 0,5,6
 330 477 330 477 342 449 c 128,-1,7
 354 421 354 421 362 392 c 1,8,9
 355 380 355 380 339 367.5 c 128,-1,10
 323 355 323 355 304.5 345.5 c 128,-1,11
 286 336 286 336 268.5 330 c 128,-1,12
 251 324 251 324 242 324 c 1,13,14
 225 362 225 362 212 401 c 128,-1,15
 199 440 199 440 179 477 c 1,16,17
 179 429 179 429 178 392.5 c 128,-1,18
 177 356 177 356 176.5 322.5 c 128,-1,19
 176 289 176 289 175.5 253.5 c 128,-1,20
 175 218 175 218 175 171 c 1,21,22
 180 161 180 161 201.5 152 c 128,-1,23
 223 143 223 143 250 135 c 128,-1,24
 277 127 277 127 304 120 c 128,-1,25
 331 113 331 113 346 108 c 1,26,27
 345 92 345 92 335 72 c 128,-1,28
 325 52 325 52 312 34.5 c 128,-1,29
 299 17 299 17 286 5 c 128,-1,30
 273 -7 273 -7 266 -7 c 0,31,32
 261 -7 261 -7 241.5 -2 c 128,-1,33
 222 3 222 3 195 11.5 c 128,-1,34
 168 20 168 20 138.5 30.5 c 128,-1,35
 109 41 109 41 84 51.5 c 128,-1,36
 59 62 59 62 43 71 c 128,-1,37
 27 80 27 80 28 86 c 1,38,-1
 28 527 l 2,39,40
 28 535 28 535 51.5 545.5 c 128,-1,41
 75 556 75 556 107.5 567 c 128,-1,42
 140 578 140 578 174.5 589 c 128,-1,43
 209 600 209 600 232 609 c 0,0,1
EndSplineSet
EndChar

StartChar: d
Encoding: 100 100 30
Width: 430
Flags: W
LayerCount: 2
Fore
SplineSet
405 572 m 1,0,-1
 405 100 l 2,1,2
 405 91 405 91 386.5 78.5 c 128,-1,3
 368 66 368 66 341 52.5 c 128,-1,4
 314 39 314 39 284.5 25.5 c 128,-1,5
 255 12 255 12 234 2 c 0,6,7
 227 -2 227 -2 220 -2 c 0,8,9
 212 -2 212 -2 189 6 c 128,-1,10
 166 14 166 14 137.5 25.5 c 128,-1,11
 109 37 109 37 80.5 50 c 128,-1,12
 52 63 52 63 33 74 c 1,13,-1
 33 224 l 1,14,-1
 33 527 l 1,15,16
 65 538 65 538 96 549 c 128,-1,17
 127 560 127 560 157 572 c 1,18,19
 146 586 146 586 129 598 c 128,-1,20
 112 610 112 610 91.5 623.5 c 128,-1,21
 71 637 71 637 50 654 c 128,-1,22
 29 671 29 671 10 695 c 1,23,24
 19 706 19 706 31 722.5 c 128,-1,25
 43 739 43 739 56 754 c 128,-1,26
 69 769 69 769 81 780 c 128,-1,27
 93 791 93 791 102 791 c 0,28,29
 113 791 113 791 118 785 c 1,30,31
 188 733 188 733 258 680.5 c 128,-1,32
 328 628 328 628 402 580 c 1,33,-1
 405 572 l 1,0,-1
177 506 m 1,34,35
 177 440 177 440 179 373.5 c 128,-1,36
 181 307 181 307 181 241 c 0,37,38
 181 221 181 221 181 201 c 128,-1,39
 181 181 181 181 180 161 c 1,40,41
 198 149 198 149 217 141.5 c 128,-1,42
 236 134 236 134 256 127 c 1,43,44
 258 157 258 157 258 186.5 c 128,-1,45
 258 216 258 216 258 247 c 0,46,47
 258 308 258 308 257 368 c 128,-1,48
 256 428 256 428 256 488 c 0,49,50
 256 508 256 508 241 517.5 c 128,-1,51
 226 527 226 527 210 532 c 1,52,53
 202 525 202 525 193.5 519 c 128,-1,54
 185 513 185 513 177 506 c 1,34,35
EndSplineSet
EndChar

StartChar: e
Encoding: 101 101 31
Width: 412
Flags: W
LayerCount: 2
Fore
SplineSet
25 538 m 1,0,1
 72 558 72 558 117.5 583 c 128,-1,2
 163 608 163 608 211 622 c 1,3,4
 254 606 254 606 295.5 587.5 c 128,-1,5
 337 569 337 569 378 549 c 1,6,7
 383 527 383 527 385 495 c 128,-1,8
 387 463 387 463 387 429 c 0,9,10
 387 397 387 397 386 367.5 c 128,-1,11
 385 338 385 338 384 318 c 1,12,13
 380 308 380 308 356.5 294.5 c 128,-1,14
 333 281 333 281 302 267 c 128,-1,15
 271 253 271 253 237.5 239 c 128,-1,16
 204 225 204 225 180 214 c 1,17,18
 176 204 176 204 175.5 192 c 128,-1,19
 175 180 175 180 175 169 c 1,20,21
 205 156 205 156 231.5 148.5 c 128,-1,22
 258 141 258 141 282.5 135 c 128,-1,23
 307 129 307 129 331.5 123.5 c 128,-1,24
 356 118 356 118 382 109 c 1,25,26
 366 77 366 77 347.5 48.5 c 128,-1,27
 329 20 329 20 304 -3 c 1,28,29
 287 -2 287 -2 248 8 c 128,-1,30
 209 18 209 18 165.5 31 c 128,-1,31
 122 44 122 44 82.5 56.5 c 128,-1,32
 43 69 43 69 25 76 c 1,33,-1
 25 538 l 1,0,1
184 495 m 1,34,35
 182 493 182 493 177.5 489 c 128,-1,36
 173 485 173 485 171 483 c 1,37,-1
 171 438 l 1,38,-1
 171 358 l 2,39,40
 171 339 171 339 171 321 c 128,-1,41
 171 303 171 303 172 285 c 1,42,43
 189 292 189 292 206 298 c 128,-1,44
 223 304 223 304 235 316 c 1,45,46
 237 327 237 327 237 338.5 c 128,-1,47
 237 350 237 350 237 361 c 0,48,49
 237 384 237 384 236 406 c 128,-1,50
 235 428 235 428 235 451 c 0,51,52
 235 461 235 461 230 467.5 c 128,-1,53
 225 474 225 474 217 479 c 128,-1,54
 209 484 209 484 200 487.5 c 128,-1,55
 191 491 191 491 184 495 c 1,34,35
EndSplineSet
EndChar

StartChar: f
Encoding: 102 102 32
Width: 255
Flags: W
LayerCount: 2
Fore
SplineSet
58 735 m 0,0,1
 76 751 76 751 91 769 c 128,-1,2
 106 787 106 787 125 800 c 1,3,4
 140 799 140 799 162 797 c 128,-1,5
 184 795 184 795 203.5 791.5 c 128,-1,6
 223 788 223 788 237 782 c 128,-1,7
 251 776 251 776 251 767 c 2,8,-1
 251 764 l 1,9,-1
 251 755 l 2,10,11
 251 732 251 732 248 710 c 128,-1,12
 245 688 245 688 244 665 c 1,13,14
 227 662 227 662 211 662 c 256,15,16
 195 662 195 662 179 665 c 1,17,18
 185 648 185 648 191.5 632 c 128,-1,19
 198 616 198 616 203 599 c 1,20,21
 213 599 213 599 222 599.5 c 128,-1,22
 231 600 231 600 237.5 597 c 128,-1,23
 244 594 244 594 247.5 586.5 c 128,-1,24
 251 579 251 579 251 563 c 0,25,26
 251 550 251 550 249 538 c 128,-1,27
 247 526 247 526 244 513 c 1,28,29
 233 512 233 512 224 512 c 128,-1,30
 215 512 215 512 206 510 c 1,31,32
 205 453 205 453 205 397.5 c 128,-1,33
 205 342 205 342 205 285 c 2,34,-1
 205 -25 l 2,35,36
 205 -56 205 -56 206 -91 c 128,-1,37
 207 -126 207 -126 196 -153 c 1,38,39
 162 -156 162 -156 129 -162 c 128,-1,40
 96 -168 96 -168 62 -168 c 1,41,42
 61 -155 61 -155 60 -142 c 128,-1,43
 59 -129 59 -129 59 -115 c 0,44,45
 59 -98 59 -98 60 -80.5 c 128,-1,46
 61 -63 61 -63 61 -45 c 0,47,48
 59 22 59 22 59 88 c 128,-1,49
 59 154 59 154 59 221 c 0,50,51
 59 289 59 289 59 355 c 128,-1,52
 59 421 59 421 61 489 c 1,53,54
 59 498 59 498 52.5 502 c 128,-1,55
 46 506 46 506 37.5 507.5 c 128,-1,56
 29 509 29 509 20.5 509.5 c 128,-1,57
 12 510 12 510 5 513 c 1,58,59
 5 535 5 535 7.5 555.5 c 128,-1,60
 10 576 10 576 17 596 c 1,61,62
 28 596 28 596 37.5 596.5 c 128,-1,63
 47 597 47 597 58 597 c 1,64,65
 58 622 58 622 52 646 c 128,-1,66
 46 670 46 670 37 693 c 1,67,68
 34 697 34 697 34 702 c 0,69,70
 34 713 34 713 42.5 720.5 c 128,-1,71
 51 728 51 728 58 735 c 0,0,1
EndSplineSet
EndChar

StartChar: g
Encoding: 103 103 33
Width: 439
Flags: W
LayerCount: 2
Fore
SplineSet
37 534 m 0,0,1
 79 558 79 558 123 577.5 c 128,-1,2
 167 597 167 597 210 618 c 1,3,4
 232 611 232 611 264.5 601 c 128,-1,5
 297 591 297 591 327.5 579 c 128,-1,6
 358 567 358 567 380 555 c 128,-1,7
 402 543 402 543 402 533 c 2,8,-1
 402 528 l 2,9,10
 402 399 402 399 402.5 271.5 c 128,-1,11
 403 144 403 144 403 14 c 0,12,13
 403 -4 403 -4 408.5 -22 c 128,-1,14
 414 -40 414 -40 414 -60 c 0,15,16
 414 -70 414 -70 395.5 -84.5 c 128,-1,17
 377 -99 377 -99 353 -114 c 128,-1,18
 329 -129 329 -129 305 -142 c 128,-1,19
 281 -155 281 -155 270 -163 c 0,20,21
 262 -170 262 -170 253 -172 c 128,-1,22
 244 -174 244 -174 234 -174 c 0,23,24
 183 -174 183 -174 131 -167.5 c 128,-1,25
 79 -161 79 -161 27 -159 c 1,26,27
 29 -126 29 -126 41 -95.5 c 128,-1,28
 53 -65 53 -65 67 -36 c 1,29,30
 116 -41 116 -41 163.5 -46 c 128,-1,31
 211 -51 211 -51 259 -57 c 1,32,33
 254 -28 254 -28 253 2.5 c 128,-1,34
 252 33 252 33 250 62 c 1,35,36
 242 57 242 57 232 46.5 c 128,-1,37
 222 36 222 36 211 25.5 c 128,-1,38
 200 15 200 15 189.5 7 c 128,-1,39
 179 -1 179 -1 171 -1 c 0,40,41
 154 -1 154 -1 138 7.5 c 128,-1,42
 122 16 122 16 106 21 c 1,43,44
 88 32 88 32 67 38 c 128,-1,45
 46 44 46 44 31 59 c 1,46,47
 28 165 28 165 28.5 270.5 c 128,-1,48
 29 376 29 376 25 482 c 1,49,-1
 25 486 l 1,50,-1
 25 506 l 2,51,52
 25 514 25 514 27 521.5 c 128,-1,53
 29 529 29 529 37 534 c 0,0,1
175 489 m 1,54,55
 175 464 175 464 174.5 439 c 128,-1,56
 174 414 174 414 174 389 c 0,57,58
 174 267 174 267 177 146 c 1,59,60
 200 134 200 134 226 125 c 1,61,62
 232 130 232 130 238.5 136 c 128,-1,63
 245 142 245 142 250 147 c 1,64,65
 252 178 252 178 252 208 c 128,-1,66
 252 238 252 238 252 269 c 0,67,68
 252 317 252 317 251 364 c 128,-1,69
 250 411 250 411 250 459 c 1,70,71
 233 470 233 470 214 477 c 128,-1,72
 195 484 195 484 175 489 c 1,54,55
EndSplineSet
EndChar

StartChar: h
Encoding: 104 104 34
Width: 473
Flags: W
LayerCount: 2
Fore
SplineSet
66 778 m 0,0,1
 89 779 89 779 111 785 c 128,-1,2
 133 791 133 791 154 791 c 0,3,4
 159 791 159 791 163 791 c 128,-1,5
 167 791 167 791 172 790 c 1,6,7
 175 745 175 745 175 701 c 0,8,9
 175 678 175 678 174.5 653.5 c 128,-1,10
 174 629 174 629 174 605 c 0,11,12
 174 591 174 591 174 578 c 128,-1,13
 174 565 174 565 175 551 c 1,14,15
 187 556 187 556 197.5 564 c 128,-1,16
 208 572 208 572 217.5 580.5 c 128,-1,17
 227 589 227 589 237 597 c 128,-1,18
 247 605 247 605 258 611 c 1,19,20
 279 608 279 608 304 600 c 128,-1,21
 329 592 329 592 351 582 c 128,-1,22
 373 572 373 572 388 562 c 128,-1,23
 403 552 403 552 403 544 c 2,24,-1
 403 487 l 1,25,-1
 403 332 l 1,26,-1
 403 275 l 2,27,28
 403 261 403 261 402.5 245.5 c 128,-1,29
 402 230 402 230 402 215 c 0,30,31
 402 174 402 174 405 131 c 1,32,33
 416 126 416 126 427 123 c 128,-1,34
 438 120 438 120 448 115 c 1,35,36
 440 81 440 81 419 53 c 128,-1,37
 398 25 398 25 382 -5 c 1,38,39
 348 2 348 2 316 15 c 128,-1,40
 284 28 284 28 253 43 c 1,41,-1
 253 131 l 1,42,-1
 253 373 l 1,43,-1
 253 461 l 1,44,45
 242 466 242 466 231.5 471.5 c 128,-1,46
 221 477 221 477 210 482 c 1,47,48
 195 472 195 472 180 466 c 1,49,50
 178 433 178 433 176.5 400.5 c 128,-1,51
 175 368 175 368 175 335 c 0,52,53
 175 292 175 292 176 249 c 128,-1,54
 177 206 177 206 177 163 c 2,55,-1
 177 131 l 1,56,57
 181 128 181 128 188.5 125.5 c 128,-1,58
 196 123 196 123 202.5 120.5 c 128,-1,59
 209 118 209 118 214 114.5 c 128,-1,60
 219 111 219 111 219 104 c 0,61,62
 219 89 219 89 208 70.5 c 128,-1,63
 197 52 197 52 183 36 c 0,64,65
 167 17 167 17 147 -2 c 1,66,67
 128 -2 128 -2 107 4.5 c 128,-1,68
 86 11 86 11 68 20 c 128,-1,69
 50 29 50 29 38.5 39.5 c 128,-1,70
 27 50 27 50 27 58 c 2,71,-1
 27 215 l 1,72,-1
 27 496 l 2,73,74
 27 562 27 562 26 625.5 c 128,-1,75
 25 689 25 689 25 755 c 0,76,77
 25 762 25 762 29.5 766.5 c 128,-1,78
 34 771 34 771 40 773 c 128,-1,79
 46 775 46 775 53 776 c 128,-1,80
 60 777 60 777 66 778 c 0,0,1
EndSplineSet
EndChar

StartChar: i
Encoding: 105 105 35
Width: 236
Flags: W
LayerCount: 2
Fore
SplineSet
71 780 m 1,0,1
 106 775 106 775 139 762.5 c 128,-1,2
 172 750 172 750 204 739 c 1,3,4
 202 710 202 710 192 682 c 128,-1,5
 182 654 182 654 170 627 c 1,6,7
 136 628 136 628 103 641 c 128,-1,8
 70 654 70 654 38 663 c 1,9,10
 41 682 41 682 43.5 695.5 c 128,-1,11
 46 709 46 709 49.5 721 c 128,-1,12
 53 733 53 733 58 746.5 c 128,-1,13
 63 760 63 760 71 780 c 1,0,1
60 606 m 1,14,15
 93 606 93 606 123.5 592.5 c 128,-1,16
 154 579 154 579 186 568 c 1,17,18
 191 551 191 551 191 537 c 2,19,-1
 191 516 l 1,20,-1
 191 505 l 1,21,-1
 191 433 l 2,22,23
 191 361 191 361 191.5 288.5 c 128,-1,24
 192 216 192 216 192 144 c 2,25,-1
 192 139 l 2,26,27
 192 130 192 130 198.5 125 c 128,-1,28
 205 120 205 120 213 116.5 c 128,-1,29
 221 113 221 113 227.5 110 c 128,-1,30
 234 107 234 107 234 102 c 0,31,32
 234 92 234 92 226.5 77.5 c 128,-1,33
 219 63 219 63 208.5 47.5 c 128,-1,34
 198 32 198 32 186 18 c 128,-1,35
 174 4 174 4 165 -5 c 1,36,37
 150 -4 150 -4 135.5 0.5 c 128,-1,38
 121 5 121 5 107 10 c 128,-1,39
 93 15 93 15 79 20 c 128,-1,40
 65 25 65 25 50 27 c 1,41,42
 42 48 42 48 42 67 c 2,43,-1
 42 139 l 1,44,-1
 42 273 l 2,45,46
 42 309 42 309 44.5 345 c 128,-1,47
 47 381 47 381 47 417 c 0,48,49
 47 431 47 431 44 446 c 128,-1,50
 41 461 41 461 38 475 c 1,51,52
 25 480 25 480 15.5 489.5 c 128,-1,53
 6 499 6 499 6 511 c 0,54,55
 6 520 6 520 12 532.5 c 128,-1,56
 18 545 18 545 27 558 c 128,-1,57
 36 571 36 571 45 583.5 c 128,-1,58
 54 596 54 596 60 606 c 1,14,15
EndSplineSet
EndChar

StartChar: j
Encoding: 106 106 36
Width: 239
Flags: W
LayerCount: 2
Fore
SplineSet
79 786 m 1,0,1
 146 769 146 769 214 747 c 1,2,3
 208 718 208 718 199 689 c 128,-1,4
 190 660 190 660 179 631 c 1,5,6
 144 637 144 637 110.5 648 c 128,-1,7
 77 659 77 659 44 672 c 1,8,9
 48 702 48 702 58 730.5 c 128,-1,10
 68 759 68 759 79 786 c 1,0,1
65 615 m 1,11,12
 98 609 98 609 129.5 598 c 128,-1,13
 161 587 161 587 191 574 c 1,14,15
 193 542 193 542 193.5 510 c 128,-1,16
 194 478 194 478 194 445 c 2,17,-1
 194 322 l 1,18,-1
 194 274 l 1,19,20
 193 235 193 235 193 195.5 c 128,-1,21
 193 156 193 156 193 118 c 2,22,-1
 193 -53 l 1,23,-1
 193 -149 l 1,24,25
 189 -154 189 -154 169.5 -158 c 128,-1,26
 150 -162 150 -162 126.5 -164.5 c 128,-1,27
 103 -167 103 -167 80.5 -168.5 c 128,-1,28
 58 -170 58 -170 47 -170 c 1,29,30
 46 -136 46 -136 46 -103.5 c 128,-1,31
 46 -71 46 -71 46 -39 c 0,32,33
 46 49 46 49 47.5 130 c 128,-1,34
 49 211 49 211 49 292 c 0,35,36
 49 335 49 335 48 379 c 128,-1,37
 47 423 47 423 46 468 c 1,38,39
 35 478 35 478 22.5 485.5 c 128,-1,40
 10 493 10 493 -1 502 c 1,41,42
 13 533 13 533 30.5 560.5 c 128,-1,43
 48 588 48 588 65 615 c 1,11,12
EndSplineSet
EndChar

StartChar: k
Encoding: 107 107 37
Width: 453
Flags: W
LayerCount: 2
Fore
SplineSet
42 765 m 1,0,1
 69 772 69 772 97.5 776 c 128,-1,2
 126 780 126 780 154 780 c 2,3,-1
 174 780 l 1,4,5
 175 762 175 762 175 744 c 128,-1,6
 175 726 175 726 175 708 c 0,7,8
 175 671 175 671 174.5 634 c 128,-1,9
 174 597 174 597 174 560 c 2,10,-1
 174 537 l 1,11,12
 193 543 193 543 211.5 551.5 c 128,-1,13
 230 560 230 560 248 569 c 128,-1,14
 266 578 266 578 284 587 c 128,-1,15
 302 596 302 596 321 603 c 1,16,17
 326 602 326 602 333.5 592 c 128,-1,18
 341 582 341 582 349.5 566.5 c 128,-1,19
 358 551 358 551 367 531 c 128,-1,20
 376 511 376 511 385 490 c 0,21,22
 405 442 405 442 429 380 c 1,23,24
 429 372 429 372 421 366 c 128,-1,25
 413 360 413 360 401.5 354.5 c 128,-1,26
 390 349 390 349 378.5 343.5 c 128,-1,27
 367 338 367 338 361 333 c 1,28,29
 370 282 370 282 380.5 231 c 128,-1,30
 391 180 391 180 400 129 c 1,31,32
 405 125 405 125 413.5 122.5 c 128,-1,33
 422 120 422 120 430.5 117 c 128,-1,34
 439 114 439 114 445 109.5 c 128,-1,35
 451 105 451 105 451 98 c 0,36,37
 451 90 451 90 443.5 76 c 128,-1,38
 436 62 436 62 425.5 46.5 c 128,-1,39
 415 31 415 31 404.5 16 c 128,-1,40
 394 1 394 1 387 -9 c 1,41,42
 355 2 355 2 323 10 c 128,-1,43
 291 18 291 18 262 38 c 1,44,45
 254 98 254 98 243.5 157 c 128,-1,46
 233 216 233 216 220 275 c 1,47,48
 208 264 208 264 197 259.5 c 128,-1,49
 186 255 186 255 175 240 c 1,50,-1
 175 215 l 1,51,-1
 175 176 l 2,52,53
 175 150 175 150 180 128 c 1,54,55
 192 121 192 121 205 116 c 128,-1,56
 218 111 218 111 231 102 c 1,57,58
 226 92 226 92 216.5 74 c 128,-1,59
 207 56 207 56 196 39 c 128,-1,60
 185 22 185 22 173.5 9 c 128,-1,61
 162 -4 162 -4 153 -4 c 0,62,63
 121 -4 121 -4 90.5 9.5 c 128,-1,64
 60 23 60 23 28 30 c 1,65,66
 27 98 27 98 26 165 c 128,-1,67
 25 232 25 232 25 300 c 0,68,69
 25 356 25 356 26 410 c 128,-1,70
 27 464 27 464 27 519 c 0,71,72
 27 571 27 571 26 622.5 c 128,-1,73
 25 674 25 674 25 726 c 1,74,75
 26 732 26 732 26 738 c 128,-1,76
 26 744 26 744 27 750 c 128,-1,77
 28 756 28 756 31 760 c 128,-1,78
 34 764 34 764 42 765 c 1,0,1
208 482 m 1,79,80
 197 475 197 475 189 470 c 128,-1,81
 181 465 181 465 176 455 c 128,-1,82
 171 445 171 445 168 427 c 128,-1,83
 165 409 165 409 165 377 c 0,84,85
 165 354 165 354 165.5 334 c 128,-1,86
 166 314 166 314 168 306 c 1,87,88
 195 315 195 315 224.5 333 c 128,-1,89
 254 351 254 351 279 362 c 1,90,91
 273 377 273 377 265.5 395.5 c 128,-1,92
 258 414 258 414 249.5 431.5 c 128,-1,93
 241 449 241 449 230.5 463 c 128,-1,94
 220 477 220 477 208 482 c 1,79,80
EndSplineSet
EndChar

StartChar: l
Encoding: 108 108 38
Width: 228
Flags: W
LayerCount: 2
Fore
SplineSet
99 783 m 1,0,1
 109 783 109 783 123 786.5 c 128,-1,2
 137 790 137 790 150 790 c 0,3,4
 160 790 160 790 167 785 c 128,-1,5
 174 780 174 780 174 766 c 0,6,7
 174 713 174 713 173 660 c 128,-1,8
 172 607 172 607 172 553 c 0,9,10
 172 446 172 446 173 340.5 c 128,-1,11
 174 235 174 235 174 127 c 1,12,13
 185 124 185 124 195.5 120.5 c 128,-1,14
 206 117 206 117 217 112 c 1,15,16
 216 95 216 95 209.5 80 c 128,-1,17
 203 65 203 65 193.5 51 c 128,-1,18
 184 37 184 37 173.5 23.5 c 128,-1,19
 163 10 163 10 154 -3 c 1,20,21
 122 6 122 6 91 14.5 c 128,-1,22
 60 23 60 23 30 34 c 1,23,24
 28 54 28 54 26.5 72.5 c 128,-1,25
 25 91 25 91 25 111 c 0,26,27
 25 134 25 134 26 157 c 128,-1,28
 27 180 27 180 27 204 c 2,29,-1
 27 307 l 2,30,31
 27 526 27 526 30 747 c 0,32,33
 30 749 30 749 29 750.5 c 128,-1,34
 28 752 28 752 28 754 c 0,35,36
 28 765 28 765 36 770 c 128,-1,37
 44 775 44 775 55 777.5 c 128,-1,38
 66 780 66 780 78 780.5 c 128,-1,39
 90 781 90 781 99 783 c 1,0,1
EndSplineSet
EndChar

StartChar: m
Encoding: 109 109 39
Width: 724
Flags: W
LayerCount: 2
Fore
SplineSet
507 595 m 0,0,1
 510 597 510 597 514 601.5 c 128,-1,2
 518 606 518 606 523 606 c 256,3,4
 528 606 528 606 529 604 c 1,5,6
 558 595 558 595 585 584 c 128,-1,7
 612 573 612 573 640 562 c 0,8,9
 655 557 655 557 655 543.5 c 128,-1,10
 655 530 655 530 657 517 c 1,11,12
 655 419 655 419 655 321.5 c 128,-1,13
 655 224 655 224 654 126 c 1,14,15
 665 122 665 122 676.5 118 c 128,-1,16
 688 114 688 114 699 111 c 1,17,18
 697 94 697 94 689.5 79.5 c 128,-1,19
 682 65 682 65 672.5 51 c 128,-1,20
 663 37 663 37 652.5 24 c 128,-1,21
 642 11 642 11 634 -3 c 1,22,23
 606 2 606 2 579.5 12 c 128,-1,24
 553 22 553 22 526 31 c 1,25,26
 512 33 512 33 508.5 46 c 128,-1,27
 505 59 505 59 505 70 c 0,28,29
 507 102 507 102 507 134 c 128,-1,30
 507 166 507 166 507 198 c 2,31,-1
 508 466 l 1,32,33
 506 476 506 476 495 476 c 128,-1,34
 484 476 484 476 471 469.5 c 128,-1,35
 458 463 458 463 448 453 c 128,-1,36
 438 443 438 443 438 435 c 2,37,-1
 438 432 l 2,38,39
 438 360 438 360 436.5 289 c 128,-1,40
 435 218 435 218 435 147 c 0,41,42
 435 136 435 136 440 129.5 c 128,-1,43
 445 123 445 123 453 119 c 128,-1,44
 461 115 461 115 470 113 c 128,-1,45
 479 111 479 111 487 109 c 1,46,47
 471 80 471 80 454.5 50.5 c 128,-1,48
 438 21 438 21 415 -5 c 1,49,50
 348 8 348 8 288 37 c 1,51,52
 289 132 289 132 288.5 225.5 c 128,-1,53
 288 319 288 319 289 414 c 0,54,55
 289 426 289 426 288.5 438.5 c 128,-1,56
 288 451 288 451 283 463 c 1,57,58
 276 471 276 471 266 472 c 128,-1,59
 256 473 256 473 247 477 c 1,60,61
 237 466 237 466 228 456 c 128,-1,62
 219 446 219 446 219 430 c 0,63,64
 219 405 219 405 218.5 363 c 128,-1,65
 218 321 218 321 218 279 c 0,66,67
 217 231 217 231 217 177 c 0,68,69
 217 145 217 145 223.5 134.5 c 128,-1,70
 230 124 230 124 238 122 c 128,-1,71
 246 120 246 120 254.5 118.5 c 128,-1,72
 263 117 263 117 267 102 c 1,73,74
 250 75 250 75 234 46.5 c 128,-1,75
 218 18 218 18 195 -3 c 1,76,77
 132 12 132 12 72 39 c 1,78,79
 72 146 72 146 72.5 252.5 c 128,-1,80
 73 359 73 359 73 468 c 1,81,82
 62 477 62 477 50 484 c 128,-1,83
 38 491 38 491 25 498 c 1,84,85
 29 510 29 510 38.5 527.5 c 128,-1,86
 48 545 48 545 59 562 c 128,-1,87
 70 579 70 579 80 591 c 128,-1,88
 90 603 90 603 96 603 c 0,89,90
 108 603 108 603 123 599 c 128,-1,91
 138 595 138 595 154.5 589.5 c 128,-1,92
 171 584 171 584 187 578 c 128,-1,93
 203 572 203 572 217 568 c 1,94,95
 219 563 219 563 219 552.5 c 128,-1,96
 219 542 219 542 220 535 c 1,97,98
 246 548 246 548 265 569.5 c 128,-1,99
 284 591 284 591 307 607 c 1,100,101
 338 596 338 596 368 585 c 128,-1,102
 398 574 398 574 429 564 c 1,103,104
 432 557 432 557 435.5 549.5 c 128,-1,105
 439 542 439 542 442 534 c 1,106,107
 458 550 458 550 473.5 565.5 c 128,-1,108
 489 581 489 581 507 595 c 0,0,1
EndSplineSet
EndChar

StartChar: n
Encoding: 110 110 40
Width: 479
Flags: W
LayerCount: 2
Fore
SplineSet
51 567 m 1,0,1
 55 572 55 572 59 579 c 128,-1,2
 63 586 63 586 67.5 593 c 128,-1,3
 72 600 72 600 78 604.5 c 128,-1,4
 84 609 84 609 91 609 c 0,5,6
 101 609 101 609 116 605.5 c 128,-1,7
 131 602 131 602 146.5 597 c 128,-1,8
 162 592 162 592 177 586.5 c 128,-1,9
 192 581 192 581 202 576 c 1,10,11
 207 567 207 567 209.5 558.5 c 128,-1,12
 212 550 212 550 214 540 c 1,13,14
 234 558 234 558 252 578.5 c 128,-1,15
 270 599 270 599 294 610 c 1,16,17
 313 607 313 607 337.5 599.5 c 128,-1,18
 362 592 362 592 384 582.5 c 128,-1,19
 406 573 406 573 421 561.5 c 128,-1,20
 436 550 436 550 436 540 c 0,21,22
 436 511 436 511 437 483.5 c 128,-1,23
 438 456 438 456 438 427 c 0,24,25
 438 382 438 382 437 337 c 128,-1,26
 436 292 436 292 436 246 c 0,27,28
 436 217 436 217 436 189.5 c 128,-1,29
 436 162 436 162 438 133 c 1,30,31
 448 128 448 128 458 123 c 128,-1,32
 468 118 468 118 478 112 c 1,33,34
 467 82 467 82 451 53 c 128,-1,35
 435 24 435 24 415 -2 c 1,36,37
 399 2 399 2 377 7.5 c 128,-1,38
 355 13 355 13 334.5 20.5 c 128,-1,39
 314 28 314 28 300 39 c 128,-1,40
 286 50 286 50 286 66 c 0,41,42
 286 85 286 85 287 104 c 128,-1,43
 288 123 288 123 288 142 c 0,44,45
 288 192 288 192 287 240.5 c 128,-1,46
 286 289 286 289 286 339 c 0,47,48
 286 360 286 360 287 382 c 128,-1,49
 288 404 288 404 288 426 c 0,50,51
 288 445 288 445 283 455.5 c 128,-1,52
 278 466 278 466 269 471 c 128,-1,53
 260 476 260 476 248 476.5 c 128,-1,54
 236 477 236 477 223 477 c 1,55,56
 218 463 218 463 214 449.5 c 128,-1,57
 210 436 210 436 210 421 c 0,58,59
 210 398 210 398 210.5 376 c 128,-1,60
 211 354 211 354 211 331 c 0,61,62
 211 296 211 296 210.5 261.5 c 128,-1,63
 210 227 210 227 210 192 c 0,64,65
 210 176 210 176 210 160.5 c 128,-1,66
 210 145 210 145 211 129 c 1,67,68
 214 128 214 128 221 126 c 128,-1,69
 228 124 228 124 235 121.5 c 128,-1,70
 242 119 242 119 247 116.5 c 128,-1,71
 252 114 252 114 252 112 c 0,72,73
 252 98 252 98 244.5 80 c 128,-1,74
 237 62 237 62 226.5 45.5 c 128,-1,75
 216 29 216 29 204.5 15.5 c 128,-1,76
 193 2 193 2 186 -3 c 1,77,78
 152 4 152 4 121 15 c 128,-1,79
 90 26 90 26 60 40 c 1,80,-1
 60 132 l 1,81,-1
 60 381 l 1,82,-1
 60 472 l 1,83,84
 55 475 55 475 47.5 478 c 128,-1,85
 40 481 40 481 33 485 c 128,-1,86
 26 489 26 489 21 493 c 128,-1,87
 16 497 16 497 16 502 c 0,88,89
 16 521 16 521 30 536 c 128,-1,90
 44 551 44 551 51 567 c 1,0,1
EndSplineSet
EndChar

StartChar: o
Encoding: 111 111 41
Width: 424
Flags: W
LayerCount: 2
Fore
SplineSet
169 602 m 0,0,1
 180 607 180 607 191 611.5 c 128,-1,2
 202 616 202 616 214 616 c 0,3,4
 218 616 218 616 222 615 c 128,-1,5
 226 614 226 614 231 613 c 0,6,7
 274 598 274 598 315.5 581.5 c 128,-1,8
 357 565 357 565 399 547 c 1,9,-1
 399 410 l 2,10,11
 399 326 399 326 399 244.5 c 128,-1,12
 399 163 399 163 397 80 c 1,13,14
 356 59 356 59 315 38 c 128,-1,15
 274 17 274 17 229 -1 c 0,16,17
 221 -5 221 -5 213 -5 c 0,18,19
 201 -5 201 -5 178 3 c 128,-1,20
 155 11 155 11 129 21.5 c 128,-1,21
 103 32 103 32 75.5 43.5 c 128,-1,22
 48 55 48 55 27 62 c 1,23,24
 25 107 25 107 25 149.5 c 128,-1,25
 25 192 25 192 25 236 c 2,26,-1
 25 427 l 1,27,-1
 25 533 l 1,28,29
 60 553 60 553 96.5 568.5 c 128,-1,30
 133 584 133 584 169 602 c 0,0,1
177 485 m 1,31,32
 175 442 175 442 175 400.5 c 128,-1,33
 175 359 175 359 175 316 c 2,34,-1
 175 148 l 1,35,36
 195 140 195 140 213.5 133 c 128,-1,37
 232 126 232 126 252 121 c 1,38,39
 252 215 252 215 252 294.5 c 128,-1,40
 252 374 252 374 253 458 c 1,41,42
 239 466 239 466 222 477 c 128,-1,43
 205 488 205 488 187 488 c 0,44,45
 181 488 181 488 177 485 c 1,31,32
EndSplineSet
EndChar

StartChar: p
Encoding: 112 112 42
Width: 455
Flags: W
LayerCount: 2
Fore
SplineSet
69 596 m 1,0,1
 76 600 76 600 82 602 c 1,2,3
 113 595 113 595 142.5 586 c 128,-1,4
 172 577 172 577 201 568 c 1,5,6
 202 562 202 562 203 552 c 128,-1,7
 204 542 204 542 205 535 c 1,8,9
 225 551 225 551 242.5 568 c 128,-1,10
 260 585 260 585 282 599 c 0,11,12
 287 602 287 602 304 597 c 128,-1,13
 321 592 321 592 343 582.5 c 128,-1,14
 365 573 365 573 388.5 562.5 c 128,-1,15
 412 552 412 552 429 545 c 1,16,17
 430 482 430 482 431 419 c 128,-1,18
 432 356 432 356 432 292 c 0,19,20
 432 240 432 240 431 188.5 c 128,-1,21
 430 137 430 137 429 85 c 1,22,23
 412 67 412 67 390 56 c 128,-1,24
 368 45 368 45 348 32 c 1,25,26
 328 21 328 21 310.5 9 c 128,-1,27
 293 -3 293 -3 273 -8 c 1,28,29
 255 -3 255 -3 238 5 c 128,-1,30
 221 13 221 13 204 20 c 1,31,32
 202 8 202 8 202 -5 c 128,-1,33
 202 -18 202 -18 202 -31 c 2,34,-1
 202 -85 l 2,35,36
 202 -96 202 -96 203 -109 c 128,-1,37
 204 -122 204 -122 202.5 -134 c 128,-1,38
 201 -146 201 -146 195.5 -155.5 c 128,-1,39
 190 -165 190 -165 178 -167 c 0,40,41
 153 -172 153 -172 128 -174.5 c 128,-1,42
 103 -177 103 -177 78 -182 c 1,43,44
 74 -181 74 -181 68 -178 c 128,-1,45
 62 -175 62 -175 57 -173 c 1,46,-1
 57 -14 l 1,47,-1
 57 65 l 1,48,49
 44 72 44 72 32 78.5 c 128,-1,50
 20 85 20 85 7 91 c 1,51,52
 7 106 7 106 15 116.5 c 128,-1,53
 23 127 23 127 32.5 136.5 c 128,-1,54
 42 146 42 146 50 156.5 c 128,-1,55
 58 167 58 167 58 182 c 2,56,-1
 58 248 l 1,57,-1
 58 365 l 2,58,59
 58 391 58 391 58 418 c 128,-1,60
 58 445 58 445 57 472 c 1,61,62
 44 477 44 477 32 482.5 c 128,-1,63
 20 488 20 488 7 493 c 1,64,65
 20 521 20 521 36 546 c 128,-1,66
 52 571 52 571 69 596 c 1,0,1
226 467 m 0,67,68
 212 462 212 462 210 447.5 c 128,-1,69
 208 433 208 433 204 422 c 1,70,71
 205 390 205 390 204 352 c 128,-1,72
 203 314 203 314 202.5 276 c 128,-1,73
 202 238 202 238 203 204 c 128,-1,74
 204 170 204 170 210 148 c 1,75,76
 228 140 228 140 246 132 c 128,-1,77
 264 124 264 124 282 116 c 1,78,79
 287 188 287 188 285 259 c 128,-1,80
 283 330 283 330 283 403 c 2,81,-1
 283 413 l 1,82,-1
 270 460 l 1,83,84
 262 462 262 462 254 466 c 128,-1,85
 246 470 246 470 238 470 c 0,86,87
 235 470 235 470 232.5 469.5 c 128,-1,88
 230 469 230 469 226 467 c 0,67,68
EndSplineSet
EndChar

StartChar: q
Encoding: 113 113 43
Width: 427
Flags: W
LayerCount: 2
Fore
SplineSet
33 534 m 1,0,1
 76 557 76 557 120 577.5 c 128,-1,2
 164 598 164 598 208 620 c 1,3,4
 230 614 230 614 263 602.5 c 128,-1,5
 296 591 296 591 327 578.5 c 128,-1,6
 358 566 358 566 380 554.5 c 128,-1,7
 402 543 402 543 402 536 c 0,8,9
 402 366 402 366 401 198.5 c 128,-1,10
 400 31 400 31 400 -138 c 0,11,12
 400 -146 400 -146 384.5 -152 c 128,-1,13
 369 -158 369 -158 346.5 -162.5 c 128,-1,14
 324 -167 324 -167 299.5 -169.5 c 128,-1,15
 275 -172 275 -172 258 -172 c 1,16,17
 254 -147 254 -147 252 -122.5 c 128,-1,18
 250 -98 250 -98 250 -73 c 0,19,20
 250 -38 250 -38 252.5 -2.5 c 128,-1,21
 255 33 255 33 256 69 c 1,22,23
 233 57 233 57 214.5 36 c 128,-1,24
 196 15 196 15 177 -3 c 1,25,26
 139 8 139 8 103 23.5 c 128,-1,27
 67 39 67 39 30 53 c 1,28,29
 28 61 28 61 27.5 68.5 c 128,-1,30
 27 76 27 76 25 83 c 1,31,32
 27 128 27 128 27.5 172 c 128,-1,33
 28 216 28 216 28 261 c 2,34,-1
 28 470 l 2,35,36
 28 484 28 484 27.5 503 c 128,-1,37
 27 522 27 522 33 534 c 1,0,1
175 486 m 1,38,39
 174 404 174 404 174 322 c 128,-1,40
 174 240 174 240 174 158 c 0,41,42
 174 149 174 149 179.5 144 c 128,-1,43
 185 139 185 139 193 137 c 128,-1,44
 201 135 201 135 210 134 c 128,-1,45
 219 133 219 133 225 132 c 1,46,47
 240 143 240 143 246 156.5 c 128,-1,48
 252 170 252 170 253.5 185.5 c 128,-1,49
 255 201 255 201 254 217 c 128,-1,50
 253 233 253 233 253 248 c 0,51,52
 253 280 253 280 252.5 312 c 128,-1,53
 252 344 252 344 252 377 c 0,54,55
 252 397 252 397 252 416.5 c 128,-1,56
 252 436 252 436 253 456 c 1,57,58
 235 467 235 467 216 475 c 128,-1,59
 197 483 197 483 175 486 c 1,38,39
EndSplineSet
EndChar

StartChar: r
Encoding: 114 114 44
Width: 402
Flags: W
LayerCount: 2
Fore
SplineSet
193 533 m 1,0,1
 206 545 206 545 217.5 559 c 128,-1,2
 229 573 229 573 241 586.5 c 128,-1,3
 253 600 253 600 266 612.5 c 128,-1,4
 279 625 279 625 295 634 c 1,5,6
 318 580 318 580 335.5 524.5 c 128,-1,7
 353 469 353 469 373 413 c 0,8,9
 374 410 374 410 375 406.5 c 128,-1,10
 376 403 376 403 376 401 c 0,11,12
 376 394 376 394 363 377.5 c 128,-1,13
 350 361 350 361 331.5 343.5 c 128,-1,14
 313 326 313 326 293 313 c 128,-1,15
 273 300 273 300 260 299 c 1,16,17
 251 318 251 318 245 337.5 c 128,-1,18
 239 357 239 357 234 377.5 c 128,-1,19
 229 398 229 398 223 418 c 128,-1,20
 217 438 217 438 208 457 c 1,21,-1
 199 458 l 1,22,23
 193 437 193 437 191.5 397.5 c 128,-1,24
 190 358 190 358 190.5 314 c 128,-1,25
 191 270 191 270 192 228 c 128,-1,26
 193 186 193 186 193 160 c 1,27,28
 234 147 234 147 275.5 138.5 c 128,-1,29
 317 130 317 130 358 116 c 1,30,31
 347 81 347 81 324.5 51.5 c 128,-1,32
 302 22 302 22 278 -4 c 1,33,34
 219 13 219 13 158 25.5 c 128,-1,35
 97 38 97 38 43 65 c 1,36,37
 43 100 43 100 42 135 c 128,-1,38
 41 170 41 170 41 205 c 0,39,40
 41 275 41 275 42 345 c 128,-1,41
 43 415 43 415 43 485 c 1,42,43
 40 486 40 486 33 488.5 c 128,-1,44
 26 491 26 491 19 494 c 128,-1,45
 12 497 12 497 7 500 c 128,-1,46
 2 503 2 503 2 505 c 0,47,48
 2 522 2 522 8.5 536.5 c 128,-1,49
 15 551 15 551 24.5 564.5 c 128,-1,50
 34 578 34 578 45 590.5 c 128,-1,51
 56 603 56 603 65 617 c 1,52,53
 96 610 96 610 125.5 601 c 128,-1,54
 155 592 155 592 184 580 c 1,55,56
 187 569 187 569 189 556.5 c 128,-1,57
 191 544 191 544 193 533 c 1,0,1
EndSplineSet
EndChar

StartChar: s
Encoding: 115 115 45
Width: 424
Flags: W
LayerCount: 2
Fore
SplineSet
32 538 m 1,0,1
 73 562 73 562 115.5 581.5 c 128,-1,2
 158 601 158 601 199 624 c 1,3,4
 250 609 250 609 299 595 c 128,-1,5
 348 581 348 581 398 567 c 1,6,7
 397 550 397 550 391 535.5 c 128,-1,8
 385 521 385 521 377 507 c 128,-1,9
 369 493 369 493 360 479 c 128,-1,10
 351 465 351 465 344 451 c 1,11,12
 322 452 322 452 301.5 458.5 c 128,-1,13
 281 465 281 465 261 473 c 128,-1,14
 241 481 241 481 220.5 487.5 c 128,-1,15
 200 494 200 494 178 496 c 1,16,17
 176 464 176 464 176 432.5 c 128,-1,18
 176 401 176 401 176 369 c 1,19,20
 185 365 185 365 194 361 c 128,-1,21
 203 357 203 357 212 354 c 1,22,23
 226 371 226 371 239 387 c 128,-1,24
 252 403 252 403 266 420 c 1,25,26
 301 405 301 405 336 390 c 128,-1,27
 371 375 371 375 403 355 c 1,28,29
 404 327 404 327 405 300 c 128,-1,30
 406 273 406 273 406 246 c 0,31,32
 406 204 406 204 405 163 c 128,-1,33
 404 122 404 122 404 81 c 1,34,35
 361 58 361 58 316.5 37 c 128,-1,36
 272 16 272 16 227 -3 c 1,37,38
 197 -3 197 -3 167 7.5 c 128,-1,39
 137 18 137 18 109 27 c 0,40,41
 82 35 82 35 54 42 c 128,-1,42
 26 49 26 49 2 66 c 1,43,44
 9 79 9 79 20.5 97 c 128,-1,45
 32 115 32 115 44 131.5 c 128,-1,46
 56 148 56 148 66.5 160 c 128,-1,47
 77 172 77 172 83 175 c 1,48,49
 128 163 128 163 171 144.5 c 128,-1,50
 214 126 214 126 259 115 c 1,51,52
 259 139 259 139 259.5 162.5 c 128,-1,53
 260 186 260 186 260 210 c 0,54,55
 260 219 260 219 260.5 230.5 c 128,-1,56
 261 242 261 242 259 251.5 c 128,-1,57
 257 261 257 261 251 267.5 c 128,-1,58
 245 274 245 274 233 274 c 0,59,60
 224 274 224 274 216 267.5 c 128,-1,61
 208 261 208 261 200.5 252 c 128,-1,62
 193 243 193 243 186 234 c 128,-1,63
 179 225 179 225 170 220 c 1,64,65
 132 228 132 228 99 247.5 c 128,-1,66
 66 267 66 267 31 283 c 1,67,68
 31 321 31 321 30 359.5 c 128,-1,69
 29 398 29 398 29 436 c 0,70,71
 29 462 29 462 29.5 487 c 128,-1,72
 30 512 30 512 32 538 c 1,0,1
EndSplineSet
EndChar

StartChar: t
Encoding: 116 116 46
Width: 257
Flags: W
LayerCount: 2
Fore
SplineSet
46 747 m 1,0,1
 62 757 62 757 80.5 762.5 c 128,-1,2
 99 768 99 768 118 770 c 128,-1,3
 137 772 137 772 156.5 772.5 c 128,-1,4
 176 773 176 773 195 774 c 1,5,6
 196 756 196 756 196 737 c 128,-1,7
 196 718 196 718 196 700 c 2,8,-1
 196 640 l 2,9,10
 196 626 196 626 196 612.5 c 128,-1,11
 196 599 196 599 198 585 c 1,12,13
 207 586 207 586 216.5 587 c 128,-1,14
 226 588 226 588 237 589 c 1,15,16
 240 581 240 581 242 573 c 128,-1,17
 244 565 244 565 244 556 c 0,18,19
 244 544 244 544 240.5 531 c 128,-1,20
 237 518 237 518 235 504 c 1,21,22
 225 502 225 502 216 501.5 c 128,-1,23
 207 501 207 501 196 499 c 1,24,25
 198 408 198 408 198 317.5 c 128,-1,26
 198 227 198 227 198 136 c 0,27,28
 198 125 198 125 204 122 c 128,-1,29
 210 119 210 119 217.5 116 c 128,-1,30
 225 113 225 113 231.5 107 c 128,-1,31
 238 101 238 101 238 84 c 1,32,33
 221 62 221 62 208 37.5 c 128,-1,34
 195 13 195 13 174 -5 c 1,35,36
 142 -1 142 -1 114 11 c 128,-1,37
 86 23 86 23 55 31 c 1,38,39
 53 74 53 74 52.5 116.5 c 128,-1,40
 52 159 52 159 52 202 c 2,41,-1
 52 390 l 1,42,-1
 52 495 l 1,43,44
 43 496 43 496 34 496.5 c 128,-1,45
 25 497 25 497 18.5 499 c 128,-1,46
 12 501 12 501 8 507 c 128,-1,47
 4 513 4 513 4 525 c 0,48,49
 4 539 4 539 6 554.5 c 128,-1,50
 8 570 8 570 10 585 c 1,51,52
 20 585 20 585 25 584 c 128,-1,53
 30 583 30 583 33.5 585 c 128,-1,54
 37 587 37 587 40.5 592.5 c 128,-1,55
 44 598 44 598 51 612 c 1,56,57
 50 644 50 644 51 666.5 c 128,-1,58
 52 689 52 689 52 704.5 c 128,-1,59
 52 720 52 720 51 729.5 c 128,-1,60
 50 739 50 739 46 747 c 1,0,1
EndSplineSet
EndChar

StartChar: u
Encoding: 117 117 47
Width: 465
Flags: W
LayerCount: 2
Fore
SplineSet
65 611 m 1,0,1
 98 606 98 606 128 594.5 c 128,-1,2
 158 583 158 583 187 570 c 1,3,4
 189 563 189 563 189 532 c 128,-1,5
 189 501 189 501 189 457 c 128,-1,6
 189 413 189 413 188.5 362.5 c 128,-1,7
 188 312 188 312 188 266 c 128,-1,8
 188 220 188 220 189.5 184 c 128,-1,9
 191 148 191 148 194 135 c 0,10,11
 196 124 196 124 204.5 122 c 128,-1,12
 213 120 213 120 220 123 c 0,13,14
 234 129 234 129 248.5 135 c 128,-1,15
 263 141 263 141 266 158 c 1,16,17
 270 236 270 236 268 314 c 128,-1,18
 266 392 266 392 266 470 c 1,19,20
 255 478 255 478 241 483.5 c 128,-1,21
 227 489 227 489 221 503 c 1,22,23
 230 530 230 530 247 553.5 c 128,-1,24
 264 577 264 577 278 603 c 1,25,26
 351 608 351 608 413 569 c 1,27,28
 420 531 420 531 417 492.5 c 128,-1,29
 414 454 414 454 416 414 c 0,30,31
 421 345 421 345 417.5 276 c 128,-1,32
 414 207 414 207 418 137 c 1,33,34
 426 124 426 124 440.5 121 c 128,-1,35
 455 118 455 118 466 111 c 1,36,37
 457 83 457 83 440 58.5 c 128,-1,38
 423 34 423 34 406 9 c 1,39,40
 401 -1 401 -1 391.5 1 c 128,-1,41
 382 3 382 3 373 5 c 0,42,43
 349 12 349 12 325.5 19.5 c 128,-1,44
 302 27 302 27 278 35 c 1,45,46
 277 40 277 40 274 49 c 128,-1,47
 271 58 271 58 269 63 c 1,48,49
 248 49 248 49 229.5 31 c 128,-1,50
 211 13 211 13 188 -1 c 1,51,52
 153 6 153 6 120.5 21.5 c 128,-1,53
 88 37 88 37 53 45 c 1,54,55
 44 78 44 78 45.5 111.5 c 128,-1,56
 47 145 47 145 46 177 c 1,57,58
 46 249 46 249 45 321 c 128,-1,59
 44 393 44 393 44 465 c 1,60,61
 35 472 35 472 25.5 478.5 c 128,-1,62
 16 485 16 485 5 491 c 1,63,64
 6 508 6 508 12 523.5 c 128,-1,65
 18 539 18 539 27 554 c 128,-1,66
 36 569 36 569 46 583 c 128,-1,67
 56 597 56 597 65 611 c 1,0,1
EndSplineSet
EndChar

StartChar: v
Encoding: 118 118 48
Width: 445
Flags: W
LayerCount: 2
Fore
SplineSet
42 564 m 1,0,1
 50 574 50 574 58.5 586.5 c 128,-1,2
 67 599 67 599 83 594 c 0,3,4
 110 587 110 587 136.5 580 c 128,-1,5
 163 573 163 573 188 561 c 1,6,7
 190 557 190 557 192 551.5 c 128,-1,8
 194 546 194 546 195 543 c 1,9,10
 199 543 199 543 204.5 543.5 c 128,-1,11
 210 544 210 544 213 544 c 1,12,13
 228 557 228 557 242 571 c 128,-1,14
 256 585 256 585 273 595 c 1,15,16
 291 593 291 593 308 587.5 c 128,-1,17
 325 582 325 582 341.5 575 c 128,-1,18
 358 568 358 568 374.5 561 c 128,-1,19
 391 554 391 554 408 550 c 1,20,-1
 420 534 l 1,21,22
 415 415 415 415 416.5 299 c 128,-1,23
 418 183 418 183 413 64 c 1,24,25
 377 46 377 46 339.5 26 c 128,-1,26
 302 6 302 6 257 -14 c 0,27,28
 246 -19 246 -19 235.5 -16.5 c 128,-1,29
 225 -14 225 -14 216 -12 c 0,30,31
 173 2 173 2 132.5 16.5 c 128,-1,32
 92 31 92 31 50 43 c 1,33,34
 45 147 45 147 46.5 251 c 128,-1,35
 48 355 48 355 48 459 c 1,36,37
 37 468 37 468 21.5 473.5 c 128,-1,38
 6 479 6 479 0 493 c 1,39,40
 6 513 6 513 19 530 c 128,-1,41
 32 547 32 547 42 564 c 1,0,1
230 469 m 1,42,43
 213 464 213 464 201.5 449.5 c 128,-1,44
 190 435 190 435 192 417 c 1,45,46
 191 345 191 345 191.5 273.5 c 128,-1,47
 192 202 192 202 194 130 c 1,48,49
 213 122 213 122 232 115.5 c 128,-1,50
 251 109 251 109 270 102 c 1,51,52
 270 191 270 191 271 279.5 c 128,-1,53
 272 368 272 368 267 457 c 1,54,55
 247 465 247 465 230 469 c 1,42,43
EndSplineSet
EndChar

StartChar: w
Encoding: 119 119 49
Width: 658
Flags: W
LayerCount: 2
Fore
SplineSet
55 611 m 1,0,1
 88 604 88 604 121 595 c 128,-1,2
 154 586 154 586 184 572 c 1,3,4
 186 567 186 567 188 557.5 c 128,-1,5
 190 548 190 548 192 542 c 1,6,7
 211 557 211 557 228.5 574 c 128,-1,8
 246 591 246 591 265 605 c 0,9,10
 278 614 278 614 291 607.5 c 128,-1,11
 304 601 304 601 316 598 c 1,12,13
 328 592 328 592 342 588 c 128,-1,14
 356 584 356 584 368.5 579 c 128,-1,15
 381 574 381 574 392.5 566 c 128,-1,16
 404 558 404 558 412 545 c 1,17,18
 434 559 434 559 451.5 577 c 128,-1,19
 469 595 469 595 490 610 c 1,20,21
 506 611 506 611 521 604 c 128,-1,22
 536 597 536 597 550 592 c 1,23,24
 568 584 568 584 586.5 577.5 c 128,-1,25
 605 571 605 571 621 559 c 1,26,27
 629 505 629 505 630.5 455.5 c 128,-1,28
 632 406 632 406 630 352.5 c 128,-1,29
 628 299 628 299 625 238 c 128,-1,30
 622 177 622 177 621 100 c 1,31,32
 610 89 610 89 597 81 c 128,-1,33
 584 73 584 73 570 65 c 0,34,35
 539 48 539 48 510 30 c 128,-1,36
 481 12 481 12 448 -1 c 1,37,38
 414 13 414 13 381 27.5 c 128,-1,39
 348 42 348 42 313 53 c 1,40,41
 298 51 298 51 285.5 43 c 128,-1,42
 273 35 273 35 261 26 c 128,-1,43
 249 17 249 17 236 9.5 c 128,-1,44
 223 2 223 2 208 1 c 1,45,46
 167 15 167 15 128.5 32.5 c 128,-1,47
 90 50 90 50 51 67 c 1,48,49
 40 84 40 84 42 106 c 128,-1,50
 44 128 44 128 42 148 c 1,51,52
 43 229 43 229 42.5 310.5 c 128,-1,53
 42 392 42 392 42 473 c 1,54,55
 33 479 33 479 23 484 c 128,-1,56
 13 489 13 489 3 494 c 1,57,58
 0 512 0 512 5 527 c 128,-1,59
 10 542 10 542 18.5 556 c 128,-1,60
 27 570 27 570 37.5 583.5 c 128,-1,61
 48 597 48 597 55 611 c 1,0,1
196 466 m 1,62,63
 195 462 195 462 192 456 c 128,-1,64
 189 450 189 450 187 445 c 1,65,66
 187 369 187 369 186 294 c 128,-1,67
 185 219 185 219 190 143 c 1,68,69
 208 138 208 138 225 131.5 c 128,-1,70
 242 125 242 125 259 118 c 1,71,72
 261 205 261 205 260 291 c 128,-1,73
 259 377 259 377 259 464 c 1,74,75
 247 484 247 484 229.5 480.5 c 128,-1,76
 212 477 212 477 196 466 c 1,62,63
403 436 m 1,77,78
 407 377 407 377 406 319.5 c 128,-1,79
 405 262 405 262 405 205 c 1,80,81
 407 191 407 191 405.5 176.5 c 128,-1,82
 404 162 404 162 412 149 c 1,83,84
 427 139 427 139 444 132.5 c 128,-1,85
 461 126 461 126 478 118 c 1,86,87
 480 188 480 188 478 256.5 c 128,-1,88
 476 325 476 325 478 395 c 1,89,90
 477 407 477 407 477.5 419 c 128,-1,91
 478 431 478 431 477 443 c 128,-1,92
 476 455 476 455 472.5 466 c 128,-1,93
 469 477 469 477 460 487 c 1,94,95
 437 485 437 485 424.5 469.5 c 128,-1,96
 412 454 412 454 403 436 c 1,77,78
EndSplineSet
EndChar

StartChar: x
Encoding: 120 120 50
Width: 410
Flags: W
LayerCount: 2
Fore
SplineSet
205 531 m 1,0,1
 228 555 228 555 252 579 c 128,-1,2
 276 603 276 603 302 626 c 1,3,4
 315 612 315 612 321 596 c 128,-1,5
 327 580 327 580 332 563 c 0,6,7
 341 525 341 525 353.5 490 c 128,-1,8
 366 455 366 455 380 420 c 0,9,10
 385 410 385 410 385 397.5 c 128,-1,11
 385 385 385 385 376 378 c 0,12,13
 350 355 350 355 325 332.5 c 128,-1,14
 300 310 300 310 274 287 c 1,15,16
 254 324 254 324 244.5 364.5 c 128,-1,17
 235 405 235 405 223 446 c 1,18,19
 219 446 219 446 212 446 c 128,-1,20
 205 446 205 446 200 444 c 1,21,22
 200 371 200 371 198 297.5 c 128,-1,23
 196 224 196 224 202 150 c 1,24,25
 244 141 244 141 285 133.5 c 128,-1,26
 326 126 326 126 368 116 c 1,27,28
 357 82 357 82 336.5 52 c 128,-1,29
 316 22 316 22 296 -7 c 1,30,31
 274 -1 274 -1 252 6.5 c 128,-1,32
 230 14 230 14 207.5 19.5 c 128,-1,33
 185 25 185 25 162 26 c 128,-1,34
 139 27 139 27 116 21 c 0,35,36
 93 14 93 14 85 -7.5 c 128,-1,37
 77 -29 77 -29 80 -51 c 1,38,39
 90 -59 90 -59 102 -67 c 128,-1,40
 114 -75 114 -75 127 -79.5 c 128,-1,41
 140 -84 140 -84 153 -84.5 c 128,-1,42
 166 -85 166 -85 179 -79 c 1,43,44
 193 -76 193 -76 198.5 -65 c 128,-1,45
 204 -54 204 -54 209 -43 c 1,46,47
 245 -45 245 -45 280 -53.5 c 128,-1,48
 315 -62 315 -62 349 -75 c 1,49,50
 342 -94 342 -94 332 -112.5 c 128,-1,51
 322 -131 322 -131 304 -144 c 0,52,53
 275 -165 275 -165 238.5 -172.5 c 128,-1,54
 202 -180 202 -180 166 -175.5 c 128,-1,55
 130 -171 130 -171 97.5 -153.5 c 128,-1,56
 65 -136 65 -136 44 -106 c 0,57,58
 19 -71 19 -71 16.5 -27.5 c 128,-1,59
 14 16 14 16 22 57 c 0,60,61
 24 70 24 70 30 82.5 c 128,-1,62
 36 95 36 95 42 107.5 c 128,-1,63
 48 120 48 120 52 133 c 128,-1,64
 56 146 56 146 55 161 c 1,65,66
 55 239 55 239 54 317 c 128,-1,67
 53 395 53 395 52 473 c 1,68,69
 41 478 41 478 31.5 482.5 c 128,-1,70
 22 487 22 487 11 492 c 1,71,72
 11 509 11 509 16.5 524 c 128,-1,73
 22 539 22 539 30.5 552.5 c 128,-1,74
 39 566 39 566 48 579 c 128,-1,75
 57 592 57 592 64 606 c 1,76,77
 75 606 75 606 86 606 c 128,-1,78
 97 606 97 606 106 600 c 1,79,80
 115 597 115 597 124 595 c 128,-1,81
 133 593 133 593 142 591 c 0,82,83
 154 588 154 588 166.5 584 c 128,-1,84
 179 580 179 580 191 575 c 1,85,86
 196 564 196 564 198.5 553 c 128,-1,87
 201 542 201 542 205 531 c 1,0,1
EndSplineSet
EndChar

StartChar: y
Encoding: 121 121 51
Width: 447
Flags: W
LayerCount: 2
Fore
SplineSet
285 616 m 1,0,1
 320 602 320 602 355.5 589 c 128,-1,2
 391 576 391 576 423 558 c 1,3,4
 422 420 422 420 422.5 284 c 128,-1,5
 423 148 423 148 422 10 c 1,6,7
 386 -36 386 -36 349 -81 c 128,-1,8
 312 -126 312 -126 276 -173 c 1,9,10
 230 -174 230 -174 185 -169.5 c 128,-1,11
 140 -165 140 -165 93 -165 c 1,12,13
 82 -163 82 -163 70 -164 c 128,-1,14
 58 -165 58 -165 50 -155 c 1,15,16
 58 -124 58 -124 71 -96 c 128,-1,17
 84 -68 84 -68 98 -39 c 1,18,19
 126 -34 126 -34 154.5 -37.5 c 128,-1,20
 183 -41 183 -41 212 -42 c 0,21,22
 220 -42 220 -42 228.5 -43.5 c 128,-1,23
 237 -45 237 -45 245 -45.5 c 128,-1,24
 253 -46 253 -46 261 -44 c 128,-1,25
 269 -42 269 -42 275 -36 c 1,26,27
 276 41 276 41 277 117 c 128,-1,28
 278 193 278 193 276 270 c 0,29,30
 275 318 275 318 276 365 c 128,-1,31
 277 412 277 412 270 460 c 1,32,33
 267 468 267 468 261.5 471.5 c 128,-1,34
 256 475 256 475 248.5 476.5 c 128,-1,35
 241 478 241 478 233 478 c 128,-1,36
 225 478 225 478 218 478 c 1,37,38
 212 468 212 468 206.5 457.5 c 128,-1,39
 201 447 201 447 195 436 c 1,40,41
 193 402 193 402 192.5 364 c 128,-1,42
 192 326 192 326 192.5 287 c 128,-1,43
 193 248 193 248 194.5 209 c 128,-1,44
 196 170 196 170 197 136 c 1,45,46
 208 131 208 131 220 126.5 c 128,-1,47
 232 122 232 122 245 117 c 1,48,49
 245 99 245 99 233 84 c 1,50,51
 218 62 218 62 204.5 39.5 c 128,-1,52
 191 17 191 17 173 -3 c 1,53,54
 142 8 142 8 112 18 c 128,-1,55
 82 28 82 28 51 39 c 1,56,57
 48 148 48 148 49 257.5 c 128,-1,58
 50 367 50 367 50 477 c 1,59,60
 39 485 39 485 26.5 492 c 128,-1,61
 14 499 14 499 3 508 c 1,62,63
 14 535 14 535 31 560 c 128,-1,64
 48 585 48 585 68 609 c 1,65,66
 84 610 84 610 99.5 607 c 128,-1,67
 115 604 115 604 130.5 599 c 128,-1,68
 146 594 146 594 161.5 588 c 128,-1,69
 177 582 177 582 192 579 c 1,70,71
 197 562 197 562 198 547 c 1,72,-1
 218 555 l 1,73,74
 234 572 234 572 250.5 587 c 128,-1,75
 267 602 267 602 285 616 c 1,0,1
EndSplineSet
EndChar

StartChar: z
Encoding: 122 122 52
Width: 389
Flags: W
LayerCount: 2
Fore
SplineSet
104 628 m 1,0,1
 167 627 167 627 230 628.5 c 128,-1,2
 293 630 293 630 356 627 c 1,3,4
 367 610 367 610 363 586.5 c 128,-1,5
 359 563 359 563 347 547 c 0,6,7
 318 508 318 508 290.5 466.5 c 128,-1,8
 263 425 263 425 234 384 c 1,9,10
 265 367 265 367 297.5 355.5 c 128,-1,11
 330 344 330 344 360 328 c 1,12,-1
 360 52 l 2,13,14
 360 32 360 32 359 11.5 c 128,-1,15
 358 -9 358 -9 351 -29 c 1,16,17
 313 -56 313 -56 276 -83 c 128,-1,18
 239 -110 239 -110 201 -137 c 1,19,20
 192 -135 192 -135 182.5 -134.5 c 128,-1,21
 173 -134 173 -134 164 -129 c 0,22,23
 130 -111 130 -111 96.5 -94 c 128,-1,24
 63 -77 63 -77 29 -60 c 1,25,26
 24 -42 24 -42 27 -23.5 c 128,-1,27
 30 -5 30 -5 37 12.5 c 128,-1,28
 44 30 44 30 53.5 46.5 c 128,-1,29
 63 63 63 63 71 79 c 1,30,31
 105 60 105 60 138 38 c 128,-1,32
 171 16 171 16 207 -3 c 1,33,34
 209 58 209 58 209 119 c 128,-1,35
 209 180 209 180 206 241 c 1,36,37
 175 257 175 257 141.5 267 c 128,-1,38
 108 277 108 277 81 298 c 1,39,40
 114 345 114 345 145 392 c 128,-1,41
 176 439 176 439 209 484 c 1,42,43
 192 486 192 486 176.5 486.5 c 128,-1,44
 161 487 161 487 142 487.5 c 128,-1,45
 123 488 123 488 98.5 489.5 c 128,-1,46
 74 491 74 491 39 495 c 1,47,48
 46 527 46 527 58 558 c 128,-1,49
 70 589 70 589 84 618 c 1,50,51
 88 620 88 620 94 623 c 128,-1,52
 100 626 100 626 104 628 c 1,0,1
EndSplineSet
EndChar

StartChar: bar
Encoding: 124 124 126
Width: 239
Flags: W
LayerCount: 2
Fore
SplineSet
65 867 m 1,0,1
 98 861 98 861 129.5 850 c 128,-1,2
 161 839 161 839 191 826 c 1,3,4
 193 794 193 794 193.5 762 c 128,-1,5
 194 730 194 730 194 697 c 2,6,-1
 194 574 l 1,7,-1
 194 526 l 2,8,9
 194 513 194 513 193.5 481.5 c 128,-1,10
 193 450 193 450 193 408.5 c 128,-1,11
 193 367 193 367 193 321.5 c 128,-1,12
 193 276 193 276 193 235 c 128,-1,13
 193 194 193 194 193 162.5 c 128,-1,14
 193 131 193 131 193 118 c 2,15,-1
 193 -53 l 1,16,-1
 193 -149 l 1,17,18
 189 -154 189 -154 169.5 -158 c 128,-1,19
 150 -162 150 -162 126.5 -164.5 c 128,-1,20
 103 -167 103 -167 80.5 -168.5 c 128,-1,21
 58 -170 58 -170 47 -170 c 1,22,23
 46 -136 46 -136 46 -103.5 c 128,-1,24
 46 -71 46 -71 46 -39 c 0,25,26
 46 -10 46 -10 46.5 52.5 c 128,-1,27
 47 115 47 115 47.5 194 c 128,-1,28
 48 273 48 273 49 359.5 c 128,-1,29
 50 446 50 446 50 524 c 128,-1,30
 50 602 50 602 49 663 c 128,-1,31
 48 724 48 724 46 751 c 0,32,33
 42 805 42 805 43 835 c 128,-1,34
 44 865 44 865 65 867 c 1,0,1
EndSplineSet
EndChar

StartChar: asciitilde
Encoding: 126 126 216
Width: 533
Flags: W
LayerCount: 2
Fore
SplineSet
65 378 m 1,0,1
 55 398 55 398 49 408 c 128,-1,2
 43 418 43 418 39 425.5 c 128,-1,3
 35 433 35 433 32 442.5 c 128,-1,4
 29 452 29 452 26 471 c 1,5,6
 45 475 45 475 78 489.5 c 128,-1,7
 111 504 111 504 147.5 520 c 128,-1,8
 184 536 184 536 217.5 548.5 c 128,-1,9
 251 561 251 561 270 561 c 1,10,11
 289 547 289 547 304.5 538.5 c 128,-1,12
 320 530 320 530 338 513 c 1,13,14
 381 533 381 533 405 546.5 c 128,-1,15
 429 560 429 560 452 561 c 1,16,17
 459 547 459 547 465.5 537 c 128,-1,18
 472 527 472 527 477.5 517.5 c 128,-1,19
 483 508 483 508 486.5 497.5 c 128,-1,20
 490 487 490 487 491 473 c 1,21,22
 472 467 472 467 439 452.5 c 128,-1,23
 406 438 406 438 369.5 422 c 128,-1,24
 333 406 333 406 299 393 c 128,-1,25
 265 380 265 380 246 378 c 1,26,27
 237 398 237 398 225 405.5 c 128,-1,28
 213 413 213 413 190 424 c 1,29,30
 148 404 148 404 118 392.5 c 128,-1,31
 88 381 88 381 65 378 c 1,0,1
EndSplineSet
EndChar

StartChar: exclamdown
Encoding: 161 161 176
Width: 236
Flags: W
LayerCount: 2
Fore
SplineSet
59 539 m 1,0,1
 94 534 94 534 127 521.5 c 128,-1,2
 160 509 160 509 192 498 c 1,3,4
 190 469 190 469 180 441 c 128,-1,5
 170 413 170 413 158 386 c 1,6,7
 124 387 124 387 91 400 c 128,-1,8
 58 413 58 413 26 422 c 1,9,10
 29 441 29 441 31.5 454.5 c 128,-1,11
 34 468 34 468 37.5 480 c 128,-1,12
 41 492 41 492 46 505.5 c 128,-1,13
 51 519 51 519 59 539 c 1,0,1
82 354 m 1,14,15
 98 354 98 354 109 351.5 c 128,-1,16
 120 349 120 349 129 345.5 c 128,-1,17
 138 342 138 342 148 337 c 128,-1,18
 158 332 158 332 174 327 c 1,19,20
 179 310 179 310 179 296 c 2,21,-1
 179 275 l 1,22,-1
 179 264 l 1,23,-1
 179 192 l 2,24,25
 179 120 179 120 179.5 47.5 c 128,-1,26
 180 -25 180 -25 180 -97 c 2,27,-1
 180 -102 l 2,28,29
 180 -111 180 -111 186.5 -116 c 128,-1,30
 193 -121 193 -121 201 -124.5 c 128,-1,31
 209 -128 209 -128 215.5 -131 c 128,-1,32
 222 -134 222 -134 222 -139 c 0,33,34
 222 -149 222 -149 214.5 -163.5 c 128,-1,35
 207 -178 207 -178 196.5 -193.5 c 128,-1,36
 186 -209 186 -209 174 -223 c 128,-1,37
 162 -237 162 -237 153 -246 c 1,38,39
 138 -245 138 -245 123.5 -240.5 c 128,-1,40
 109 -236 109 -236 95 -231 c 128,-1,41
 81 -226 81 -226 67 -221 c 128,-1,42
 53 -216 53 -216 38 -214 c 1,43,44
 30 -193 30 -193 30 -174 c 2,45,-1
 30 -102 l 1,46,-1
 30 32 l 2,47,48
 30 42 30 42 29.5 62.5 c 128,-1,49
 29 83 29 83 29 107 c 128,-1,50
 29 131 29 131 28.5 157 c 128,-1,51
 28 183 28 183 28 204.5 c 128,-1,52
 28 226 28 226 28 241 c 128,-1,53
 28 256 28 256 28 259 c 0,54,55
 28 268 28 268 34 280.5 c 128,-1,56
 40 293 40 293 49 306 c 128,-1,57
 58 319 58 319 67 331.5 c 128,-1,58
 76 344 76 344 82 354 c 1,14,15
EndSplineSet
EndChar

StartChar: dieresis
Encoding: 168 168 144
Width: 452
Flags: W
LayerCount: 2
Fore
SplineSet
203 736 m 1,0,1
 201 706 201 706 190.5 678.5 c 128,-1,2
 180 651 180 651 170 622 c 1,3,4
 152 624 152 624 134 629.5 c 128,-1,5
 116 635 116 635 98 640 c 1,6,7
 83 646 83 646 65.5 648 c 128,-1,8
 48 650 48 650 38 663 c 1,9,10
 40 691 40 691 49 717 c 128,-1,11
 58 743 58 743 66 769 c 1,12,-1
 203 736 l 1,0,1
255 766 m 1,13,14
 271 772 271 772 281.5 771 c 128,-1,15
 292 770 292 770 308 763 c 1,16,17
 353 748 353 748 401 736 c 1,18,19
 394 707 394 707 386 679 c 128,-1,20
 378 651 378 651 369 622 c 1,21,22
 334 626 334 626 301 636 c 128,-1,23
 268 646 268 646 236 655 c 1,24,25
 237 680 237 680 244.5 703 c 128,-1,26
 252 726 252 726 254 750 c 1,27,28
 252 752 252 752 254.5 758 c 128,-1,29
 257 764 257 764 255 766 c 1,13,14
EndSplineSet
EndChar

StartChar: guillemotleft
Encoding: 171 171 174
Width: 546
Flags: W
LayerCount: 2
Fore
SplineSet
506 449 m 1,0,1
 475 415 475 415 442.5 383 c 128,-1,2
 410 351 410 351 377 319 c 1,3,4
 408 292 408 292 438 260.5 c 128,-1,5
 468 229 468 229 503 194 c 1,6,7
 503 177 503 177 496.5 166.5 c 128,-1,8
 490 156 490 156 481 147.5 c 128,-1,9
 472 139 472 139 462 131 c 128,-1,10
 452 123 452 123 445 111 c 1,11,12
 404 147 404 147 363.5 189 c 128,-1,13
 323 231 323 231 283 273 c 1,14,15
 278 285 278 285 276.5 295 c 128,-1,16
 275 305 275 305 275.5 315 c 128,-1,17
 276 325 276 325 278 336 c 128,-1,18
 280 347 280 347 282 361 c 1,19,20
 319 406 319 406 357 444 c 128,-1,21
 395 482 395 482 442 527 c 1,22,23
 450 518 450 518 460 511 c 128,-1,24
 470 504 470 504 479.5 496 c 128,-1,25
 489 488 489 488 496.5 477 c 128,-1,26
 504 466 504 466 506 449 c 1,0,1
267 453 m 1,27,28
 236 419 236 419 203.5 387 c 128,-1,29
 171 355 171 355 138 323 c 1,30,31
 169 296 169 296 199 264.5 c 128,-1,32
 229 233 229 233 264 198 c 1,33,34
 264 181 264 181 257.5 170.5 c 128,-1,35
 251 160 251 160 242 151.5 c 128,-1,36
 233 143 233 143 223 135 c 128,-1,37
 213 127 213 127 206 115 c 1,38,39
 165 151 165 151 124.5 193 c 128,-1,40
 84 235 84 235 44 277 c 1,41,42
 39 289 39 289 37.5 299 c 128,-1,43
 36 309 36 309 36.5 319 c 128,-1,44
 37 329 37 329 39 340 c 128,-1,45
 41 351 41 351 43 365 c 1,46,47
 80 410 80 410 118 448 c 128,-1,48
 156 486 156 486 203 531 c 1,49,50
 211 522 211 522 221 515 c 128,-1,51
 231 508 231 508 240.5 500 c 128,-1,52
 250 492 250 492 257.5 481 c 128,-1,53
 265 470 265 470 267 453 c 1,27,28
EndSplineSet
EndChar

StartChar: degree
Encoding: 176 176 199
Width: 430
Flags: W
LayerCount: 2
Fore
SplineSet
168 779 m 0,0,1
 178 784 178 784 188.5 788 c 128,-1,2
 199 792 199 792 210 792 c 0,3,4
 213 792 213 792 217 791 c 128,-1,5
 221 790 221 790 225 789 c 0,6,7
 265 775 265 775 303.5 761 c 128,-1,8
 342 747 342 747 381 730 c 1,9,10
 381 677 381 677 380.5 644 c 128,-1,11
 380 611 380 611 380 583.5 c 128,-1,12
 380 556 380 556 379.5 527.5 c 128,-1,13
 379 499 379 499 379 455 c 1,14,15
 341 436 341 436 303 417.5 c 128,-1,16
 265 399 265 399 224 383 c 0,17,18
 216 379 216 379 209 379 c 0,19,20
 197 379 197 379 176 386 c 128,-1,21
 155 393 155 393 130.5 402.5 c 128,-1,22
 106 412 106 412 81 422.5 c 128,-1,23
 56 433 56 433 37 439 c 1,24,25
 35 471 35 471 35 512.5 c 128,-1,26
 35 554 35 554 35 594 c 128,-1,27
 35 634 35 634 35 667.5 c 128,-1,28
 35 701 35 701 35 718 c 1,29,30
 67 735 67 735 101 749 c 128,-1,31
 135 763 135 763 168 779 c 0,0,1
176 675 m 1,32,33
 175 656 175 656 174.5 659.5 c 128,-1,34
 174 663 174 663 174 671 c 128,-1,35
 174 679 174 679 174 682.5 c 128,-1,36
 174 686 174 686 174 667 c 2,37,-1
 174 516 l 1,38,39
 211 500 211 500 245 492 c 1,40,41
 245 520 245 520 245 535.5 c 128,-1,42
 245 551 245 551 245 560.5 c 128,-1,43
 245 570 245 570 245 575.5 c 128,-1,44
 245 581 245 581 245 589.5 c 128,-1,45
 245 598 245 598 245.5 611.5 c 128,-1,46
 246 625 246 625 246 650 c 1,47,48
 232 658 232 658 217 667.5 c 128,-1,49
 202 677 202 677 185 677 c 0,50,51
 180 677 180 677 176 675 c 1,32,33
EndSplineSet
EndChar

StartChar: acute
Encoding: 180 180 103
Width: 236
Flags: W
LayerCount: 2
Fore
SplineSet
41 609 m 1,0,1
 33 629 33 629 28 639 c 128,-1,2
 23 649 23 649 19.5 657 c 128,-1,3
 16 665 16 665 14 674.5 c 128,-1,4
 12 684 12 684 9 703 c 1,5,6
 25 707 25 707 53.5 722 c 128,-1,7
 82 737 82 737 113 752.5 c 128,-1,8
 144 768 144 768 173 781 c 128,-1,9
 202 794 202 794 219 794 c 1,10,11
 225 780 225 780 230.5 770 c 128,-1,12
 236 760 236 760 240.5 750.5 c 128,-1,13
 245 741 245 741 248 730.5 c 128,-1,14
 251 720 251 720 252 705 c 1,15,16
 236 699 236 699 207.5 684.5 c 128,-1,17
 179 670 179 670 147.5 654 c 128,-1,18
 116 638 116 638 87 624.5 c 128,-1,19
 58 611 58 611 41 609 c 1,0,1
EndSplineSet
EndChar

StartChar: periodcentered
Encoding: 183 183 164
Width: 236
Flags: W
LayerCount: 2
Fore
SplineSet
177 340 m 1,0,1
 142 345 142 345 109 357.5 c 128,-1,2
 76 370 76 370 44 381 c 1,3,4
 46 410 46 410 56 438 c 128,-1,5
 66 466 66 466 78 493 c 1,6,7
 112 492 112 492 145 479 c 128,-1,8
 178 466 178 466 210 457 c 1,9,10
 207 438 207 438 204.5 424.5 c 128,-1,11
 202 411 202 411 198.5 399 c 128,-1,12
 195 387 195 387 190 373.5 c 128,-1,13
 185 360 185 360 177 340 c 1,0,1
EndSplineSet
EndChar

StartChar: cedilla
Encoding: 184 184 195
Width: 216
Flags: W
LayerCount: 2
Fore
SplineSet
84 30 m 1,0,1
 91 13 91 13 99 -8.5 c 128,-1,2
 107 -30 107 -30 119.5 -46 c 128,-1,3
 132 -62 132 -62 149.5 -67.5 c 128,-1,4
 167 -73 167 -73 193 -58 c 1,5,6
 199 -96 199 -96 192.5 -125.5 c 128,-1,7
 186 -155 186 -155 174.5 -178.5 c 128,-1,8
 163 -202 163 -202 150 -219.5 c 128,-1,9
 137 -237 137 -237 130 -251 c 1,10,11
 126 -256 126 -256 116.5 -258.5 c 128,-1,12
 107 -261 107 -261 95 -262 c 128,-1,13
 83 -263 83 -263 70 -263.5 c 128,-1,14
 57 -264 57 -264 48 -264 c 1,15,16
 48 -246 48 -246 55.5 -238 c 128,-1,17
 63 -230 63 -230 72 -219.5 c 128,-1,18
 81 -209 81 -209 87.5 -190 c 128,-1,19
 94 -171 94 -171 92 -131 c 1,20,21
 85 -131 85 -131 75 -125.5 c 128,-1,22
 65 -120 65 -120 55 -112 c 128,-1,23
 45 -104 45 -104 37 -94.5 c 128,-1,24
 29 -85 29 -85 26 -77 c 1,25,26
 38 -48 38 -48 54 -22 c 128,-1,27
 70 4 70 4 84 30 c 1,0,1
EndSplineSet
EndChar

StartChar: guillemotright
Encoding: 187 187 175
Width: 525
Flags: W
LayerCount: 2
Fore
SplineSet
275 453 m 1,0,1
 277 470 277 470 284.5 481 c 128,-1,2
 292 492 292 492 301.5 500 c 128,-1,3
 311 508 311 508 321 515 c 128,-1,4
 331 522 331 522 339 531 c 1,5,6
 386 486 386 486 424 448 c 128,-1,7
 462 410 462 410 499 365 c 1,8,9
 501 351 501 351 503 340 c 128,-1,10
 505 329 505 329 505.5 319 c 128,-1,11
 506 309 506 309 504.5 299 c 128,-1,12
 503 289 503 289 498 277 c 1,13,14
 458 235 458 235 417.5 193 c 128,-1,15
 377 151 377 151 336 115 c 1,16,17
 329 127 329 127 319 135 c 128,-1,18
 309 143 309 143 300 151.5 c 128,-1,19
 291 160 291 160 284.5 170.5 c 128,-1,20
 278 181 278 181 278 198 c 1,21,22
 313 233 313 233 343 264.5 c 128,-1,23
 373 296 373 296 404 323 c 1,24,25
 371 355 371 355 338.5 387 c 128,-1,26
 306 419 306 419 275 453 c 1,0,1
36 449 m 1,27,28
 38 466 38 466 45.5 477 c 128,-1,29
 53 488 53 488 62.5 496 c 128,-1,30
 72 504 72 504 82 511 c 128,-1,31
 92 518 92 518 100 527 c 1,32,33
 147 482 147 482 185 444 c 128,-1,34
 223 406 223 406 260 361 c 1,35,36
 262 347 262 347 264 336 c 128,-1,37
 266 325 266 325 266.5 315 c 128,-1,38
 267 305 267 305 265.5 295 c 128,-1,39
 264 285 264 285 259 273 c 1,40,41
 219 231 219 231 178.5 189 c 128,-1,42
 138 147 138 147 97 111 c 1,43,44
 90 123 90 123 80 131 c 128,-1,45
 70 139 70 139 61 147.5 c 128,-1,46
 52 156 52 156 45.5 166.5 c 128,-1,47
 39 177 39 177 39 194 c 1,48,49
 74 229 74 229 104 260.5 c 128,-1,50
 134 292 134 292 165 319 c 1,51,52
 132 351 132 351 99.5 383 c 128,-1,53
 67 415 67 415 36 449 c 1,27,28
EndSplineSet
EndChar

StartChar: questiondown
Encoding: 191 191 177
Width: 379
Flags: W
LayerCount: 2
Fore
SplineSet
276 175 m 1,0,1
 271 166 271 166 261 159.5 c 128,-1,2
 251 153 251 153 238 147 c 128,-1,3
 225 141 225 141 211 134 c 128,-1,4
 197 127 197 127 185 117 c 1,5,6
 182 94 182 94 181 79 c 128,-1,7
 180 64 180 64 180 45.5 c 128,-1,8
 180 27 180 27 181 -0.5 c 128,-1,9
 182 -28 182 -28 182 -74 c 1,10,11
 187 -84 187 -84 208.5 -93 c 128,-1,12
 230 -102 230 -102 257 -110 c 128,-1,13
 284 -118 284 -118 311 -125 c 128,-1,14
 338 -132 338 -132 353 -137 c 1,15,16
 352 -153 352 -153 342 -173 c 128,-1,17
 332 -193 332 -193 319 -210.5 c 128,-1,18
 306 -228 306 -228 293 -240 c 128,-1,19
 280 -252 280 -252 273 -252 c 0,20,21
 268 -252 268 -252 248.5 -247 c 128,-1,22
 229 -242 229 -242 202 -233.5 c 128,-1,23
 175 -225 175 -225 145.5 -214.5 c 128,-1,24
 116 -204 116 -204 91 -193.5 c 128,-1,25
 66 -183 66 -183 50 -174 c 128,-1,26
 34 -165 34 -165 35 -159 c 1,27,-1
 35 170 l 2,28,29
 35 174 35 174 44 180 c 128,-1,30
 53 186 53 186 66.5 192.5 c 128,-1,31
 80 199 80 199 96 205.5 c 128,-1,32
 112 212 112 212 127 217 c 1,33,34
 127 235 127 235 125 244.5 c 128,-1,35
 123 254 123 254 123 256 c 0,36,37
 123 265 123 265 129 277.5 c 128,-1,38
 135 290 135 290 144 303 c 128,-1,39
 153 316 153 316 162 328.5 c 128,-1,40
 171 341 171 341 177 351 c 1,41,42
 193 351 193 351 204 348.5 c 128,-1,43
 215 346 215 346 224 342.5 c 128,-1,44
 233 339 233 339 243 334 c 128,-1,45
 253 329 253 329 269 324 c 1,46,47
 274 307 274 307 274 293 c 1,48,49
 278 261 278 261 278.5 241 c 128,-1,50
 279 221 279 221 278 208 c 128,-1,51
 277 195 277 195 276 188 c 128,-1,52
 275 181 275 181 276 175 c 1,0,1
154 536 m 1,53,54
 189 531 189 531 222 518.5 c 128,-1,55
 255 506 255 506 287 495 c 1,56,57
 285 466 285 466 275 438 c 128,-1,58
 265 410 265 410 253 383 c 1,59,60
 219 384 219 384 186 397 c 128,-1,61
 153 410 153 410 121 419 c 1,62,63
 124 438 124 438 126.5 451.5 c 128,-1,64
 129 465 129 465 132.5 477 c 128,-1,65
 136 489 136 489 141 502.5 c 128,-1,66
 146 516 146 516 154 536 c 1,53,54
EndSplineSet
EndChar

StartChar: Adieresis
Encoding: 196 196 16
Width: 518
Flags: W
LayerCount: 2
Fore
SplineSet
92 796 m 1,0,1
 113 802 113 802 135 798.5 c 128,-1,2
 157 795 157 795 180 793 c 1,3,4
 191 791 191 791 205.5 791.5 c 128,-1,5
 220 792 220 792 228 780 c 1,6,7
 230 760 230 760 227 741.5 c 128,-1,8
 224 723 224 723 221 705 c 1,9,10
 187 703 187 703 153.5 704.5 c 128,-1,11
 120 706 120 706 86 714 c 1,12,13
 77 733 77 733 81 755 c 128,-1,14
 85 777 85 777 92 796 c 1,0,1
299 801 m 1,15,16
 328 803 328 803 357.5 798.5 c 128,-1,17
 387 794 387 794 417 792 c 0,18,19
 426 792 426 792 433 784.5 c 128,-1,20
 440 777 440 777 438 768 c 1,21,22
 437 750 437 750 434 732 c 128,-1,23
 431 714 431 714 429 696 c 1,24,25
 393 692 393 692 358 697 c 128,-1,26
 323 702 323 702 288 708 c 1,27,28
 290 731 290 731 290.5 754.5 c 128,-1,29
 291 778 291 778 299 801 c 1,15,16
83 691 m 1,30,31
 126 696 126 696 168.5 690.5 c 128,-1,32
 211 685 211 685 254 684 c 1,33,34
 305 678 305 678 355 675.5 c 128,-1,35
 405 673 405 673 456 664 c 1,36,37
 460 534 460 534 458.5 405.5 c 128,-1,38
 457 277 457 277 459 148 c 1,39,40
 458 137 458 137 463.5 131.5 c 128,-1,41
 469 126 469 126 477.5 122.5 c 128,-1,42
 486 119 486 119 495 116 c 128,-1,43
 504 113 504 113 510 108 c 1,44,45
 499 79 499 79 483 52.5 c 128,-1,46
 467 26 467 26 449 1 c 1,47,48
 431 -8 431 -8 412 0 c 128,-1,49
 393 8 393 8 377 12 c 1,50,51
 367 17 367 17 355 20 c 128,-1,52
 343 23 343 23 333 27.5 c 128,-1,53
 323 32 323 32 316.5 40 c 128,-1,54
 310 48 310 48 311 63 c 0,55,56
 312 111 312 111 313 160 c 128,-1,57
 314 209 314 209 306 258 c 1,58,59
 277 258 277 258 247.5 257.5 c 128,-1,60
 218 257 218 257 189 259 c 1,61,62
 177 243 177 243 177 224 c 128,-1,63
 177 205 177 205 176 187 c 1,64,65
 177 171 177 171 176.5 156 c 128,-1,66
 176 141 176 141 183 127 c 1,67,68
 196 120 196 120 208 114.5 c 128,-1,69
 220 109 220 109 233 103 c 1,70,71
 216 77 216 77 200.5 50 c 128,-1,72
 185 23 185 23 165 0 c 1,73,74
 162 -9 162 -9 154.5 -7 c 128,-1,75
 147 -5 147 -5 141 -3 c 0,76,77
 115 4 115 4 89.5 13 c 128,-1,78
 64 22 64 22 39 31 c 1,79,80
 37 151 37 151 38 269 c 128,-1,81
 39 387 39 387 38 505 c 1,82,83
 74 520 74 520 108.5 535 c 128,-1,84
 143 550 143 550 177 570 c 1,85,86
 135 570 135 570 93 566.5 c 128,-1,87
 51 563 51 563 9 568 c 1,88,89
 9 572 9 572 9 576.5 c 128,-1,90
 9 581 9 581 11 585 c 0,91,92
 29 612 29 612 44.5 640 c 128,-1,93
 60 668 60 668 83 691 c 1,30,31
177 495 m 1,94,95
 178 466 178 466 175 437 c 128,-1,96
 172 408 172 408 183 381 c 1,97,98
 216 375 216 375 248.5 378 c 128,-1,99
 281 381 281 381 315 381 c 1,100,101
 312 403 312 403 312 425 c 128,-1,102
 312 447 312 447 312.5 469 c 128,-1,103
 313 491 313 491 312.5 513.5 c 128,-1,104
 312 536 312 536 308 558 c 1,105,106
 272 550 272 550 241 530.5 c 128,-1,107
 210 511 210 511 177 495 c 1,94,95
EndSplineSet
EndChar

StartChar: AE
Encoding: 198 198 125
Width: 742
Flags: W
LayerCount: 2
Fore
SplineSet
103 786 m 0,0,1
 110 794 110 794 120 795 c 128,-1,2
 130 796 130 796 139 795 c 0,3,4
 223 786 223 786 305.5 775 c 128,-1,5
 388 764 388 764 472 751 c 1,6,-1
 473 751 l 1,7,8
 498 767 498 767 526 779 c 0,9,10
 526 780 526 780 530.5 782.5 c 128,-1,11
 535 785 535 785 541 786 c 128,-1,12
 547 787 547 787 555 785 c 128,-1,13
 563 783 563 783 571 775 c 1,14,15
 607 762 607 762 644.5 753 c 128,-1,16
 682 744 682 744 719 731 c 1,17,18
 714 699 714 699 703 669.5 c 128,-1,19
 692 640 692 640 685 608 c 1,20,21
 676 608 676 608 666 606.5 c 128,-1,22
 656 605 656 605 647 608 c 0,23,24
 610 621 610 621 573 633.5 c 128,-1,25
 536 646 536 646 499 655 c 1,26,27
 497 612 497 612 498 569.5 c 128,-1,28
 499 527 499 527 497 485 c 1,29,30
 548 484 548 484 599 485.5 c 128,-1,31
 650 487 650 487 701 485 c 1,32,33
 694 451 694 451 687 416.5 c 128,-1,34
 680 382 680 382 662 352 c 1,35,36
 621 350 621 350 580.5 351.5 c 128,-1,37
 540 353 540 353 499 352 c 1,38,39
 499 332 499 332 498.5 305.5 c 128,-1,40
 498 279 498 279 498 253 c 128,-1,41
 498 227 498 227 498.5 204.5 c 128,-1,42
 499 182 499 182 499 169 c 1,43,44
 525 161 525 161 551.5 150 c 128,-1,45
 578 139 578 139 605.5 129 c 128,-1,46
 633 119 633 119 661 111 c 128,-1,47
 689 103 689 103 719 100 c 1,48,49
 719 80 719 80 709.5 64 c 128,-1,50
 700 48 700 48 692 32 c 1,51,52
 682 15 682 15 673.5 -2.5 c 128,-1,53
 665 -20 665 -20 650 -31 c 1,54,55
 573 -6 573 -6 497 18.5 c 128,-1,56
 421 43 421 43 346 74 c 1,57,-1
 346 290 l 1,58,-1
 343 307 l 1,59,60
 308 305 308 305 270.5 307 c 128,-1,61
 233 309 233 309 201 300 c 1,62,63
 197 259 197 259 198 217 c 128,-1,64
 199 175 199 175 201 133 c 1,65,66
 205 127 205 127 212 125 c 128,-1,67
 219 123 219 123 226.5 121 c 128,-1,68
 234 119 234 119 240.5 115.5 c 128,-1,69
 247 112 247 112 250 103 c 1,70,71
 236 77 236 77 220 51.5 c 128,-1,72
 204 26 204 26 186 1 c 1,73,74
 150 0 150 0 115 14 c 128,-1,75
 80 28 80 28 48 42 c 1,76,77
 51 180 51 180 49.5 315.5 c 128,-1,78
 48 451 48 451 48 589 c 1,79,80
 50 600 50 600 61 604 c 128,-1,81
 72 608 72 608 81 613 c 0,82,83
 106 624 106 624 133 633 c 128,-1,84
 160 642 160 642 183 658 c 1,85,86
 168 660 168 660 145 662.5 c 128,-1,87
 122 665 122 665 98.5 667.5 c 128,-1,88
 75 670 75 670 55 673 c 128,-1,89
 35 676 35 676 25 681 c 1,90,91
 41 710 41 710 60.5 736 c 128,-1,92
 80 762 80 762 103 786 c 0,0,1
244 609 m 1,93,94
 233 603 233 603 222.5 598 c 128,-1,95
 212 593 212 593 201 588 c 1,96,97
 196 548 196 548 198 509 c 128,-1,98
 200 470 200 470 198 430 c 1,99,100
 235 432 235 432 272.5 432 c 128,-1,101
 310 432 310 432 348 433 c 1,102,103
 343 485 343 485 346.5 537 c 128,-1,104
 350 589 350 589 342 640 c 1,105,106
 315 642 315 642 291.5 630 c 128,-1,107
 268 618 268 618 244 609 c 1,93,94
EndSplineSet
EndChar

StartChar: Eth
Encoding: 208 208 213
Width: 516
Flags: W
LayerCount: 2
Fore
SplineSet
52 735 m 0,0,1
 63 749 63 749 74.5 763 c 128,-1,2
 86 777 86 777 102 786 c 1,3,4
 122 791 122 791 142.5 787 c 128,-1,5
 163 783 163 783 183 781 c 0,6,7
 258 770 258 770 330.5 754.5 c 128,-1,8
 403 739 403 739 478 724 c 1,9,10
 490 701 490 701 489 675 c 1,11,12
 489 531 489 531 490 389.5 c 128,-1,13
 491 248 491 248 489 105 c 1,14,15
 438 73 438 73 386.5 41.5 c 128,-1,16
 335 10 335 10 282 -18 c 1,17,18
 248 -10 248 -10 216 3.5 c 128,-1,19
 184 17 184 17 150 28 c 1,20,21
 125 39 125 39 99.5 46 c 128,-1,22
 74 53 74 53 51 67 c 1,23,24
 42 84 42 84 43.5 103.5 c 128,-1,25
 45 123 45 123 43 141 c 1,26,-1
 43 295 l 1,27,28
 37 295 37 295 30.5 295.5 c 128,-1,29
 24 296 24 296 18 296 c 1,30,31
 3 325 3 325 6 355 c 128,-1,32
 9 385 9 385 16 415 c 1,33,-1
 43 418 l 1,34,35
 43 451 43 451 42.5 484 c 128,-1,36
 42 517 42 517 42 550 c 1,37,38
 41 561 41 561 45.5 568 c 128,-1,39
 50 575 50 575 57 579.5 c 128,-1,40
 64 584 64 584 72.5 587.5 c 128,-1,41
 81 591 81 591 88 595 c 0,42,43
 108 608 108 608 131.5 617.5 c 128,-1,44
 155 627 155 627 169 646 c 1,45,46
 128 652 128 652 87.5 655.5 c 128,-1,47
 47 659 47 659 7 672 c 1,48,49
 14 691 14 691 27.5 705.5 c 128,-1,50
 41 720 41 720 52 735 c 0,0,1
281 295 m 1,51,52
 256 293 256 293 234.5 292 c 128,-1,53
 213 291 213 291 193 291 c 1,54,-1
 193 156 l 1,55,56
 228 140 228 140 265.5 129 c 128,-1,57
 303 118 303 118 339 102 c 1,58,59
 340 222 340 222 338.5 340.5 c 128,-1,60
 337 459 337 459 339 579 c 0,61,62
 339 585 339 585 339 592 c 128,-1,63
 339 599 339 599 337.5 605 c 128,-1,64
 336 611 336 611 332.5 615.5 c 128,-1,65
 329 620 329 620 321 621 c 1,66,67
 303 627 303 627 287 623.5 c 128,-1,68
 271 620 271 620 255.5 612.5 c 128,-1,69
 240 605 240 605 225 596 c 128,-1,70
 210 587 210 587 195 583 c 1,71,72
 194 542 194 542 193.5 502 c 128,-1,73
 193 462 193 462 193 421 c 1,74,75
 211 421 211 421 231 420.5 c 128,-1,76
 251 420 251 420 275 419 c 1,77,78
 282 399 282 399 286 385.5 c 128,-1,79
 290 372 290 372 290 359 c 128,-1,80
 290 346 290 346 287.5 331.5 c 128,-1,81
 285 317 285 317 281 295 c 1,51,52
EndSplineSet
EndChar

StartChar: Odieresis
Encoding: 214 214 56
Width: 487
Flags: W
LayerCount: 2
Fore
SplineSet
72 795 m 1,0,1
 107 793 107 793 141.5 789.5 c 128,-1,2
 176 786 176 786 211 781 c 1,3,4
 211 760 211 760 210 738 c 128,-1,5
 209 716 209 716 202 696 c 1,6,7
 200 694 200 694 195.5 692 c 128,-1,8
 191 690 191 690 189 688 c 1,9,10
 156 692 156 692 124 694 c 128,-1,11
 92 696 92 696 60 706 c 1,12,13
 62 729 62 729 64.5 751 c 128,-1,14
 67 773 67 773 72 795 c 1,0,1
285 793 m 1,15,16
 319 797 319 797 353 790 c 128,-1,17
 387 783 387 783 421 781 c 1,18,19
 421 758 421 758 418.5 734 c 128,-1,20
 416 710 416 710 411 687 c 1,21,22
 395 686 395 686 379 689.5 c 128,-1,23
 363 693 363 693 346.5 696 c 128,-1,24
 330 699 330 699 314.5 698.5 c 128,-1,25
 299 698 299 698 284 689 c 1,26,27
 329 674 329 674 371.5 652.5 c 128,-1,28
 414 631 414 631 459 613 c 1,29,30
 462 525 462 525 461 437.5 c 128,-1,31
 460 350 460 350 460 262 c 1,32,33
 459 218 459 218 461 174 c 128,-1,34
 463 130 463 130 457 85 c 1,35,36
 454 82 454 82 439 74 c 128,-1,37
 424 66 424 66 403.5 55.5 c 128,-1,38
 383 45 383 45 359.5 33 c 128,-1,39
 336 21 336 21 314.5 10.5 c 128,-1,40
 293 0 293 0 276 -7.5 c 128,-1,41
 259 -15 259 -15 253 -17 c 1,42,43
 196 -1 196 -1 141.5 23 c 128,-1,44
 87 47 87 47 30 61 c 1,45,46
 24 138 24 138 27 214 c 128,-1,47
 30 290 30 290 25 367 c 1,48,49
 30 426 30 426 27.5 483.5 c 128,-1,50
 25 541 25 541 30 600 c 1,51,52
 84 625 84 625 136.5 650.5 c 128,-1,53
 189 676 189 676 244 699 c 1,54,55
 251 697 251 697 261.5 693.5 c 128,-1,56
 272 690 272 690 279 688 c 1,57,58
 277 708 277 708 275.5 728 c 128,-1,59
 274 748 274 748 276 768 c 0,60,61
 277 779 277 779 285 793 c 1,15,16
175 585 m 1,62,63
 174 477 174 477 174.5 371 c 128,-1,64
 175 265 175 265 175 157 c 1,65,66
 217 139 217 139 242 128.5 c 128,-1,67
 267 118 267 118 281.5 112 c 128,-1,68
 296 106 296 106 303 103.5 c 128,-1,69
 310 101 310 101 316 99 c 1,70,71
 315 208 315 208 316.5 315 c 128,-1,72
 318 422 318 422 316 531 c 1,73,74
 281 545 281 545 246 559.5 c 128,-1,75
 211 574 211 574 175 585 c 1,62,63
EndSplineSet
EndChar

StartChar: multiply
Encoding: 215 215 165
Width: 405
Flags: W
LayerCount: 2
Fore
SplineSet
276 237 m 1,0,1
 258 252 258 252 240.5 268.5 c 128,-1,2
 223 285 223 285 206 302 c 1,3,-1
 141 242 l 1,4,5
 110 253 110 253 91.5 276 c 128,-1,6
 73 299 73 299 56 325 c 1,7,8
 70 342 70 342 85 359.5 c 128,-1,9
 100 377 100 377 115 394 c 1,10,-1
 55 459 l 1,11,12
 65 490 65 490 88.5 508.5 c 128,-1,13
 112 527 112 527 138 544 c 1,14,15
 155 530 155 530 172 515.5 c 128,-1,16
 189 501 189 501 206 486 c 1,17,18
 221 500 221 500 237 515 c 128,-1,19
 253 530 253 530 271 547 c 1,20,21
 290 539 290 539 302 532 c 128,-1,22
 314 525 314 525 323.5 516 c 128,-1,23
 333 507 333 507 342 494.5 c 128,-1,24
 351 482 351 482 363 464 c 1,25,26
 348 446 348 446 331.5 428.5 c 128,-1,27
 315 411 315 411 298 394 c 1,28,29
 328 363 328 363 360 329 c 1,30,31
 351 310 351 310 344 298 c 128,-1,32
 337 286 337 286 328 276.5 c 128,-1,33
 319 267 319 267 307 258 c 128,-1,34
 295 249 295 249 276 237 c 1,0,1
EndSplineSet
EndChar

StartChar: Oslash
Encoding: 216 216 166
Width: 516
Flags: W
LayerCount: 2
Fore
SplineSet
82 710 m 0,0,1
 118 729 118 729 155 745.5 c 128,-1,2
 192 762 192 762 228 780 c 0,3,4
 240 786 240 786 251.5 785 c 128,-1,5
 263 784 263 784 275 780.5 c 128,-1,6
 287 777 287 777 298.5 771.5 c 128,-1,7
 310 766 310 766 321 762 c 0,8,9
 362 743 362 743 406.5 729 c 128,-1,10
 451 715 451 715 489 692 c 1,11,12
 491 539 491 539 490.5 388 c 128,-1,13
 490 237 490 237 489 83 c 1,14,15
 461 68 461 68 426.5 50.5 c 128,-1,16
 392 33 392 33 358 17 c 128,-1,17
 324 1 324 1 295 -12 c 128,-1,18
 266 -25 266 -25 250 -31 c 1,19,20
 205 -21 205 -21 166 -4.5 c 128,-1,21
 127 12 127 12 97 27 c 128,-1,22
 67 42 67 42 49.5 51.5 c 128,-1,23
 32 61 32 61 31 59 c 1,24,25
 26 77 26 77 28 95.5 c 128,-1,26
 30 114 30 114 28 134 c 1,27,28
 30 262 30 262 30.5 349.5 c 128,-1,29
 31 437 31 437 30.5 493.5 c 128,-1,30
 30 550 30 550 29.5 581.5 c 128,-1,31
 29 613 29 613 28 629.5 c 128,-1,32
 27 646 27 646 26 652.5 c 128,-1,33
 25 659 25 659 25 665 c 1,34,35
 31 685 31 685 48.5 693 c 128,-1,36
 66 701 66 701 82 710 c 0,0,1
186 662 m 1,37,38
 183 616 183 616 181.5 565 c 128,-1,39
 180 514 180 514 179.5 464.5 c 128,-1,40
 179 415 179 415 179.5 370.5 c 128,-1,41
 180 326 180 326 181 294 c 1,42,43
 180 257 180 257 177.5 220 c 128,-1,44
 175 183 175 183 183 147 c 1,45,46
 221 133 221 133 259.5 118.5 c 128,-1,47
 298 104 298 104 337 93 c 1,48,49
 335 224 335 224 337.5 353.5 c 128,-1,50
 340 483 340 483 334 614 c 1,51,52
 302 624 302 624 282.5 630 c 128,-1,53
 263 636 263 636 252 639.5 c 128,-1,54
 241 643 241 643 235.5 644.5 c 128,-1,55
 230 646 230 646 226 647 c 0,56,57
 218 650 218 650 206 655 c 128,-1,58
 194 660 194 660 186 662 c 1,37,38
401 791 m 1,59,60
 421 782 421 782 437.5 769 c 128,-1,61
 454 756 454 756 469 742 c 1,62,63
 462 725 462 725 446 688.5 c 128,-1,64
 430 652 430 652 408 603 c 128,-1,65
 386 554 386 554 360 496.5 c 128,-1,66
 334 439 334 439 307.5 380.5 c 128,-1,67
 281 322 281 322 255.5 265.5 c 128,-1,68
 230 209 230 209 209 163 c 128,-1,69
 188 117 188 117 173.5 84 c 128,-1,70
 159 51 159 51 154 40 c 0,71,72
 146 21 146 21 137 2 c 128,-1,73
 128 -17 128 -17 120 -36 c 1,74,75
 115 -39 115 -39 101.5 -40 c 128,-1,76
 88 -41 88 -41 71.5 -40 c 128,-1,77
 55 -39 55 -39 39.5 -37.5 c 128,-1,78
 24 -36 24 -36 17 -35 c 1,79,80
 29 -8 29 -8 40.5 18.5 c 128,-1,81
 52 45 52 45 63 70 c 0,82,83
 74 93 74 93 97 143 c 128,-1,84
 120 193 120 193 148.5 255.5 c 128,-1,85
 177 318 177 318 208.5 387.5 c 128,-1,86
 240 457 240 457 268 519.5 c 128,-1,87
 296 582 296 582 317.5 630.5 c 128,-1,88
 339 679 339 679 347 701 c 0,89,90
 364 745 364 745 375.5 769 c 128,-1,91
 387 793 387 793 401 791 c 1,59,60
EndSplineSet
EndChar

StartChar: Udieresis
Encoding: 220 220 57
Width: 586
Flags: W
LayerCount: 2
Fore
SplineSet
325 798 m 1,0,1
 358 799 358 799 390.5 794 c 128,-1,2
 423 789 423 789 456 787 c 1,3,4
 456 761 456 761 456 734 c 128,-1,5
 456 707 456 707 439 684 c 1,6,7
 453 687 453 687 466 689.5 c 128,-1,8
 479 692 479 692 493 696 c 1,9,10
 495 698 495 698 499.5 691 c 128,-1,11
 504 684 504 684 505 673 c 0,12,13
 507 539 507 539 505.5 406.5 c 128,-1,14
 504 274 504 274 510 139 c 1,15,16
 522 131 522 131 534.5 124 c 128,-1,17
 547 117 547 117 559 109 c 1,18,19
 558 102 558 102 560 94 c 128,-1,20
 562 86 562 86 555 81 c 1,21,22
 537 61 537 61 522.5 39.5 c 128,-1,23
 508 18 508 18 489 -2 c 1,24,-1
 471 -2 l 1,25,26
 442 12 442 12 417.5 32 c 128,-1,27
 393 52 393 52 364 66 c 1,28,29
 336 51 336 51 310.5 30.5 c 128,-1,30
 285 10 285 10 259 -8 c 1,31,32
 242 -8 242 -8 228 -1 c 128,-1,33
 214 6 214 6 199 12 c 1,34,35
 170 28 170 28 140.5 41.5 c 128,-1,36
 111 55 111 55 81 69 c 1,37,38
 79 187 79 187 80 303.5 c 128,-1,39
 81 420 81 420 79 538 c 1,40,41
 70 555 70 555 54 563.5 c 128,-1,42
 38 572 38 572 25 583 c 1,43,44
 39 614 39 614 54 643 c 128,-1,45
 69 672 69 672 88 699 c 1,46,47
 123 685 123 685 157 669 c 128,-1,48
 191 653 191 653 226 639 c 1,49,50
 226 518 226 518 227 398 c 128,-1,51
 228 278 228 278 228 156 c 1,52,53
 247 145 247 145 267 133.5 c 128,-1,54
 287 122 287 122 309 115 c 1,55,56
 323 120 323 120 335 130.5 c 128,-1,57
 347 141 347 141 360 150 c 1,58,59
 362 278 362 278 361 404 c 128,-1,60
 360 530 360 530 361 658 c 1,61,62
 366 669 366 669 377.5 672 c 128,-1,63
 389 675 389 675 401.5 676 c 128,-1,64
 414 677 414 677 425 680 c 128,-1,65
 436 683 436 683 442 694 c 1,66,67
 410 696 410 696 377 697 c 128,-1,68
 344 698 344 698 312 706 c 1,69,70
 313 717 313 717 312.5 729 c 128,-1,71
 312 741 312 741 312.5 753 c 128,-1,72
 313 765 313 765 315.5 776.5 c 128,-1,73
 318 788 318 788 325 798 c 1,0,1
117 795 m 1,74,75
 152 793 152 793 186.5 792.5 c 128,-1,76
 221 792 221 792 256 783 c 1,77,78
 256 760 256 760 254.5 738 c 128,-1,79
 253 716 253 716 247 694 c 1,80,81
 212 696 212 696 177.5 698.5 c 128,-1,82
 143 701 143 701 109 706 c 1,83,84
 109 728 109 728 111 750 c 128,-1,85
 113 772 113 772 117 795 c 1,74,75
EndSplineSet
EndChar

StartChar: Thorn
Encoding: 222 222 212
Width: 539
Flags: W
LayerCount: 2
Fore
SplineSet
334 573 m 1,0,1
 381 562 381 562 423.5 538.5 c 128,-1,2
 466 515 466 515 510 496 c 1,3,4
 510 383 510 383 510 313.5 c 128,-1,5
 510 244 510 244 509.5 203.5 c 128,-1,6
 509 163 509 163 508.5 144 c 128,-1,7
 508 125 508 125 507 112 c 1,8,9
 459 85 459 85 415 53 c 128,-1,10
 371 21 371 21 321 -2 c 1,11,12
 294 9 294 9 270 24.5 c 128,-1,13
 246 40 246 40 220 51 c 1,14,15
 215 0 215 0 218 -50 c 128,-1,16
 221 -100 221 -100 213 -150 c 1,17,18
 178 -159 178 -159 142 -166 c 128,-1,19
 106 -173 106 -173 70 -170 c 1,20,21
 70 -96 70 -96 70.5 -23.5 c 128,-1,22
 71 49 71 49 66 123 c 1,23,24
 50 131 50 131 33.5 138 c 128,-1,25
 17 145 17 145 1 154 c 1,26,27
 12 178 12 178 32 196.5 c 128,-1,28
 52 215 52 215 69 235 c 1,29,30
 69 335 69 335 68 433 c 128,-1,31
 67 531 67 531 69 631 c 1,32,33
 55 645 55 645 37 652 c 128,-1,34
 19 659 19 659 9 675 c 1,35,36
 18 703 18 703 37 726 c 128,-1,37
 56 749 56 749 70 775 c 0,38,39
 75 786 75 786 85.5 786 c 128,-1,40
 96 786 96 786 105 781 c 0,41,42
 137 767 137 767 166.5 750 c 128,-1,43
 196 733 196 733 228 718 c 1,44,45
 222 654 222 654 220 599.5 c 128,-1,46
 218 545 218 545 217 497 c 1,47,48
 245 515 245 515 278 537 c 128,-1,49
 311 559 311 559 334 573 c 1,0,1
286 447 m 1,50,51
 275 444 275 444 255 434 c 128,-1,52
 235 424 235 424 218 413 c 1,53,54
 219 365 219 365 219 322 c 128,-1,55
 219 279 219 279 217 237 c 1,56,57
 219 228 219 228 218 216 c 128,-1,58
 217 204 217 204 228 201 c 1,59,60
 263 184 263 184 295.5 164.5 c 128,-1,61
 328 145 328 145 364 130 c 1,62,63
 361 136 361 136 360 163 c 128,-1,64
 359 190 359 190 359 230 c 128,-1,65
 359 270 359 270 359.5 318 c 128,-1,66
 360 366 360 366 361 414 c 1,67,68
 342 422 342 422 324 431 c 128,-1,69
 306 440 306 440 286 447 c 1,50,51
EndSplineSet
EndChar

StartChar: germandbls
Encoding: 223 223 209
Width: 544
Flags: W
LayerCount: 2
Fore
SplineSet
113 788 m 1,0,1
 143 786 143 786 172.5 781 c 128,-1,2
 202 776 202 776 231 770 c 1,3,4
 231 741 231 741 229 711.5 c 128,-1,5
 227 682 227 682 228 653 c 1,6,-1
 159 658 l 1,7,8
 164 650 164 650 169 641 c 128,-1,9
 174 632 174 632 178 622 c 1,10,11
 203 622 203 622 247 623 c 128,-1,12
 291 624 291 624 337.5 625 c 128,-1,13
 384 626 384 626 426.5 626 c 128,-1,14
 469 626 469 626 492 625 c 1,15,16
 501 608 501 608 498 584.5 c 128,-1,17
 495 561 495 561 486 545 c 0,18,19
 463 506 463 506 431 467 c 128,-1,20
 399 428 399 428 377 387 c 1,21,22
 389 378 389 378 404.5 370.5 c 128,-1,23
 420 363 420 363 436.5 356 c 128,-1,24
 453 349 453 349 468.5 342 c 128,-1,25
 484 335 484 335 495 327 c 1,26,-1
 495 52 l 2,27,28
 495 32 495 32 494.5 11.5 c 128,-1,29
 494 -9 494 -9 489 -29 c 1,30,31
 474 -43 474 -43 456.5 -56.5 c 128,-1,32
 439 -70 439 -70 421 -83.5 c 128,-1,33
 403 -97 403 -97 385.5 -110.5 c 128,-1,34
 368 -124 368 -124 354 -137 c 1,35,36
 347 -135 347 -135 340 -134.5 c 128,-1,37
 333 -134 333 -134 326 -129 c 0,38,39
 300 -111 300 -111 275 -94 c 128,-1,40
 250 -77 250 -77 225 -60 c 1,41,42
 221 -42 221 -42 223 -23.5 c 128,-1,43
 225 -5 225 -5 230.5 12 c 128,-1,44
 236 29 236 29 243 46 c 128,-1,45
 250 63 250 63 256 78 c 1,46,47
 282 60 282 60 306.5 38 c 128,-1,48
 331 16 331 16 358 -3 c 1,49,50
 363 118 363 118 358 240 c 1,51,52
 335 256 335 256 309.5 266 c 128,-1,53
 284 276 284 276 264 297 c 1,54,55
 289 344 289 344 322 391.5 c 128,-1,56
 355 439 355 439 380 484 c 1,57,58
 371 485 371 485 350 485.5 c 128,-1,59
 329 486 329 486 302.5 485.5 c 128,-1,60
 276 485 276 485 246 484.5 c 128,-1,61
 216 484 216 484 188 484 c 1,62,63
 188 353 188 353 188.5 223.5 c 128,-1,64
 189 94 189 94 188 -37 c 1,65,66
 186 -69 186 -69 188.5 -100.5 c 128,-1,67
 191 -132 191 -132 180 -164 c 1,68,69
 148 -168 148 -168 116 -172 c 128,-1,70
 84 -176 84 -176 51 -178 c 1,71,72
 43 -158 43 -158 45 -136 c 128,-1,73
 47 -114 47 -114 47 -94 c 0,74,75
 45 74 45 74 46.5 240 c 128,-1,76
 48 406 48 406 41 574 c 1,77,78
 44 603 44 603 36.5 632 c 128,-1,79
 29 661 29 661 18 688 c 1,80,81
 20 699 20 699 29 706.5 c 128,-1,82
 38 714 38 714 45 722 c 1,83,84
 62 738 62 738 77.5 756 c 128,-1,85
 93 774 93 774 113 788 c 1,0,1
EndSplineSet
EndChar

StartChar: adieresis
Encoding: 228 228 53
Width: 452
Flags: W
LayerCount: 2
Fore
SplineSet
203 736 m 1,0,1
 201 706 201 706 190.5 678.5 c 128,-1,2
 180 651 180 651 170 622 c 1,3,4
 152 624 152 624 134 629.5 c 128,-1,5
 116 635 116 635 98 640 c 1,6,7
 83 646 83 646 65.5 648 c 128,-1,8
 48 650 48 650 38 663 c 1,9,10
 40 691 40 691 49 717 c 128,-1,11
 58 743 58 743 66 769 c 1,12,-1
 203 736 l 1,0,1
255 766 m 1,13,14
 271 772 271 772 281.5 771 c 128,-1,15
 292 770 292 770 308 763 c 1,16,17
 353 748 353 748 401 736 c 1,18,19
 394 707 394 707 386 679 c 128,-1,20
 378 651 378 651 369 622 c 1,21,22
 334 626 334 626 301 636 c 128,-1,23
 268 646 268 646 236 655 c 1,24,25
 237 680 237 680 244.5 703 c 128,-1,26
 252 726 252 726 254 750 c 1,27,28
 252 752 252 752 254.5 758 c 128,-1,29
 257 764 257 764 255 766 c 1,13,14
27 520 m 1,30,31
 72 545 72 545 118.5 566 c 128,-1,32
 165 587 165 587 213 607 c 1,33,34
 260 591 260 591 306.5 574 c 128,-1,35
 353 557 353 557 401 541 c 1,36,37
 402 332 402 332 401 121 c 1,38,39
 412 118 412 118 424 114 c 128,-1,40
 436 110 436 110 449 106 c 1,41,42
 441 74 441 74 422 46.5 c 128,-1,43
 403 19 403 19 383 -6 c 1,44,45
 368 -6 368 -6 353 -2 c 128,-1,46
 338 2 338 2 323.5 7 c 128,-1,47
 309 12 309 12 295 17 c 128,-1,48
 281 22 281 22 266 25 c 1,49,50
 262 34 262 34 259.5 42.5 c 128,-1,51
 257 51 257 51 254 60 c 1,52,53
 232 46 232 46 214 28 c 128,-1,54
 196 10 196 10 176 -6 c 1,55,56
 166 -6 166 -6 156 -4 c 128,-1,57
 146 -2 146 -2 137 1 c 1,58,59
 110 14 110 14 82 25 c 128,-1,60
 54 36 54 36 27 46 c 1,61,62
 24 165 24 165 25.5 283.5 c 128,-1,63
 27 402 27 402 27 520 c 1,30,31
179 477 m 1,64,65
 177 391 177 391 173 306 c 128,-1,66
 169 221 169 221 177 135 c 1,67,68
 188 131 188 131 198 127 c 128,-1,69
 208 123 208 123 219 120 c 1,70,71
 239 135 239 135 254 150 c 1,72,73
 253 195 253 195 253 234 c 128,-1,74
 253 273 253 273 254 308.5 c 128,-1,75
 255 344 255 344 256 376.5 c 128,-1,76
 257 409 257 409 258 442 c 1,77,78
 235 453 235 453 218.5 462.5 c 128,-1,79
 202 472 202 472 179 477 c 1,64,65
EndSplineSet
EndChar

StartChar: ae
Encoding: 230 230 115
Width: 623
Flags: W
LayerCount: 2
Fore
SplineSet
191 -3 m 1,0,1
 148 13 148 13 106.5 31.5 c 128,-1,2
 65 50 65 50 24 70 c 1,3,4
 19 92 19 92 17 124 c 128,-1,5
 15 156 15 156 15 190 c 0,6,7
 15 222 15 222 16 251.5 c 128,-1,8
 17 281 17 281 18 301 c 1,9,10
 22 311 22 311 45.5 324.5 c 128,-1,11
 69 338 69 338 100 352 c 128,-1,12
 131 366 131 366 164.5 380 c 128,-1,13
 198 394 198 394 222 405 c 1,14,15
 226 415 226 415 226.5 427 c 128,-1,16
 227 439 227 439 227 450 c 1,17,18
 197 463 197 463 170.5 470.5 c 128,-1,19
 144 478 144 478 119.5 484 c 128,-1,20
 95 490 95 490 70.5 495.5 c 128,-1,21
 46 501 46 501 20 510 c 1,22,23
 36 542 36 542 54.5 570.5 c 128,-1,24
 73 599 73 599 98 622 c 1,25,26
 110 621 110 621 132.5 616 c 128,-1,27
 155 611 155 611 182.5 603.5 c 128,-1,28
 210 596 210 596 240.5 587 c 128,-1,29
 271 578 271 578 299 569 c 1,30,31
 328 584 328 584 358 598 c 128,-1,32
 388 612 388 612 420 622 c 1,33,34
 463 606 463 606 504.5 587.5 c 128,-1,35
 546 569 546 569 587 549 c 1,36,37
 592 527 592 527 594 495 c 128,-1,38
 596 463 596 463 596 429 c 0,39,40
 596 397 596 397 595 367.5 c 128,-1,41
 594 338 594 338 593 318 c 1,42,43
 589 308 589 308 565.5 294.5 c 128,-1,44
 542 281 542 281 511 267 c 128,-1,45
 480 253 480 253 446.5 239 c 128,-1,46
 413 225 413 225 389 214 c 1,47,48
 385 204 385 204 384.5 192 c 128,-1,49
 384 180 384 180 384 169 c 1,50,51
 414 156 414 156 440.5 148.5 c 128,-1,52
 467 141 467 141 491.5 135 c 128,-1,53
 516 129 516 129 540.5 123.5 c 128,-1,54
 565 118 565 118 591 109 c 1,55,56
 575 77 575 77 556.5 48.5 c 128,-1,57
 538 20 538 20 513 -3 c 1,58,59
 501 -2 501 -2 478.5 3 c 128,-1,60
 456 8 456 8 428 15.5 c 128,-1,61
 400 23 400 23 369.5 32 c 128,-1,62
 339 41 339 41 312 50 c 1,63,64
 282 35 282 35 252 20.5 c 128,-1,65
 222 6 222 6 191 -3 c 1,0,1
218 124 m 1,66,-1
 231 136 l 1,67,-1
 231 261 l 2,68,69
 231 280 231 280 231 298 c 128,-1,70
 231 316 231 316 230 334 c 1,71,72
 213 327 213 327 196 321 c 128,-1,73
 179 315 179 315 167 303 c 1,74,75
 165 292 165 292 165 280.5 c 128,-1,76
 165 269 165 269 165 258 c 0,77,78
 165 235 165 235 166 213 c 128,-1,79
 167 191 167 191 167 168 c 0,80,81
 167 158 167 158 172 151.5 c 128,-1,82
 177 145 177 145 185 140 c 128,-1,83
 193 135 193 135 201.5 131.5 c 128,-1,84
 210 128 210 128 218 124 c 1,66,-1
393 495 m 1,85,-1
 380 483 l 1,86,-1
 380 358 l 2,87,88
 380 339 380 339 380 321 c 128,-1,89
 380 303 380 303 381 285 c 1,90,91
 398 292 398 292 415 298 c 128,-1,92
 432 304 432 304 444 316 c 1,93,94
 446 327 446 327 446 338.5 c 128,-1,95
 446 350 446 350 446 361 c 0,96,97
 446 384 446 384 445 406 c 128,-1,98
 444 428 444 428 444 451 c 0,99,100
 444 461 444 461 439 467.5 c 128,-1,101
 434 474 434 474 426 479 c 128,-1,102
 418 484 418 484 409 487.5 c 128,-1,103
 400 491 400 491 393 495 c 1,85,-1
EndSplineSet
EndChar

StartChar: eth
Encoding: 240 240 214
Width: 430
Flags: W
LayerCount: 2
Fore
SplineSet
56 586 m 1,0,1
 48 606 48 606 43.5 611 c 128,-1,2
 39 616 39 616 36 618.5 c 128,-1,3
 33 621 33 621 31.5 626 c 128,-1,4
 30 631 30 631 27 650 c 1,5,6
 33 651 33 651 45 658 c 1,7,8
 28 672 28 672 10 695 c 1,9,10
 19 706 19 706 31 722.5 c 128,-1,11
 43 739 43 739 56 754 c 128,-1,12
 69 769 69 769 81 780 c 128,-1,13
 93 791 93 791 102 791 c 0,14,15
 113 791 113 791 118 785 c 1,16,17
 148 761 148 761 177 741 c 1,18,19
 200 755 200 755 220 764.5 c 128,-1,20
 240 774 240 774 252 775 c 1,21,22
 258 761 258 761 263 756 c 128,-1,23
 268 751 268 751 272 747 c 128,-1,24
 276 743 276 743 278.5 737 c 128,-1,25
 281 731 281 731 282 716 c 1,26,27
 269 711 269 711 240 693 c 1,28,29
 280 664 280 664 320 635.5 c 128,-1,30
 360 607 360 607 402 580 c 1,31,-1
 405 572 l 1,32,-1
 405 100 l 2,33,34
 405 91 405 91 386.5 78.5 c 128,-1,35
 368 66 368 66 341 52.5 c 128,-1,36
 314 39 314 39 284.5 25.5 c 128,-1,37
 255 12 255 12 234 2 c 0,38,39
 227 -2 227 -2 220 -2 c 0,40,41
 212 -2 212 -2 189 6 c 128,-1,42
 166 14 166 14 137.5 25.5 c 128,-1,43
 109 37 109 37 80.5 50 c 128,-1,44
 52 63 52 63 33 74 c 1,45,-1
 33 527 l 1,46,47
 65 538 65 538 96 549 c 128,-1,48
 127 560 127 560 157 572 c 1,49,50
 149 583 149 583 137 592 c 128,-1,51
 125 601 125 601 111 610 c 1,52,53
 94 600 94 600 80 593.5 c 128,-1,54
 66 587 66 587 56 586 c 1,0,1
177 506 m 1,55,56
 177 440 177 440 179 373.5 c 128,-1,57
 181 307 181 307 181 241 c 0,58,59
 181 221 181 221 181 201 c 128,-1,60
 181 181 181 181 180 161 c 1,61,62
 198 149 198 149 217 141.5 c 128,-1,63
 236 134 236 134 256 127 c 1,64,65
 258 157 258 157 258 186.5 c 128,-1,66
 258 216 258 216 258 247 c 0,67,68
 258 308 258 308 257 368 c 128,-1,69
 256 428 256 428 256 488 c 0,70,71
 256 508 256 508 241 517.5 c 128,-1,72
 226 527 226 527 210 532 c 1,73,74
 202 525 202 525 193.5 519 c 128,-1,75
 185 513 185 513 177 506 c 1,55,56
EndSplineSet
EndChar

StartChar: odieresis
Encoding: 246 246 54
Width: 425
Flags: W
LayerCount: 2
Fore
SplineSet
57 783 m 1,0,1
 92 783 92 783 125.5 772 c 128,-1,2
 159 761 159 761 192 750 c 1,3,4
 184 721 184 721 176 692.5 c 128,-1,5
 168 664 168 664 159 636 c 1,6,7
 132 641 132 641 106 648.5 c 128,-1,8
 80 656 80 656 54 663 c 0,9,10
 45 665 45 665 35 671 c 128,-1,11
 25 677 25 677 28 688 c 0,12,13
 34 712 34 712 41.5 735.5 c 128,-1,14
 49 759 49 759 57 783 c 1,0,1
253 783 m 1,15,16
 288 781 288 781 322 772 c 128,-1,17
 356 763 356 763 388 748 c 1,18,19
 383 719 383 719 376 690 c 128,-1,20
 369 661 369 661 351 636 c 1,21,22
 322 647 322 647 289.5 653 c 128,-1,23
 257 659 257 659 228 673 c 1,24,25
 227 687 227 687 230 701 c 128,-1,26
 233 715 233 715 237 728.5 c 128,-1,27
 241 742 241 742 245.5 755.5 c 128,-1,28
 250 769 250 769 253 783 c 1,15,16
25 537 m 1,29,30
 70 558 70 558 114.5 580.5 c 128,-1,31
 159 603 159 603 205 621 c 1,32,33
 255 607 255 607 302.5 587.5 c 128,-1,34
 350 568 350 568 399 550 c 1,35,36
 401 459 401 459 399 368 c 128,-1,37
 397 277 397 277 399 184 c 1,38,39
 397 157 397 157 398 129.5 c 128,-1,40
 399 102 399 102 391 75 c 1,41,42
 349 59 349 59 309.5 38 c 128,-1,43
 270 17 270 17 228 1 c 1,44,45
 214 -6 214 -6 200 -1 c 128,-1,46
 186 4 186 4 172 9 c 0,47,48
 136 23 136 23 99.5 36.5 c 128,-1,49
 63 50 63 50 27 64 c 1,50,51
 25 183 25 183 26 300.5 c 128,-1,52
 27 418 27 418 25 537 c 1,29,30
174 490 m 1,53,54
 170 405 170 405 171 321 c 128,-1,55
 172 237 172 237 172 151 c 1,56,57
 189 142 189 142 202.5 137 c 128,-1,58
 216 132 216 132 239 120 c 1,59,60
 246 125 246 125 249.5 126 c 128,-1,61
 253 127 253 127 252 136 c 1,62,63
 254 218 254 218 250.5 298.5 c 128,-1,64
 247 379 247 379 250 462 c 1,65,66
 232 472 232 472 213 479.5 c 128,-1,67
 194 487 194 487 174 490 c 1,53,54
EndSplineSet
EndChar

StartChar: divide
Encoding: 247 247 210
Width: 530
Flags: W
LayerCount: 2
Fore
SplineSet
483 337 m 1,0,1
 461 335 461 335 426.5 334.5 c 128,-1,2
 392 334 392 334 352 334 c 128,-1,3
 312 334 312 334 268.5 334 c 128,-1,4
 225 334 225 334 184.5 334.5 c 128,-1,5
 144 335 144 335 109.5 335.5 c 128,-1,6
 75 336 75 336 52 337 c 1,7,8
 38 357 38 357 41 378.5 c 128,-1,9
 44 400 44 400 50 421 c 1,10,11
 83 424 83 424 139 425 c 128,-1,12
 195 426 195 426 257 426 c 128,-1,13
 319 426 319 426 378.5 425 c 128,-1,14
 438 424 438 424 478 424 c 1,15,16
 485 410 485 410 488 400.5 c 128,-1,17
 491 391 491 391 491.5 382 c 128,-1,18
 492 373 492 373 489.5 362.5 c 128,-1,19
 487 352 487 352 483 337 c 1,0,1
312 468 m 1,20,21
 277 473 277 473 244 485.5 c 128,-1,22
 211 498 211 498 179 509 c 1,23,24
 181 538 181 538 191 566 c 128,-1,25
 201 594 201 594 213 621 c 1,26,27
 247 620 247 620 280 607 c 128,-1,28
 313 594 313 594 345 585 c 1,29,30
 342 566 342 566 339.5 552.5 c 128,-1,31
 337 539 337 539 333.5 527 c 128,-1,32
 330 515 330 515 325 501.5 c 128,-1,33
 320 488 320 488 312 468 c 1,20,21
304 123 m 1,34,35
 269 128 269 128 236 140.5 c 128,-1,36
 203 153 203 153 171 164 c 1,37,38
 173 193 173 193 183 221 c 128,-1,39
 193 249 193 249 205 276 c 1,40,41
 239 275 239 275 272 262 c 128,-1,42
 305 249 305 249 337 240 c 1,43,44
 334 221 334 221 332 208 c 128,-1,45
 330 195 330 195 326.5 183 c 128,-1,46
 323 171 323 171 317.5 157.5 c 128,-1,47
 312 144 312 144 304 123 c 1,34,35
EndSplineSet
EndChar

StartChar: oslash
Encoding: 248 248 167
Width: 424
Flags: W
LayerCount: 2
Fore
SplineSet
169 602 m 0,0,1
 180 607 180 607 191 611.5 c 128,-1,2
 202 616 202 616 214 616 c 0,3,4
 218 616 218 616 222 615 c 128,-1,5
 226 614 226 614 231 613 c 0,6,7
 253 605 253 605 275 597 c 128,-1,8
 297 589 297 589 319 580 c 1,9,10
 333 611 333 611 344 628.5 c 128,-1,11
 355 646 355 646 366 644 c 1,12,13
 381 636 381 636 394.5 624 c 128,-1,14
 408 612 408 612 420 600 c 1,15,-1
 393 549 l 1,16,-1
 399 547 l 1,17,-1
 399 410 l 2,18,19
 399 326 399 326 399 244.5 c 128,-1,20
 399 163 399 163 397 80 c 1,21,22
 356 59 356 59 315 38 c 128,-1,23
 274 17 274 17 229 -1 c 0,24,25
 221 -5 221 -5 213 -5 c 0,26,27
 198 -5 198 -5 168.5 5.5 c 128,-1,28
 139 16 139 16 106 30 c 1,29,30
 101 20 101 20 95.5 10 c 128,-1,31
 90 0 90 0 85 -10 c 1,32,33
 81 -12 81 -12 69 -11.5 c 128,-1,34
 57 -11 57 -11 43.5 -9.5 c 128,-1,35
 30 -8 30 -8 17.5 -6 c 128,-1,36
 5 -4 5 -4 -1 -2 c 1,37,-1
 32 60 l 2,38,39
 31 60 31 60 27 62 c 1,40,41
 25 107 25 107 25 149.5 c 128,-1,42
 25 192 25 192 25 236 c 2,43,-1
 25 533 l 1,44,45
 60 553 60 553 96.5 568.5 c 128,-1,46
 133 584 133 584 169 602 c 0,0,1
177 485 m 1,47,48
 175 442 175 442 175 400.5 c 128,-1,49
 175 359 175 359 175 316 c 2,50,-1
 175 315 l 1,51,-1
 253 456 l 1,52,-1
 253 458 l 1,53,54
 239 466 239 466 222 477 c 128,-1,55
 205 488 205 488 187 488 c 0,56,57
 181 488 181 488 177 485 c 1,47,48
175 153 m 1,58,-1
 175 148 l 1,59,60
 195 140 195 140 213.5 133 c 128,-1,61
 232 126 232 126 252 121 c 1,62,-1
 252 292 l 1,63,64
 231 254 231 254 211.5 219 c 128,-1,65
 192 184 192 184 175 153 c 1,58,-1
EndSplineSet
EndChar

StartChar: udieresis
Encoding: 252 252 55
Width: 491
Flags: W
LayerCount: 2
Fore
SplineSet
95 778 m 1,0,1
 130 777 130 777 162 766 c 128,-1,2
 194 755 194 755 227 747 c 1,3,4
 228 716 228 716 218 687 c 128,-1,5
 208 658 208 658 197 631 c 1,6,7
 174 633 174 633 152 641 c 128,-1,8
 130 649 130 649 107 654 c 0,9,10
 101 656 101 656 95 657.5 c 128,-1,11
 89 659 89 659 83 660.5 c 128,-1,12
 77 662 77 662 72.5 665.5 c 128,-1,13
 68 669 68 669 66 676 c 1,14,15
 71 702 71 702 79 727.5 c 128,-1,16
 87 753 87 753 95 778 c 1,0,1
291 780 m 1,17,18
 318 780 318 780 343.5 772 c 128,-1,19
 369 764 369 764 395 759 c 1,20,21
 403 754 403 754 412 749.5 c 128,-1,22
 421 745 421 745 429 739 c 1,23,24
 422 711 422 711 414.5 684 c 128,-1,25
 407 657 407 657 398 631 c 1,26,27
 363 637 363 637 328.5 648 c 128,-1,28
 294 659 294 659 261 673 c 1,29,30
 268 700 268 700 275.5 727 c 128,-1,31
 283 754 283 754 291 780 c 1,17,18
84 609 m 1,32,33
 118 601 118 601 150 588.5 c 128,-1,34
 182 576 182 576 215 565 c 1,35,36
 216 458 216 458 214.5 352.5 c 128,-1,37
 213 247 213 247 215 139 c 1,38,39
 224 134 224 134 235 130.5 c 128,-1,40
 246 127 246 127 257 127 c 128,-1,41
 268 127 268 127 277.5 131.5 c 128,-1,42
 287 136 287 136 293 148 c 1,43,44
 295 227 295 227 293 305 c 128,-1,45
 291 383 291 383 293 462 c 1,46,47
 280 471 280 471 268 479 c 128,-1,48
 256 487 256 487 243 496 c 1,49,50
 256 527 256 527 274 553 c 128,-1,51
 292 579 292 579 306 607 c 1,52,53
 340 604 340 604 372.5 592.5 c 128,-1,54
 405 581 405 581 437 567 c 1,55,56
 440 455 440 455 438.5 345 c 128,-1,57
 437 235 437 235 443 124 c 1,58,59
 454 121 454 121 464.5 117 c 128,-1,60
 475 113 475 113 486 109 c 1,61,-1
 414 -6 l 1,62,63
 360 18 360 18 303 30 c 1,64,65
 300 38 300 38 300 48.5 c 128,-1,66
 300 59 300 59 290 64 c 1,67,68
 270 47 270 47 251 29 c 128,-1,69
 232 11 232 11 210 -3 c 1,70,71
 174 5 174 5 140.5 20.5 c 128,-1,72
 107 36 107 36 72 45 c 1,73,74
 70 80 70 80 70.5 113.5 c 128,-1,75
 71 147 71 147 66 181 c 1,76,77
 65 253 65 253 66.5 324 c 128,-1,78
 68 395 68 395 66 466 c 1,79,80
 48 480 48 480 27 481 c 1,81,82
 27 490 27 490 25.5 499.5 c 128,-1,83
 24 509 24 509 29 517 c 0,84,85
 43 540 43 540 56.5 562.5 c 128,-1,86
 70 585 70 585 84 609 c 1,32,33
EndSplineSet
EndChar

StartChar: thorn
Encoding: 254 254 211
Width: 455
Flags: W
LayerCount: 2
Fore
SplineSet
58 182 m 2,0,-1
 58 305 l 1,1,-1
 58 365 l 1,2,-1
 61 745 l 2,3,4
 61 747 61 747 60 748.5 c 128,-1,5
 59 750 59 750 59 752 c 0,6,7
 59 763 59 763 67 768 c 128,-1,8
 75 773 75 773 86 775.5 c 128,-1,9
 97 778 97 778 109 778.5 c 128,-1,10
 121 779 121 779 130 781 c 1,11,12
 140 781 140 781 154 784.5 c 128,-1,13
 168 788 168 788 181 788 c 0,14,15
 191 788 191 788 198 783 c 128,-1,16
 205 778 205 778 205 764 c 0,17,18
 205 733 205 733 204.5 706 c 128,-1,19
 204 679 204 679 204 653.5 c 128,-1,20
 204 628 204 628 203.5 603 c 128,-1,21
 203 578 203 578 203 551 c 1,22,-1
 205 535 l 1,23,24
 225 551 225 551 242.5 568 c 128,-1,25
 260 585 260 585 282 599 c 0,26,27
 287 602 287 602 304 597 c 128,-1,28
 321 592 321 592 343 582.5 c 128,-1,29
 365 573 365 573 388.5 562.5 c 128,-1,30
 412 552 412 552 429 545 c 1,31,32
 430 482 430 482 431 419 c 128,-1,33
 432 356 432 356 432 292 c 0,34,35
 432 240 432 240 431 188.5 c 128,-1,36
 430 137 430 137 429 85 c 1,37,38
 412 67 412 67 390 56 c 128,-1,39
 368 45 368 45 348 32 c 1,40,41
 328 21 328 21 310.5 9 c 128,-1,42
 293 -3 293 -3 273 -8 c 1,43,44
 255 -3 255 -3 238 5 c 128,-1,45
 221 13 221 13 204 20 c 1,46,47
 202 8 202 8 202 -5 c 128,-1,48
 202 -18 202 -18 202 -31 c 2,49,-1
 202 -85 l 2,50,51
 202 -96 202 -96 203 -109 c 128,-1,52
 204 -122 204 -122 202.5 -134 c 128,-1,53
 201 -146 201 -146 195.5 -155.5 c 128,-1,54
 190 -165 190 -165 178 -167 c 0,55,56
 153 -172 153 -172 128 -174.5 c 128,-1,57
 103 -177 103 -177 78 -182 c 1,58,59
 74 -181 74 -181 68 -178 c 128,-1,60
 62 -175 62 -175 57 -173 c 1,61,-1
 57 65 l 1,62,63
 44 72 44 72 32 78.5 c 128,-1,64
 20 85 20 85 7 91 c 1,65,66
 7 106 7 106 15 116.5 c 128,-1,67
 23 127 23 127 32.5 136.5 c 128,-1,68
 42 146 42 146 50 156.5 c 128,-1,69
 58 167 58 167 58 182 c 2,0,-1
226 467 m 0,70,71
 212 462 212 462 210 447.5 c 128,-1,72
 208 433 208 433 204 422 c 1,73,74
 203 353 203 353 202.5 306.5 c 128,-1,75
 202 260 202 260 202.5 229 c 128,-1,76
 203 198 203 198 205 179.5 c 128,-1,77
 207 161 207 161 210 148 c 1,78,-1
 282 116 l 1,79,80
 287 188 287 188 285 259 c 128,-1,81
 283 330 283 330 283 403 c 2,82,-1
 283 413 l 1,83,-1
 270 460 l 1,84,85
 262 462 262 462 254 466 c 128,-1,86
 246 470 246 470 238 470 c 0,87,88
 235 470 235 470 232.5 469.5 c 128,-1,89
 230 469 230 469 226 467 c 0,70,71
EndSplineSet
EndChar

StartChar: dotlessi
Encoding: 305 305 107
Width: 236
Flags: W
LayerCount: 2
Fore
SplineSet
60 606 m 1,0,1
 93 606 93 606 123.5 592.5 c 128,-1,2
 154 579 154 579 186 568 c 1,3,4
 191 551 191 551 191 537 c 2,5,-1
 191 516 l 1,6,-1
 191 505 l 1,7,-1
 191 433 l 2,8,9
 191 361 191 361 191.5 288.5 c 128,-1,10
 192 216 192 216 192 144 c 2,11,-1
 192 139 l 2,12,13
 192 130 192 130 198.5 125 c 128,-1,14
 205 120 205 120 213 116.5 c 128,-1,15
 221 113 221 113 227.5 110 c 128,-1,16
 234 107 234 107 234 102 c 0,17,18
 234 92 234 92 226.5 77.5 c 128,-1,19
 219 63 219 63 208.5 47.5 c 128,-1,20
 198 32 198 32 186 18 c 128,-1,21
 174 4 174 4 165 -5 c 1,22,23
 150 -4 150 -4 135.5 0.5 c 128,-1,24
 121 5 121 5 107 10 c 128,-1,25
 93 15 93 15 79 20 c 128,-1,26
 65 25 65 25 50 27 c 1,27,28
 42 48 42 48 42 67 c 2,29,-1
 42 139 l 1,30,-1
 42 273 l 2,31,32
 42 309 42 309 44.5 345 c 128,-1,33
 47 381 47 381 47 417 c 0,34,35
 47 431 47 431 44 446 c 128,-1,36
 41 461 41 461 38 475 c 1,37,38
 25 480 25 480 15.5 489.5 c 128,-1,39
 6 499 6 499 6 511 c 0,40,41
 6 520 6 520 12 532.5 c 128,-1,42
 18 545 18 545 27 558 c 128,-1,43
 36 571 36 571 45 583.5 c 128,-1,44
 54 596 54 596 60 606 c 1,0,1
EndSplineSet
EndChar

StartChar: OE
Encoding: 338 338 134
Width: 734
Flags: W
LayerCount: 2
Fore
SplineSet
82 705 m 0,0,1
 118 724 118 724 155 740.5 c 128,-1,2
 192 757 192 757 228 775 c 0,3,4
 240 781 240 781 251.5 780 c 128,-1,5
 263 779 263 779 275 775.5 c 128,-1,6
 287 772 287 772 298.5 766.5 c 128,-1,7
 310 761 310 761 321 757 c 1,8,9
 344 746 344 746 369.5 737 c 128,-1,10
 395 728 395 728 420 719 c 1,11,12
 444 737 444 737 468 754 c 128,-1,13
 492 771 492 771 520 782 c 0,14,15
 520 783 520 783 524.5 785.5 c 128,-1,16
 529 788 529 788 535 789 c 128,-1,17
 541 790 541 790 549 788 c 128,-1,18
 557 786 557 786 565 778 c 1,19,20
 601 765 601 765 638.5 756 c 128,-1,21
 676 747 676 747 713 734 c 1,22,23
 708 702 708 702 697 672.5 c 128,-1,24
 686 643 686 643 679 611 c 1,25,26
 670 611 670 611 660 609.5 c 128,-1,27
 650 608 650 608 641 611 c 0,28,29
 604 624 604 624 567 636.5 c 128,-1,30
 530 649 530 649 493 658 c 1,31,32
 491 615 491 615 492 572.5 c 128,-1,33
 493 530 493 530 491 488 c 1,34,35
 542 487 542 487 593 488.5 c 128,-1,36
 644 490 644 490 695 488 c 1,37,38
 688 454 688 454 681 419.5 c 128,-1,39
 674 385 674 385 656 355 c 1,40,41
 615 353 615 353 574.5 354.5 c 128,-1,42
 534 356 534 356 493 355 c 1,43,44
 491 319 491 319 491 268 c 128,-1,45
 491 217 491 217 493 172 c 1,46,47
 519 164 519 164 545.5 153 c 128,-1,48
 572 142 572 142 599.5 132 c 128,-1,49
 627 122 627 122 655 114 c 128,-1,50
 683 106 683 106 713 103 c 1,51,52
 713 83 713 83 703.5 67 c 128,-1,53
 694 51 694 51 686 35 c 1,54,55
 676 18 676 18 667.5 0.5 c 128,-1,56
 659 -17 659 -17 644 -28 c 1,57,58
 589 -10 589 -10 534 7 c 128,-1,59
 479 24 479 24 425 44 c 1,60,61
 400 31 400 31 374 18.5 c 128,-1,62
 348 6 348 6 324.5 -4.5 c 128,-1,63
 301 -15 301 -15 281.5 -23.5 c 128,-1,64
 262 -32 262 -32 250 -36 c 1,65,66
 205 -26 205 -26 166 -9.5 c 128,-1,67
 127 7 127 7 97 22 c 128,-1,68
 67 37 67 37 49.5 46.5 c 128,-1,69
 32 56 32 56 31 54 c 1,70,71
 26 72 26 72 28 90.5 c 128,-1,72
 30 109 30 109 28 129 c 1,73,74
 30 257 30 257 30.5 344.5 c 128,-1,75
 31 432 31 432 30.5 488.5 c 128,-1,76
 30 545 30 545 29.5 576.5 c 128,-1,77
 29 608 29 608 28 624.5 c 128,-1,78
 27 641 27 641 26 647 c 128,-1,79
 25 653 25 653 25 660 c 1,80,81
 31 680 31 680 48.5 688 c 128,-1,82
 66 696 66 696 82 705 c 0,0,1
186 657 m 1,83,84
 183 611 183 611 181.5 560 c 128,-1,85
 180 509 180 509 179.5 459.5 c 128,-1,86
 179 410 179 410 179.5 365.5 c 128,-1,87
 180 321 180 321 181 289 c 1,88,89
 180 252 180 252 177.5 215 c 128,-1,90
 175 178 175 178 183 142 c 1,91,92
 221 128 221 128 259.5 113.5 c 128,-1,93
 298 99 298 99 337 88 c 1,94,95
 335 219 335 219 337.5 348.5 c 128,-1,96
 340 478 340 478 334 609 c 1,97,98
 302 619 302 619 282.5 625 c 128,-1,99
 263 631 263 631 252 634.5 c 128,-1,100
 241 638 241 638 235.5 639.5 c 128,-1,101
 230 641 230 641 226 642 c 0,102,103
 218 645 218 645 206 650 c 128,-1,104
 194 655 194 655 186 657 c 1,83,84
EndSplineSet
EndChar
